<svg id="f947ca02-98f6-4737-aecf-ccb3c690e9a7" data-name="Layer 1" xmlns="http://www.w3.org/2000/svg" viewBox="0 0 445 445"><defs><style>.b9515080-eb13-4a7f-b6e3-45d8c3f5e411{fill:#978abe;}.e6ae0e32-22fc-47a9-9905-90b36deb1488{fill:#543f97;}.ee183eb9-cdf4-4c16-9dca-701b8e941e13{opacity:0.5;}.ae96eea5-df71-4452-8a44-c1415b9d4aba{fill:#e3ffd2;}.b2dd273a-52e3-4d4a-b25f-8c3dbe21aa91{fill:#786ab5;}.e360a1dc-cc00-4f53-b5d0-b0cbf885b8c0{fill:#002b34;}.ec569326-28db-46f2-bea9-501d4884e8c6{fill:#534a91;}.f34a3531-fee5-4c81-848f-e98671d5aea0{fill:#f18c7e;}.b056fb0e-3a02-4e92-89ff-eaef03219566{fill:#ffbb01;}.fb45d1f3-dbc0-41e0-b4e2-74ae5f897930{fill:#231f20;}.e8b96500-5f36-4841-bc59-56b931241228{fill:#7f3f98;}.bcaef300-0be0-4481-a8ed-6dc32ab8150f{fill:#fdad9b;}.a0a97a39-8396-46f5-8575-6c571619b988{fill:#060633;}.bd0aa0bf-51e6-4794-87a5-14bc312b0dd0{fill:#fff;}.bfcda818-8ac1-4a1d-8dee-6d51d487b269{fill:#e08b65;}.bd1fd549-0846-4023-be59-e8b822562f2d{fill:#58595b;}.fc2cdff9-bced-4891-abd7-b96a7d7caabb{fill:#ff4929;}.e9505134-9253-4b9c-891c-bfce2422f5d5{fill:#020202;}.a577d832-c04c-4372-9437-27b781cd7150{fill:#dd8964;}.e60a290a-f93a-43e1-ba16-b4ce00ac8a6b{fill:#db6b49;}</style></defs><path class="b9515080-eb13-4a7f-b6e3-45d8c3f5e411" d="M116.99908,326.205S101.6859,221.40678,73.40536,226.63045c-28.28046,5.22346,25.82058,67.95021,29.31179,98.599Z"/><path class="e6ae0e32-22fc-47a9-9905-90b36deb1488" d="M21.68446,302.52239c11.395,4.94863,5.82672,22.58047,20.06293,21.93874,14.23846-.64961,13.28617-1.74211,18.63931,5.45245,0,0,1.40706,6.20332,6.61547,8.22509,20.55079,7.977,55.93758-17.71661,37.17726-39.49508-1.35466-1.57271-3.59373-2.52-6.09841-3.43975-13.58851-4.98111-19.24014.58623-26.99652-18.14067-7.75953-18.7321-27.4739,1.98251-36.71284-.72428-9.23874-2.7068-16.96534-7.17786-26.27823,1.32883C-1.22169,286.18215,10.28695,297.5821,21.68446,302.52239Z"/><g class="ee183eb9-cdf4-4c16-9dca-701b8e941e13"><path class="ae96eea5-df71-4452-8a44-c1415b9d4aba" d="M92.8329,320.2039l.57935-.57562c-.25346-.25551-26.10152-25.731-87.5703-39.46686l-.17842.79762C66.9018,294.64366,92.58007,319.9499,92.8329,320.2039Z"/><path class="ae96eea5-df71-4452-8a44-c1415b9d4aba" d="M59.15612,288.70771c9.60491-5.70995,12.19681-11.24444,12.30229-11.477l-.74386-.33812c-.025.05471-2.61684,5.54883-11.97648,11.11276Z"/><path class="ae96eea5-df71-4452-8a44-c1415b9d4aba" d="M56.02439,297.07265c3.09117-3.57795,4.03142-9.43354,2.71923-16.93339a54.65029,54.65029,0,0,0-2.91733-10.29491l-.75418.3142c.07507.18058,7.4413,18.153.33362,26.38007Z"/><path class="ae96eea5-df71-4452-8a44-c1415b9d4aba" d="M40.04858,292.444c1.13067-.61843,1.75983-1.04149,1.78847-1.061l-.46149-.67416c-.13162.09035-13.38667,8.98446-29.59322,5.24809l-.18322.7958C24.658,299.76371,35.83533,294.74769,40.04858,292.444Z"/><path class="ae96eea5-df71-4452-8a44-c1415b9d4aba" d="M28.35144,309.38074a19.272,19.272,0,0,0,7.2168-10.04965,14.26943,14.26943,0,0,0,.61263-5.14348l-.81193.09316c.00888.08122.81722,8.20188-7.508,14.44671Z"/></g><path class="b9515080-eb13-4a7f-b6e3-45d8c3f5e411" d="M328.00091,326.205s15.3132-104.79819,43.59371-99.57452c28.28052,5.22346-25.82055,67.95021-29.31179,98.599Z"/><path class="e6ae0e32-22fc-47a9-9905-90b36deb1488" d="M423.31552,302.52239c-11.395,4.94863-5.82669,22.58047-20.06293,21.93874-14.23842-.64961-13.28614-1.74211-18.63931,5.45245,0,0-1.40706,6.20332-6.61546,8.22509-20.55076,7.977-55.93756-17.71661-37.17724-39.49508,1.35466-1.57271,3.59368-2.52,6.09845-3.43975,13.58847-4.98111,19.24007.58623,26.99651-18.14067,7.75951-18.7321,27.47388,1.98251,36.71281-.72428,9.23877-2.7068,16.96531-7.17786,26.27824,1.32883C446.22168,286.18215,434.71306,297.5821,423.31552,302.52239Z"/><g class="ee183eb9-cdf4-4c16-9dca-701b8e941e13"><path class="ae96eea5-df71-4452-8a44-c1415b9d4aba" d="M352.16708,320.2039l-.57929-.57562c.25343-.25551,26.1015-25.731,87.57024-39.46686l.17845.79762C378.09818,294.64366,352.41995,319.9499,352.16708,320.2039Z"/><path class="ae96eea5-df71-4452-8a44-c1415b9d4aba" d="M385.84386,288.70771c-9.6049-5.70995-12.19674-11.24444-12.30228-11.477l.74385-.33812c.025.05471,2.61685,5.54883,11.97651,11.11276Z"/><path class="ae96eea5-df71-4452-8a44-c1415b9d4aba" d="M388.97559,297.07265c-3.09119-3.57795-4.03136-9.43354-2.71919-16.93339a54.64591,54.64591,0,0,1,2.91733-10.29491l.75415.3142c-.07505.18058-7.44128,18.153-.3336,26.38007Z"/><path class="ae96eea5-df71-4452-8a44-c1415b9d4aba" d="M404.95141,292.444c-1.13065-.61843-1.75983-1.04149-1.78845-1.061l.46149-.67416c.13157.09035,13.38667,8.98446,29.59325,5.24809l.18319.7958C420.342,299.76371,409.16471,294.74769,404.95141,292.444Z"/><path class="ae96eea5-df71-4452-8a44-c1415b9d4aba" d="M416.64857,309.38074a19.27224,19.27224,0,0,1-7.21683-10.04965,14.26977,14.26977,0,0,1-.6126-5.14348l.81187.09316c-.00882.08122-.81719,8.20188,7.5081,14.44671Z"/></g><path class="b2dd273a-52e3-4d4a-b25f-8c3dbe21aa91" d="M415.18561,343.83c0,15.67818-84.61954,28.38793-189.00293,28.38793-104.38378,0-189.0031-12.70975-189.0031-28.38793,0-15.67851,84.61932-28.38858,189.0031-28.38858C330.56607,315.44143,415.18561,328.1515,415.18561,343.83Z"/><path class="e360a1dc-cc00-4f53-b5d0-b0cbf885b8c0" d="M121.43225,355.93041l-.12645-.30048a5.93759,5.93759,0,0,0,1.49459-2.95929,2.82828,2.82828,0,0,0-.24592-1.54875c-.15714-.33272-.34662-.49432-.57929-.49432H121.964c-1.129.025-2.76588,3.6727-2.78244,3.70979l-.29752.66856.0902-.80228c.0037-.03249.35678-3.25687-.36187-4.21994a.667.667,0,0,0-.94816-.1259,1.85643,1.85643,0,0,0-.88077,1.23845,10.60547,10.60547,0,0,0,.3992,4.60531l-.20638.15728a10.91282,10.91282,0,0,1-.40506-4.9,2.1587,2.1587,0,0,1,1.01894-1.44126.82384.82384,0,0,1,1.17163.1933c.59844.802.56444,2.79387.49683,3.86014.52837-1.06971,1.73681-3.28133,2.7021-3.30261.31393-.0043.57471.20848.77873.63954a3.33224,3.33224,0,0,1,.28708,1.82628A6.22582,6.22582,0,0,1,121.43225,355.93041Z"/><path class="e360a1dc-cc00-4f53-b5d0-b0cbf885b8c0" d="M74.56735,348.935a1.44924,1.44924,0,0,1,.19739-.89345,1.96935,1.96935,0,0,1,1.608-.70682,3.3871,3.3871,0,0,1-1.76916-1.81564,1.41527,1.41527,0,0,1,.10659-.94315c.82965-1.75557,3.61337,1.06447,3.73136,1.18529l-.12573.30079c-.75446-.77153-2.839-2.50351-3.42072-1.27245a.90011.90011,0,0,0-.07539.60734c.21691.94,1.82765,1.7472,2.42976,1.97895l-.03881.35314c-.01729-.002-1.76017-.25881-2.28305.56592a.9665.9665,0,0,0-.13173.60213Z"/><path class="e360a1dc-cc00-4f53-b5d0-b0cbf885b8c0" d="M146.21432,349.36174l-.2286-.03826a.96451.96451,0,0,0-.13179-.60213c-.52288-.8247-2.26521-.56734-2.28285-.56564l-.03877-.35342c.60224-.23144,2.213-1.03976,2.42966-1.979a.9008.9008,0,0,0-.07533-.60706c-.582-1.23271-2.66645.50123-3.42075,1.27279l-.12567-.30079c.11816-.12107,2.90185-2.94031,3.73133-1.18589a1.41743,1.41743,0,0,1,.10659.94347,3.386,3.386,0,0,1-1.769,1.81535,1.97017,1.97017,0,0,1,1.60781.70708A1.4496,1.4496,0,0,1,146.21432,349.36174Z"/><path class="e360a1dc-cc00-4f53-b5d0-b0cbf885b8c0" d="M402.098,340.35425l-.22849-.03764a.96547.96547,0,0,0-.13193-.60244c-.52254-.8247-2.26559-.56791-2.28289-.56533l-.0386-.35342c.60248-.232,2.21285-1.04013,2.42955-1.97927a.89994.89994,0,0,0-.07515-.607c-.58225-1.2322-2.66686.50063-3.42092,1.27245l-.12551-.3008c.118-.12075,2.90168-2.94057,3.7311-1.18557a1.41551,1.41551,0,0,1,.10682.94315,3.38648,3.38648,0,0,1-1.76922,1.81564,1.96989,1.96989,0,0,1,1.60784.70682A1.45174,1.45174,0,0,1,402.098,340.35425Z"/><path class="e360a1dc-cc00-4f53-b5d0-b0cbf885b8c0" d="M376.25065,352.14585a3.335,3.335,0,0,0-.7234-2.20038c-.9289-.92446-2.43564-.07561-2.45106-.067l-.52379.30111.3747-.64762a6.25286,6.25286,0,0,0,.86125-3.24418,1.52786,1.52786,0,0,0-.80478-1.14738c-1.89988-1.043-3.45418,5.0101-3.52954,5.31033l-.00349.0138-.25585-.1576.00221-.00975a4.16786,4.16786,0,0,0-.03678-2.17456,1.33426,1.33426,0,0,0-1.23359-.84623,1.0692,1.0692,0,0,0-1.16487.61709,4.63173,4.63173,0,0,0-.01342,2.41175l-.25546.159a5.17391,5.17391,0,0,1,.04464-2.81978,1.30056,1.30056,0,0,1,1.40217-.79771,1.59192,1.59192,0,0,1,1.45252,1.045,3.12581,3.12581,0,0,1,.20843,1.01307c.62247-1.92235,1.90516-5.032,3.47383-4.17075a1.90935,1.90935,0,0,1,.9807,1.44842,5.85419,5.85419,0,0,1-.64716,3.09757,2.0932,2.0932,0,0,1,2.26692.3025,3.80666,3.80666,0,0,1,.84948,2.52707Z"/><path class="e360a1dc-cc00-4f53-b5d0-b0cbf885b8c0" d="M272.64284,360.43416c-.0965-.0906-2.36043-2.24209-2.36043-4.12905a1.92667,1.92667,0,0,1,.61863-1.45906,1.18076,1.18076,0,0,1,1.3948-.30367c1.14632.54146,1.975,2.81862,2.19521,3.48089,1.16745-1.08556,2.03625-1.349,2.5839-.78246.78263.80977.588,2.97368.57932,3.0654l-.22734-.05238c.002-.02039.182-2.03044-.479-2.71339-.48354-.49861-1.30585-.19955-2.44389.89027l-.10915.10414-.05479-.1806c-.00882-.02876-.892-2.89312-2.111-3.46766a1.02643,1.02643,0,0,0-1.20992.26742,1.51056,1.51056,0,0,0-.50707,1.1511c0,1.68567,2.22665,3.79981,2.24886,3.82108Z"/><path class="e360a1dc-cc00-4f53-b5d0-b0cbf885b8c0" d="M244.12351,351.83991a23.51366,23.51366,0,0,1-1.64254-3.27442c-1.00315-2.48306-1.24207-4.45422-.71018-5.859.19867-.52365.43871-.7626.7087-.71689.92005.16448,1.92781,3.91021,2.4494,6.14137-.17278-2.7873-.3696-8.29749.60575-10.16055a1.03889,1.03889,0,0,1,.77014-.65419c.29146-.0305.52965.1354.71.48482.87924,1.70319.08452,7.72005-.35234,10.53554.32569-.82587.78809-1.74635,1.26025-1.85189.224-.04972.40141.08082.5012.36776.28487.81842-.10841,2.90467-1.2599,4.97966l-.17347-.23576c1.13215-2.03966,1.44273-3.966,1.23177-4.57222-.05368-.15441-.13859-.2113-.26709-.18374-.60759.13575-1.31648,2.19783-1.53851,2.98085l-.21577-.12107c.0171-.096,1.697-9.61654.635-11.67341a.52216.52216,0,0,0-.51756-.35172c-.23509.02219-.43356.193-.606.5228-1.23491,2.35971-.444,11.43417-.43595,11.5256l-.22314.0794c-.40966-2.01782-1.67543-7.29074-2.59989-7.45584-.17608-.03075-.3349.14607-.48522.54293-1.16671,3.08062,2.28436,8.64227,2.31924,8.69834Z"/><path class="ec569326-28db-46f2-bea9-501d4884e8c6" d="M163.38934,334.84653s-4.63944-7.4006-3.043-11.61561c1.59624-4.21478,4.29026,9.054,4.29026,9.054s-1.397-15.68972,1.49658-15.96232c2.89366-.27261,0,15.96232,0,15.96232s1.07264-3.78541,2.12022-4.01947c1.04764-.23437.74844,3.21-1.12256,6.581Z"/><path class="e360a1dc-cc00-4f53-b5d0-b0cbf885b8c0" d="M163.72182,335.032c-.21872-.34853-5.33254-8.59567-3.477-13.49594.29409-.77472.64811-1.1301,1.04741-1.0591.80047.14292,1.74035,2.12017,2.794,5.87653.32091,1.1439.60507,2.28755.82766,3.23386-.25565-4.10746-.55212-12.289.893-15.05019a1.53588,1.53588,0,0,1,1.13787-.96647,1.07335,1.07335,0,0,1,1.04909.71631c1.29959,2.51669.12517,11.408-.52052,15.56837.48155-1.22039,1.16453-2.58054,1.86238-2.7364.33084-.07274.59309.11905.7407.54293.42107,1.20944-.1601,4.29236-1.86164,7.3583l-.25639-.34822c1.67267-3.01419,2.1318-5.86043,1.81974-6.75588-.079-.22717-.20368-.3149-.39445-.27115-.89763.20069-1.94561,3.24708-2.27352,4.40421l-.31883-.17887c.0064-.03624.64068-3.61229,1.06636-7.52824.5563-5.12027.512-8.48183-.12776-9.72119-.19611-.3796-.44715-.5521-.76473-.51961-.34756.03248-.64054.28526-.89565.77238-1.82486,3.4863-.65612,16.8963-.644,17.03116l-.33007.117c-.6052-2.98167-2.47566-10.77307-3.84159-11.0172-.26006-.04685-.49478.21622-.7168.80285-1.72342,4.55,3.37518,12.77015,3.427,12.8527Z"/><path class="ec569326-28db-46f2-bea9-501d4884e8c6" d="M261.40318,325.31382s-6.04181-9.63719-3.96292-15.12582,5.58689,11.79072,5.58689,11.79072-1.819-20.43214,1.94894-20.7867c3.76809-.3551,0,20.7867,0,20.7867s1.39682-4.92988,2.7611-5.23468.97445,4.18022-1.46171,8.56978Z"/><path class="e360a1dc-cc00-4f53-b5d0-b0cbf885b8c0" d="M261.83546,325.5559c-.28453-.454-6.94383-11.19374-4.527-17.5746.38192-1.00878.83955-1.4752,1.36394-1.37976,1.04226.18636,2.26615,2.76088,3.63794,7.65252.41814,1.48984.78811,2.97909,1.07813,4.211-.33286-5.34856-.719-16.00258,1.16268-19.59817a2.00132,2.00132,0,0,1,1.4819-1.25865,1.40053,1.40053,0,0,1,1.36633.93282c1.69215,3.277.16263,14.85552-.67783,20.27309.62691-1.58875,1.51644-3.35981,2.42474-3.56284.42952-.0966.7725.155.96475.7071.54825,1.57527-.20843,5.59016-2.42424,9.582l-.33356-.45316c2.17811-3.92488,2.7756-7.63149,2.36964-8.79784-.10329-.29647-.26635-.40918-.51392-.35342-1.16982.26168-2.53392,4.22855-2.96068,5.73535l-.415-.23321c.00828-.04657.83423-4.70415,1.38837-9.80312.72468-6.66786.66716-11.04539-.16613-12.65915-.25551-.49463-.57767-.71862-.996-.677-.45267.04262-.83405.37186-1.16631,1.00594-2.37627,4.54021-.85432,22.00277-.83867,22.17846l-.42972.15239c-.78846-3.88262-3.2239-14.02878-5.00259-14.34681-.3384-.05866-.64423.28125-.93351,1.045-2.24518,5.92833,4.3952,16.63031,4.46268,16.73759Z"/><path class="ec569326-28db-46f2-bea9-501d4884e8c6" d="M61.00374,336.75161s-4.63944-7.40028-3.04306-11.615c1.59643-4.215,4.29028,9.054,4.29028,9.054s-1.39662-15.69026,1.49681-15.96227c2.89341-.2726,0,15.96227,0,15.96227s1.07261-3.78538,2.12-4.01975c1.04761-.234.74838,3.21-1.12245,6.58079Z"/><path class="e360a1dc-cc00-4f53-b5d0-b0cbf885b8c0" d="M61.33605,336.93765c-.21855-.3485-5.33234-8.59593-3.47645-13.49594.29338-.77412.64475-1.13127,1.0473-1.05882.80038.14266,1.74029,2.11991,2.794,5.876.32088,1.14387.60484,2.28751.8278,3.23357-.25565-4.1072-.55232-12.28852.89283-15.04962a1.53467,1.53467,0,0,1,1.1377-.96648,1.07125,1.07125,0,0,1,1.04943.716c1.29939,2.51674.12483,11.40832-.52069,15.5684.48155-1.22011,1.1645-2.58027,1.86239-2.73638.33006-.07274.59291.11933.74066.54319.42087,1.2095-.16027,4.29236-1.86181,7.35829l-.25619-.34818c1.6727-3.01394,2.13177-5.86049,1.81991-6.75591-.07942-.22777-.20473-.31519-.39461-.27144-.89784.20069-1.94562,3.24708-2.2737,4.40393l-.31869-.17887c.00643-.03593.64051-3.612,1.066-7.52767.5565-5.12056.51255-8.48177-.12739-9.72117-.19611-.37988-.44644-.55272-.76479-.51963-.34767.03251-.64048.285-.89561.77238-1.82467,3.48635-.65593,16.896-.64418,17.0309l-.32973.117c-.6054-2.98168-2.47583-10.77305-3.84176-11.01689-.26191-.048-.4946.21622-.7168.80257-1.72416,4.5523,3.375,12.77043,3.42678,12.853Z"/><path class="e360a1dc-cc00-4f53-b5d0-b0cbf885b8c0" d="M185.26327,364.5908a34.86731,34.86731,0,0,1-2.43225-4.84909c-1.48561-3.677-1.83963-6.5957-1.05188-8.67592.29406-.77611.646-1.13409,1.04966-1.06135.80205.1432,1.74418,2.12446,2.7997,5.88891.32162,1.14617.60648,2.29238.82979,3.24076-.25622-4.1161-.55357-12.31522.89471-15.08213a1.53884,1.53884,0,0,1,1.14026-.96881,1.07624,1.07624,0,0,1,1.05165.71777c1.302,2.52218.12516,11.43244-.52163,15.60174.48246-1.223,1.16689-2.58573,1.86628-2.74215.33041-.07334.59416.11964.74212.54438.422,1.21175-.16044,4.30158-1.86568,7.37411l-.25694-.3491c1.67637-3.02081,2.13619-5.87252,1.82375-6.77058-.07922-.22769-.20453-.31513-.39532-.272-.90023.20129-1.95,3.25428-2.27847,4.414l-.31943-.1797c.00643-.03539.642-3.61976,1.0684-7.54408.55762-5.1312.5135-8.5-.12772-9.74216a.77258.77258,0,0,0-.76644-.52049c-.34845.03277-.642.28555-.89744.77409-1.82873,3.49383-.65741,16.932-.64569,17.0674l-.33043.1176c-.60689-2.988-2.48122-10.796-3.85007-11.04072-.2608-.0489-.49569.21622-.71828.804-1.728,4.56237,3.38251,12.79808,3.43417,12.88057Z"/><path class="f34a3531-fee5-4c81-848f-e98671d5aea0" d="M208.407,146.87986c2.50249-2.46483-3.01789-10.62913-3.01789-10.62913-.95578-.67132-18.81884,13.38573-37.08026,7.5963-6.50316-2.06153-15.49663-13.44592-16.145-15.13612-.08642-.22524-14.40123,4.95-14.40123,4.95,1.17448,3.06223,2.53182,12.74906,9.53209,19.19254C161.77626,166.18257,195.01775,164.88321,208.407,146.87986Z"/><path class="b056fb0e-3a02-4e92-89ff-eaef03219566" d="M209.05588,129.71571a18.20846,18.20846,0,1,0-17.9334,18.97931A18.46811,18.46811,0,0,0,209.05588,129.71571Z"/><path class="e360a1dc-cc00-4f53-b5d0-b0cbf885b8c0" d="M123.39507,330.68027s.12406,4.94266,3.46818,6.33629c3.344,1.39452,13.03433,2.65246,9.4136,5.82965-2.07753,1.82378-11.86893.64583-14.63333.64583-2.76482,0-5.36022,1.20429-7.41439-.64583-2.25992-2.03514,0-12.16594,0-12.16594a11.04342,11.04342,0,0,0,4.53111,1.18706A8.80131,8.80131,0,0,0,123.39507,330.68027Z"/><path class="fb45d1f3-dbc0-41e0-b4e2-74ae5f897930" d="M152.24811,181.52533s.66742,22.30454-6.45085,65.09318c-5.13887,30.89028-11.20546,62.01755-14.18161,76.94052a11.64188,11.64188,0,0,1-10.8752,9.45467l-2.859.11456a9.77177,9.77177,0,0,1-10.002-10.586l7.21985-100.95982,1.77968-33.22934Z"/><path class="e360a1dc-cc00-4f53-b5d0-b0cbf885b8c0" d="M91.721,330.68027s.12409,4.94266,3.46863,6.33629c3.34406,1.39452,13.03393,2.65246,9.41363,5.82965-2.07752,1.82378-11.86941.64583-14.63381.64583-2.76391,0-5.35977,1.20429-7.41393-.64583-2.26038-2.03514,0-12.16594,0-12.16594a11.04066,11.04066,0,0,0,4.53065,1.18706A8.80131,8.80131,0,0,0,91.721,330.68027Z"/><path class="fb45d1f3-dbc0-41e0-b4e2-74ae5f897930" d="M120.57446,181.52533s.66745,22.30454-6.45081,65.09318c-5.13933,30.89028-11.205,62.01755-14.18162,76.94052a11.64186,11.64186,0,0,1-10.87517,9.45467l-2.859.11456a9.7723,9.7723,0,0,1-10.00239-10.586l7.22024-100.95982,1.77969-33.22934Z"/><path class="e360a1dc-cc00-4f53-b5d0-b0cbf885b8c0" d="M81.70826,205.97c.06875,2.69092,16.34172,3.75953,36.468,3.13185,20.12583-.62768,36.209-3.41105,36.13984-6.102s-16.26343-4.27134-36.38926-3.64321C97.8001,199.98435,81.6391,203.27868,81.70826,205.97Z"/><path class="e8b96500-5f36-4841-bc59-56b931241228" d="M86.63489,129.78341s3.55892-14.10515,29.817-14.24821c37.86679-.20664,34.36022,34.5871,37.8642,87.46468,0,0-37.29879-5.27506-72.62684,2.30788C81.68923,205.30776,78.41216,151.33573,86.63489,129.78341Z"/><path class="e8b96500-5f36-4841-bc59-56b931241228" d="M76.94288,127.76036l17.14962,9.4893s37.55122,3.40974,47.51991,1.76754c9.96871-1.64263,12.70366-8.96232,12.70366-8.96232a54.94516,54.94516,0,0,0-28.66323-13.91837c-1.69537-.27753-3.45429-.48158-5.27719-.60043a51.87893,51.87893,0,0,0-9.12231.18155C88.38172,118.29528,76.94288,127.76036,76.94288,127.76036Z"/><path class="bcaef300-0be0-4481-a8ed-6dc32ab8150f" d="M112.842,112.307l1.9824-6.39722.57661-1.86221,3.39208-10.95087.44656,10.89292.26714,6.53812.08469,2.06933c.05709,1.40487.91342,1.70012,1.95566,2.92083.42189.495,3.12447,3.49368.05746,4.84883-3.82,1.68758-10.96116-.868-13.67629-4.21552C107.94945,116.14646,112.20133,114.37415,112.842,112.307Z"/><path class="fb45d1f3-dbc0-41e0-b4e2-74ae5f897930" d="M151.14708,205.17634s-21.80737-6.4158-66.971,2.39092l-.34751,6.49667,66.20579,2.34031Z"/><path class="e360a1dc-cc00-4f53-b5d0-b0cbf885b8c0" d="M76.58582,128.15589c-1.45417,2.05718.68776,6.1214,4.784,9.07733,4.09533,2.9559,8.5949,3.68471,10.049,1.6275,1.45374-2.05719-.68818-6.121-4.784-9.07731C82.53867,126.82748,78.03954,126.0987,76.58582,128.15589Z"/><path class="bcaef300-0be0-4481-a8ed-6dc32ab8150f" d="M61.47482,215.828h0A1.569,1.569,0,0,0,60.219,217.65l2.42158,13.13686a1.56938,1.56938,0,0,0,1.82247,1.25575h0a1.57012,1.57012,0,0,0,1.25536-1.82293l-2.42159-13.13679A1.56894,1.56894,0,0,0,61.47482,215.828Z"/><path class="bcaef300-0be0-4481-a8ed-6dc32ab8150f" d="M65.4137,215.10181h0a1.56867,1.56867,0,0,0-1.25493,1.82247l2.70779,14.69215a1.56972,1.56972,0,0,0,1.82247,1.25493h0a1.56953,1.56953,0,0,0,1.2553-1.8225l-2.70816-14.69212A1.56867,1.56867,0,0,0,65.4137,215.10181Z"/><path class="bcaef300-0be0-4481-a8ed-6dc32ab8150f" d="M69.85191,205.08042h.55629a1.89212,1.89212,0,0,1,1.89212,1.89212v10.13583a1.89256,1.89256,0,0,1-1.89256,1.89256h-.55749a1.8908,1.8908,0,0,1-1.8908-1.8908V206.97286a1.89244,1.89244,0,0,1,1.89244-1.89244Z" transform="translate(-135.85329 125.72509) rotate(-48.96327)"/><path class="bcaef300-0be0-4481-a8ed-6dc32ab8150f" d="M69.35346,214.37559h0a1.56976,1.56976,0,0,0-1.25538,1.82247L70.269,227.97493a1.56913,1.56913,0,0,0,1.82207,1.25536h0a1.56913,1.56913,0,0,0,1.25533-1.8225L71.1759,215.63046A1.56983,1.56983,0,0,0,69.35346,214.37559Z"/><path class="bcaef300-0be0-4481-a8ed-6dc32ab8150f" d="M57.42269,208.8386s-3.0562,8.40425.30341,13.79733c1.16325,1.86657,12.70154-.58964,13.36247-2.96327.661-2.37317-1.58039-10.18433-1.58039-10.18433Z"/><path class="bcaef300-0be0-4481-a8ed-6dc32ab8150f" d="M57.56012,216.5374h0a1.56571,1.56571,0,0,0-1.25274,1.81858l2.16613,11.75263a1.56572,1.56572,0,0,0,1.81861,1.25231h0a1.566,1.566,0,0,0,1.25273-1.8186l-2.16613-11.75261A1.56573,1.56573,0,0,0,57.56012,216.5374Z"/><path class="bcaef300-0be0-4481-a8ed-6dc32ab8150f" d="M71.87663,210.61265c1.57908-17.38131,5.20067-42.2306,13.49-61.91081a59.50374,59.50374,0,0,1,4.21943-8.76217c1.20514-2.00359-.95317-6.40715-4.35864-8.50674-3.19537-1.97071-8.17171-1.64778-8.95849-.6726-1.33873,1.65907-2.76735,4.83757-4.99058,9.8844-7.72432,17.53606-12.35224,40.18852-14.227,69.39384Z"/><path class="e360a1dc-cc00-4f53-b5d0-b0cbf885b8c0" d="M127.52241,88.98533a14.3888,14.3888,0,0,1,0,5.974c-.69162,3.32289-4.07155-4.8458-4.07155-4.8458Z"/><path class="bcaef300-0be0-4481-a8ed-6dc32ab8150f" d="M127.92442,95.91772c-.84376-6.42578-5.84694-11.06753-11.176-10.36765-5.32864.69939-8.96454,6.47548-8.12115,12.90078.84379,6.42578,5.8474,11.06752,11.176,10.36813C125.132,108.11907,128.76827,102.343,127.92442,95.91772Z"/><path class="e360a1dc-cc00-4f53-b5d0-b0cbf885b8c0" d="M108.38437,95.09208l4.71047-.48891a3.42894,3.42894,0,0,0,2.54351-1.54148c.9648-1.51035,2.12637-2.28586,6.5204-2.12116,5.56424.20877,9.23811-3.10849,9.839-6.01942.61383-2.97146-2.234-4.98541-5.02822-3.56887-2.79464,1.41659-1.59509-2.05761-4.28254-2.42679-5.02171-.68859-5.96236,3.18239-10.07417,3.05617-5.39086-.16513-15.04745,3.93157-10.46792,13.42167Z"/><path class="a0a97a39-8396-46f5-8575-6c571619b988" d="M118.78789,96.69278a.19745.19745,0,0,0-.08861-.36355,2.13624,2.13624,0,0,0-2.27378,1.29427.19841.19841,0,0,0,.08864.26453.21693.21693,0,0,0,.265-.08862,3.37808,3.37808,0,0,1,1.88775-1.07679A.19733.19733,0,0,0,118.78789,96.69278Z"/><path class="a0a97a39-8396-46f5-8575-6c571619b988" d="M117.93241,99.22332c.12366.45435.49193.74914.82092.65922a.764.764,0,0,0,.37263-.98514c-.12409-.45344-.49154-.74914-.82089-.65922A.76428.76428,0,0,0,117.93241,99.22332Z"/><path class="a0a97a39-8396-46f5-8575-6c571619b988" d="M126.08551,96.10709a.14485.14485,0,0,0,.10679-.09814.23811.23811,0,0,0-.07649-.26715,1.38418,1.38418,0,0,0-2.01139.22866.2345.2345,0,0,0-.0039.27579.14574.14574,0,0,0,.21788.02936,2.0701,2.0701,0,0,1,1.67034-.1919A.12978.12978,0,0,0,126.08551,96.10709Z"/><path class="a0a97a39-8396-46f5-8575-6c571619b988" d="M124.28682,98.12883c-.05834.46681.16906.88008.50795.92244s.661-.30171.7193-.769c.05835-.46687-.169-.88009-.50791-.92247C124.6677,97.31744,124.3452,97.66153,124.28682,98.12883Z"/><path class="e360a1dc-cc00-4f53-b5d0-b0cbf885b8c0" d="M102.14492,95.40329s3.2524,7.01972,7.86564,7.535c0,0-3.73011-5.34981,4.13167-8.61C114.14223,94.32826,106.92409,93.19223,102.14492,95.40329Z"/><path class="bcaef300-0be0-4481-a8ed-6dc32ab8150f" d="M108.64808,99.27737a1.90416,1.90416,0,1,0-.77077-2.73283A2.01425,2.01425,0,0,0,108.64808,99.27737Z"/><path class="e360a1dc-cc00-4f53-b5d0-b0cbf885b8c0" d="M114.14223,94.32826s-.62939,5.891.5693,7.00455c1.19914,1.11358,9.11622,1.59254,12.81088.16471h0a7.695,7.695,0,0,1-6.33668,7.75024,11.18875,11.18875,0,0,1-3.77984-.01252h0c-2.58626-.45259-5.10078-1.5225-6.16725-3.92159-.32464-.73011.619-5.22145.619-5.22145s.35487-2.636-1.178-4.00761A7.50281,7.50281,0,0,1,114.14223,94.32826Z"/><path class="bd0aa0bf-51e6-4794-87a5-14bc312b0dd0" d="M125.57242,103.62261a19.96418,19.96418,0,0,1-6.34793.49967,3.0624,3.0624,0,0,0,3.83989,2.45791C125.01523,106.22443,125.57242,103.62261,125.57242,103.62261Z"/><path class="e360a1dc-cc00-4f53-b5d0-b0cbf885b8c0" d="M126.37171,80.88884c.0264,0,.05317-.00045.08082-.00128l-.00816-.26541a1.22088,1.22088,0,0,1-1.40064-1.03014l-.2641.02424A1.47855,1.47855,0,0,0,126.37171,80.88884Z"/><path class="bd0aa0bf-51e6-4794-87a5-14bc312b0dd0" d="M123.73567,89.38088a17.74926,17.74926,0,0,0,3.05492-1.27131c2.03127-1.095,3.16035-2.36239,3.265-3.66574a2.1164,2.1164,0,0,0-.48636-1.86047c-.6376-.54854-1.74074-.29181-2.71379-.06441-.14436.03329-.28572.067-.421.096l.02811.12968c.13617-.02938.27792-.06266.42232-.09637.94366-.22007,2.01181-.46906,2.59756.03629a2.00035,2.00035,0,0,1,.44089,1.749c-.24509,3.04753-6.16464,4.80255-6.22474,4.81987Z"/><path class="bd0aa0bf-51e6-4794-87a5-14bc312b0dd0" d="M112.07767,83.1998a10.45541,10.45541,0,0,0,4.79394-1.0915,7.20361,7.20361,0,0,0,2.13891-1.57607l-.102-.08519c-.02768.03242-2.81245,3.28141-8.59064,2.49856l-.01727.13182A13.22,13.22,0,0,0,112.07767,83.1998Z"/><path class="bfcda818-8ac1-4a1d-8dee-6d51d487b269" d="M67.4873,171.4473a2.17011,2.17011,0,0,1-1.58216-1.33574,4.29606,4.29606,0,0,1-.28182-2.48c.31081-1.88344,1.65566-3.23557,2.99007-3.01553,1.33873.22089,2.17478,1.93316,1.86392,3.8161a4.29584,4.29584,0,0,1-1.06249,2.25819,2.272,2.272,0,0,1-1.63011.7816A1.81713,1.81713,0,0,1,67.4873,171.4473Zm-1.2229-3.7098a3.64413,3.64413,0,0,0,.23084,2.10045,1.37963,1.37963,0,0,0,2.44884.40375,3.64157,3.64157,0,0,0,.89263-1.91543c.24772-1.50347-.36093-2.90917-1.3288-3.0687a1.09511,1.09511,0,0,0-.18328-.01513C67.41379,165.24244,66.497,166.32828,66.2644,167.7375Z"/><path class="f34a3531-fee5-4c81-848f-e98671d5aea0" d="M202.78918,139.08192a1.86641,1.86641,0,0,1,.89266-1.07162,1.97327,1.97327,0,0,1,2.63949.75259l2.349,4.10319a1.86919,1.86919,0,0,1-.73142,2.58108,1.97283,1.97283,0,0,1-2.63907-.75216l-2.34939-4.104A1.87027,1.87027,0,0,1,202.78918,139.08192Z"/><path class="f34a3531-fee5-4c81-848f-e98671d5aea0" d="M199.05324,139.49334a1.869,1.869,0,0,1,.89305-1.07161,1.97264,1.97264,0,0,1,2.639.75261l2.97416,4.77473a1.86872,1.86872,0,0,1-.73142,2.58064c-.93069.50447-2.73766-.5034-3.26418-1.42325l-2.349-4.104A1.87213,1.87213,0,0,1,199.05324,139.49334Z"/><path class="f34a3531-fee5-4c81-848f-e98671d5aea0" d="M196.27882,142.10578a1.86874,1.86874,0,0,1,.89263-1.07116,1.97241,1.97241,0,0,1,2.63947.7517l2.349,4.10356a1.86894,1.86894,0,0,1-.7314,2.58072,1.97211,1.97211,0,0,1-2.639-.75262l-2.349-4.10267A1.87314,1.87314,0,0,1,196.27882,142.10578Z"/><path class="f34a3531-fee5-4c81-848f-e98671d5aea0" d="M194.80215,144.34622a1.23946,1.23946,0,0,1,.5412-.683,1.31429,1.31429,0,0,1,1.781.41672l2.45487,3.843a1.24275,1.24275,0,0,1-.4003,1.7433,1.31492,1.31492,0,0,1-1.78094-.41672l-2.4553-3.8429A1.24718,1.24718,0,0,1,194.80215,144.34622Z"/><path class="e360a1dc-cc00-4f53-b5d0-b0cbf885b8c0" d="M147.56051,137.73639l.41714-.11544c-1.10533-4.00072-4.81032-8.996-4.84752-9.04618l-.34623.25846C142.82062,128.88253,146.47723,133.8148,147.56051,137.73639Z"/><path class="e360a1dc-cc00-4f53-b5d0-b0cbf885b8c0" d="M112.92277,255.33272c.02941-.18243,2.95678-18.34011,4.96424-24.81647,1.98718-6.41232,10.54837-11.80711,10.63443-11.86073l-.22829-.36656c-.08773.05447-8.78379,5.53266-10.81893,12.09937-2.01653,6.50571-4.94871,24.69281-4.97764,24.87606Z"/><path class="e360a1dc-cc00-4f53-b5d0-b0cbf885b8c0" d="M305.57806,330.23935s-.12778,5.10767-3.58352,6.5483c-3.45574,1.44111-13.46965,2.741-9.72754,6.02477,2.14685,1.88425,12.26528.66648,15.12159.66648,2.85713,0,5.53872,1.245,7.66236-.66694,2.33539-2.104-.00088-12.57261-.00088-12.57261a11.41228,11.41228,0,0,1-4.682,1.22622A9.09031,9.09031,0,0,1,305.57806,330.23935Z"/><path class="e360a1dc-cc00-4f53-b5d0-b0cbf885b8c0" d="M345.26775,330.23844s-.12824,5.10773-3.584,6.54833c-3.45574,1.44066-13.46963,2.741-9.72754,6.02479,2.14685,1.88372,12.26533.66645,15.12159.66645,2.85713-.00042,5.5396,1.245,7.66241-.66736,2.33537-2.10355,0-12.57264,0-12.57264a11.41486,11.41486,0,0,1-4.68245,1.22665A9.093,9.093,0,0,1,345.26775,330.23844Z"/><path class="bd1fd549-0846-4023-be59-e8b822562f2d" d="M279.89178,190.22538s-.63877,21.37907,6.1847,62.39193c4.92635,29.60787,10.7416,59.44319,13.59518,73.74682a11.15813,11.15813,0,0,0,10.42392,9.062l2.74059.10986a9.36623,9.36623,0,0,0,9.58641-10.147l-6.92269-96.76981-1.70643-31.84993Z"/><path class="e360a1dc-cc00-4f53-b5d0-b0cbf885b8c0" d="M342.31142,209.03946c-.31494,2.60211-15.0282,2.28624-33.04222.00581-18.01445-2.28-32.03711-6.18291-31.72217-8.78453.31448-2.60254,14.84682-2.91836,32.86127-.63838S342.62544,206.43735,342.31142,209.03946Z"/><path class="bd1fd549-0846-4023-be59-e8b822562f2d" d="M300.574,205.49571l38.46032,123.546a12.39709,12.39709,0,0,0,11.56936,8.80552l2.31172.03937a8.77484,8.77484,0,0,0,8.6353-10.445L340.51162,211.35389a3.82016,3.82016,0,0,0-2.65479-2.8608C330.64336,206.41235,299.866,200.38579,300.574,205.49571Z"/><path class="bcaef300-0be0-4481-a8ed-6dc32ab8150f" d="M344.76339,200.31339l-8.72024-10.12906c.15594-.09655,17.2725-10.90333,15.63351-26.29112-.85457-8.02159-5.66341-14.47428-14.292-19.17994a49.58511,49.58511,0,0,0-13.67294-4.92946l2.05045-13.14129a61.85911,61.85911,0,0,1,17.73925,6.32764c12.47706,6.803,19.77494,16.99776,21.10477,29.48151,1.07392,10.08176-2.45146,20.10728-10.19478,28.99276C348.85571,197.81853,349.10317,198.20139,344.76339,200.31339Z"/><path class="f34a3531-fee5-4c81-848f-e98671d5aea0" d="M276.63884,157.37079c-7.01648,0-14.45059-2.66776-22.12507-7.94381a64.90345,64.90345,0,0,1-9.81822-8.27351l9.41081-9.18526-4.70563,4.59213,4.69624-4.60243c3.32,3.53124,13.97757,12.58428,23.325,12.08441,4.24417-.22826,7.90541-2.4417,11.19454-6.76853l10.26626,8.16988c-5.59772,7.36446-12.80266,11.476-20.83543,11.89048C277.58008,157.3587,277.10966,157.37079,276.63884,157.37079Z"/><path class="fc2cdff9-bced-4891-abd7-b96a7d7caabb" d="M336.29647,137.909s-5.11709-14.397-23.34637-13.74212c-18.22888.65485-31.99333,24.60924-35.40307,76.09386,0,0,29.85-6.54569,64.81756,8.72419C342.36459,208.98493,344.30283,158.89318,336.29647,137.909Z"/><path class="fc2cdff9-bced-4891-abd7-b96a7d7caabb" d="M350.61218,134.86511l-14.42825,10.44321s-33.195,3.32124-42.0077,1.72248a14.503,14.503,0,0,1-11.23029-8.726A47.37925,47.37925,0,0,1,308.28423,124.752a44.02852,44.02852,0,0,1,4.66541-.58429,45.269,45.269,0,0,1,8.06355.17694C336.774,126.04528,350.61218,134.86511,350.61218,134.86511Z"/><path class="e360a1dc-cc00-4f53-b5d0-b0cbf885b8c0" d="M350.61124,134.86511c.78266,1.13107-1.81319,4.38581-5.7969,7.26974-3.9842,2.884-7.84781,4.305-8.62956,3.17435-.78259-1.13153,1.81272-4.38626,5.797-7.2702C345.966,135.15459,349.829,133.734,350.61124,134.86511Z"/><path class="f34a3531-fee5-4c81-848f-e98671d5aea0" d="M261.934,145.88322s-3.91851-11.17266-7.82766-13.915c-3.90915-2.74326-6.21906.65888-6.21906.65888l-4.04362-.91391s-3.96633,17.28226,8.54242,16.48174C253.3738,148.13191,261.934,145.88322,261.934,145.88322Z"/><path class="bfcda818-8ac1-4a1d-8dee-6d51d487b269" d="M360.43308,167.415a2.11551,2.11551,0,0,1-1.73146-1.0323,4.185,4.185,0,0,1-.66378-2.33767c0-1.85829,1.07435-3.37043,2.39524-3.37043s2.3957,1.51123,2.3957,3.37043c0,1.85879-1.07432,3.37-2.39524,3.37Zm0-6.10786c-.9551,0-1.7623,1.25351-1.7623,2.73789a3.5482,3.5482,0,0,0,.5544,1.9816,1.5067,1.5067,0,0,0,1.2079.75586h.00046c.955,0,1.76225-1.25351,1.76225-2.73746C362.19579,162.56068,361.38855,161.30717,360.43308,161.30717Z"/><path class="bcaef300-0be0-4481-a8ed-6dc32ab8150f" d="M320.98193,124.34067a5.42207,5.42207,0,0,1-4.41887-3.23286l-2.43012-5.64279-.70488-1.63813-4.14677-9.63017.71916,9.98035.43285,5.9904.12289,1.70689a2.725,2.725,0,0,1-2.24789,2.87366l-.02407.004c-.738,1.20032-1.7565,3.63937,1.28782,4.60781,3.57772,1.1387,9.36438-1.67782,11.44114-5.01516Z"/><path class="bcaef300-0be0-4481-a8ed-6dc32ab8150f" d="M343.07484,185.71494s-5.40164-4.94413-9.66589-4.50773c-4.26431.43646-9.38134,4.21786-6.681,4.50864a28.29472,28.29472,0,0,0,6.25436-.29078s-7.53372,1.59919-6.39645,3.19932c1.13739,1.59965,7.6763.14517,7.6763.14517s-8.81312,2.61818-7.24962,3.78142c1.56391,1.16362,8.24443-.87289,8.24443-.87289s-8.1024,2.76335-6.25439,4.0731c1.84805,1.30838,6.681-2.32735,7.81831-.7277,1.13693,1.59965,3.269,7.85313,8.10155,5.235Z"/><path class="e9505134-9253-4b9c-891c-bfce2422f5d5" d="M317.76335,260.7157l-8.27124-25.14392a23.83936,23.83936,0,0,0-10.77151-13.287l.3212-.56148a24.48831,24.48831,0,0,1,11.06541,13.64608l8.27084,25.14438Z"/><path class="bcaef300-0be0-4481-a8ed-6dc32ab8150f" d="M338.8445,145.50218s-.79916-2.39926,2.82544-5.072a20.19967,20.19967,0,0,1,8.324-3.27257l.951,4.58143-5.11751,2.23578Z"/><path class="e360a1dc-cc00-4f53-b5d0-b0cbf885b8c0" d="M320.56157,102.55375a11.15742,11.15742,0,0,0,.5548,4.99508c1.37855,4.9111-4.23433,6.96149-5.67052,5.55975-.17822-.1733.05717-8.52675.05717-8.52675l1.794-1.06635Z"/><path class="e360a1dc-cc00-4f53-b5d0-b0cbf885b8c0" d="M314.14324,115.29969c-.00176.055-.005.11032-.0103.16533-.238,3.21716-3.6791,4.71989-3.6791,4.71989l-.021-.01744-.43239-5.9904c1.05242-.38549,2.55071-.78172,3.42761-.35018A1.40524,1.40524,0,0,1,314.14324,115.29969Z"/><path class="bcaef300-0be0-4481-a8ed-6dc32ab8150f" d="M299.45186,105.79329c0-6.38888,4.19771-11.568,9.37639-11.56847,5.17828,0,9.37736,5.17916,9.37736,11.56847,0,6.38883-4.19817,11.568-9.37642,11.568C303.65006,117.36168,299.45231,112.18212,299.45186,105.79329Z"/><path class="e360a1dc-cc00-4f53-b5d0-b0cbf885b8c0" d="M305.11435,96.91358c.26043.35556-1.21507,6.30665,9.81021,7.72719,11.02522,1.421,4.40137-11.95534-3.73318-12.25728-11.74624-.43643-13.4558,7.46139-12.3274,10.30339C299.99237,105.52922,305.11435,96.91358,305.11435,96.91358Z"/><path class="e360a1dc-cc00-4f53-b5d0-b0cbf885b8c0" d="M322.10717,89.59736s-4.95219,3.31322-1.14314,6.43127c3.81,3.11851,14.28622,4.4823,11.42911,9.7441-2.85716,5.26177-5.33282,13.05777-.19036,14.032,5.14346.9747,8.38121.5843,10.47674,4.677,2.095,4.09272,11.42817,1.559,10.66648-3.31328-.76206-4.87225,7.23808-9.15977,3.80914-13.6425-3.42855-4.48224-11.8097-8.37984-13.90521-14.22633C341.15489,87.45313,326.107,87.06361,322.10717,89.59736Z"/><path class="e360a1dc-cc00-4f53-b5d0-b0cbf885b8c0" d="M313.70906,102.74628s4.50551,4.74987,2.9429,9.60559c0,0,2.61323-2.85538,2.67135-3.92125a41.25048,41.25048,0,0,0-.637-4.91514Z"/><path class="bcaef300-0be0-4481-a8ed-6dc32ab8150f" d="M316.95125,107.53768a2.30423,2.30423,0,0,1-3.31678.23229,2.5779,2.5779,0,0,1,.5284-3.44057,2.30474,2.30474,0,0,1,3.31732-.23184A2.57713,2.57713,0,0,1,316.95125,107.53768Z"/><path class="bd0aa0bf-51e6-4794-87a5-14bc312b0dd0" d="M351.06067,126.06943a.22612.22612,0,0,1-.08087-.01519,3.73645,3.73645,0,0,1-2.41226-1.97941c-.44889-1.24673.31764-2.61232,1.12934-4.05878.71117-1.26642,1.44643-2.5762,1.26952-3.75148-.2086-1.38749-2.03076-1.71132-3.96007-2.05488-1.62647-.28853-3.30745-.58782-3.97435-1.62644a2.28626,2.28626,0,0,1-.18812-1.86409c.21221-.8202.47309-1.55544.7255-2.26615,1.08323-3.05373,1.93913-5.466-2.84871-10.9891-6.13952-7.08438-11.22489-7.42565-15.80724-6.74-.53514.08042-1.89225.7795-1.88511,1.40134.004.32077.44226,1.1208,4.41525,1.61976a13.0991,13.0991,0,0,1,8.328,7.32424c1.42856,3.2016-.60128,6.6283-2.23219,9.38095-1.09446,1.8471-2.03969,3.44234-1.74441,4.51265a1.54923,1.54923,0,0,0,.83178.94253,16.2322,16.2322,0,0,0,3.56384,1.26775c3.10152.839,6.30841,1.706,6.71184,7.293a.22336.22336,0,0,1-.20687.2381.22858.22858,0,0,1-.23895-.20595c-.37973-5.27028-3.29539-6.05916-6.38214-6.89362a16.68418,16.68418,0,0,1-3.66082-1.30619,1.99772,1.99772,0,0,1-1.04886-1.21638c-.3458-1.25345.64415-2.92458,1.79044-4.85928,1.66081-2.80357,3.54327-5.98056,2.20852-8.97128a12.6484,12.6484,0,0,0-7.99658-7.06694c-3.20157-.40116-4.77351-1.07438-4.78469-2.054-.01254-.98855,1.67788-1.76046,2.26482-1.84844,4.70609-.70491,9.92945-.35829,16.21107,6.88915,4.9585,5.72053,4.06421,8.24043,2.93129,11.43127-.24834.70087-.50655,1.42678-.71338,2.22821a1.84286,1.84286,0,0,0,.13091,1.51075c.56194.87465,2.14554,1.1565,3.67731,1.429,1.99947.35558,4.06726.72368,4.32325,2.42742.19967,1.32673-.57357,2.70435-1.32138,4.03691-.76029,1.3544-1.47815,2.63422-1.0989,3.68889a3.34562,3.34562,0,0,0,2.15359,1.71406.22325.22325,0,0,1-.08039.43153Z"/><path class="bd0aa0bf-51e6-4794-87a5-14bc312b0dd0" d="M315.01118,101.13366h-.00489A8.083,8.083,0,0,1,308.571,97.564a.22328.22328,0,0,1,.3797-.235,7.7741,7.7741,0,0,0,6.06545,3.3584.22316.22316,0,0,1-.00495.44627Z"/><path class="a577d832-c04c-4372-9437-27b781cd7150" d="M333.03815,185.57291l-.11078-.29619c.08756-.03348,2.16566-.79691,3.3155.01878l-.18314.25818C335.04748,184.83585,333.0578,185.56531,333.03815,185.57291Z"/><path class="a577d832-c04c-4372-9437-27b781cd7150" d="M334.32021,188.91654l-.11654-.29439a5.565,5.565,0,0,1,3.906.0027l-.12821.289A5.32792,5.32792,0,0,0,334.32021,188.91654Z"/><path class="a577d832-c04c-4372-9437-27b781cd7150" d="M335.31238,191.82639l-.1108-.29619c.10406-.03928,2.55878-.94657,3.71079.02728l-.20368.24163C337.69824,190.94679,335.336,191.81746,335.31238,191.82639Z"/><path class="bd1fd549-0846-4023-be59-e8b822562f2d" d="M280.21607,202.59121a109.32945,109.32945,0,0,1,20.94581-.235,213.24179,213.24179,0,0,1,36.01146,5.947l-6.18111,1.03859-38.70606,1.5336-7.79151-6.39062Z"/><path class="e60a290a-f93a-43e1-ba16-b4ce00ac8a6b" d="M303.65094,113.2792a20.36585,20.36585,0,0,0,6.40581-1.05153,3.12156,3.12156,0,0,1-3.20245,3.36821C304.83651,115.71911,303.65094,113.2792,303.65094,113.2792Z"/><path class="bd0aa0bf-51e6-4794-87a5-14bc312b0dd0" d="M303.65094,113.2792a4.19269,4.19269,0,0,0,2.58376.63479,7.49523,7.49523,0,0,0,3.82205-1.68632A30.59211,30.59211,0,0,1,303.65094,113.2792Z"/><path class="a0a97a39-8396-46f5-8575-6c571619b988" d="M307.92193,105.90492a.21325.21325,0,0,1-.02415-.4038,2.30868,2.30868,0,0,1,2.76116.61556.21484.21484,0,0,1-.00762.30153.23411.23411,0,0,1-.30154-.00762,3.65674,3.65674,0,0,0-2.293-.51366A.21333.21333,0,0,1,307.92193,105.90492Z"/><path class="a0a97a39-8396-46f5-8575-6c571619b988" d="M309.60917,108.24839c.01607.50877-.26985.93092-.6388.94256-.36941.0116-.68173-.39132-.69777-.89969-.0161-.50883.26979-.93049.6388-.94255C309.28035,107.33665,309.59307,107.74005,309.60917,108.24839Z"/><path class="a0a97a39-8396-46f5-8575-6c571619b988" d="M300.30862,107.01725a.21378.21378,0,0,1-.176-.36452,2.30979,2.30979,0,0,1,2.78747-.48291.21488.21488,0,0,1,.10807.28193.235.235,0,0,1-.28225.10807,3.64491,3.64491,0,0,0-2.31488.39888A.22137.22137,0,0,1,300.30862,107.01725Z"/><path class="a0a97a39-8396-46f5-8575-6c571619b988" d="M302.762,108.541a.826.826,0,0,1-.2323,1.115c-.33638.15148-.779-.10227-.98767-.56641a.82638.82638,0,0,1,.2323-1.11494C302.11069,107.82357,302.55338,108.07686,302.762,108.541Z"/><path class="b056fb0e-3a02-4e92-89ff-eaef03219566" d="M278.19305,127.83612a18.20846,18.20846,0,1,0-17.9334,18.97933A18.46813,18.46813,0,0,0,278.19305,127.83612Z"/><path class="f34a3531-fee5-4c81-848f-e98671d5aea0" d="M242.05193,135.33192a1.83372,1.83372,0,0,1-1.26955-.51235,1.93647,1.93647,0,0,1-.09066-2.69189l3.12695-3.42849a1.83362,1.83362,0,0,1,2.63107-.09288,1.93645,1.93645,0,0,1,.09118,2.69181l-3.12744,3.42854A1.838,1.838,0,0,1,242.05193,135.33192Z"/><path class="f34a3531-fee5-4c81-848f-e98671d5aea0" d="M243.23751,138.49372a1.83213,1.83213,0,0,1-1.26958-.51235,1.93652,1.93652,0,0,1-.09112-2.69189l3.12741-3.42846a1.83487,1.83487,0,0,1,2.6311-.09339,1.93752,1.93752,0,0,1,.09117,2.69232l-3.127,3.42851A1.83888,1.83888,0,0,1,243.23751,138.49372Z"/><path class="f34a3531-fee5-4c81-848f-e98671d5aea0" d="M244.49141,141.40761a1.83366,1.83366,0,0,1-1.26955-.5119,1.93574,1.93574,0,0,1-.09114-2.69189l3.12695-3.42894a1.83455,1.83455,0,0,1,2.63116-.09294,1.93618,1.93618,0,0,1,.09066,2.69192l-3.1265,3.42894A1.83908,1.83908,0,0,1,244.49141,141.40761Z"/><path class="f34a3531-fee5-4c81-848f-e98671d5aea0" d="M246.4605,143.31733a1.22206,1.22206,0,0,1-.801-.29975,1.29121,1.29121,0,0,1-.14605-1.78955l2.85134-3.44949a1.22019,1.22019,0,0,1,1.74976-.15054,1.29029,1.29029,0,0,1,.14562,1.78911l-2.85091,3.44988A1.22666,1.22666,0,0,1,246.4605,143.31733Z"/><rect class="e360a1dc-cc00-4f53-b5d0-b0cbf885b8c0" x="286.18543" y="141.26156" width="9.11231" height="0.4467" transform="translate(28.71625 330.93509) rotate(-61.81693)"/><path class="e360a1dc-cc00-4f53-b5d0-b0cbf885b8c0" d="M190.38653,93.58122c2.80744-11.26483,17.89116-19.89453,36.02353-19.89453,17.95,0,32.91247,8.457,35.93525,19.55544a.45587.45587,0,0,0,.43887.33909h0a.4562.4562,0,0,0,.43985-.57548c-1.33475-4.93728-4.92618-9.47445-10.4411-13.07837-7.05107-4.60772-16.41711-7.14531-26.37287-7.14531s-19.32167,2.53759-26.37271,7.14531c-5.72855,3.74351-9.38168,8.494-10.586,13.65385Z"/><polygon class="e360a1dc-cc00-4f53-b5d0-b0cbf885b8c0" points="257.204 88.143 263.749 94.814 262.362 85.436 260.281 87.615 257.204 88.143"/><path class="e360a1dc-cc00-4f53-b5d0-b0cbf885b8c0" d="M256.85141,98.44237c-2.34523-9.41016-14.94552-16.619-30.09257-16.619-14.99471,0-27.49365,7.06461-30.01878,16.33577a.3808.3808,0,0,1-.36662.28325h0a.38108.38108,0,0,1-.36742-.48072c1.115-4.12438,4.11514-7.91455,8.72209-10.92512,5.8901-3.84908,13.71412-5.9689,22.03073-5.9689s16.14055,2.11982,22.03068,5.9689c4.7854,3.12718,7.83708,7.09553,8.84316,11.40584Z"/><polygon class="e360a1dc-cc00-4f53-b5d0-b0cbf885b8c0" points="201.035 93.9 195.568 99.472 196.726 91.638 198.464 93.458 201.035 93.9"/><path class="bd0aa0bf-51e6-4794-87a5-14bc312b0dd0" d="M190.66547,124.59321c-1.2882,1.28827-2.53444,2.53464-3.78075,3.78093-.66484.66484-.891.66332-1.5651-.01045-.74446-.74413-1.49115-1.486-2.23236-2.23341-.44967-.4534-.45394-.7766-.00052-1.23129q3.47572-3.48558,6.95975-6.96288c.4522-.45149.778-.45509,1.23015-.004q3.4848,3.47649,6.96039,6.96218c.45362.45479.45383.78329.00742,1.23461q-1.19193,1.205-2.39659,2.39743c-.46155.4576-.79979.45256-1.26917-.016C193.28693,127.22083,191.99847,125.928,190.66547,124.59321Zm.01008-5.19122-6.08748,6.08707,1.60842,1.61334c1.228-1.23142,2.49481-2.503,3.76314-3.77315.558-.55882.84506-.56184,1.39484-.013q1.75817,1.75518,3.51359,3.51308c.11545.11535.23665.22495.3103.2947l1.62392-1.60469Z"/><path class="bd0aa0bf-51e6-4794-87a5-14bc312b0dd0" d="M190.68168,135.47953c1.30787-1.3125,2.57431-2.5849,3.84257-3.85547.5508-.55181.8441-.5503,1.4.00394q1.15116,1.14764,2.29878,2.29882c.47191.47538.476.7944.00431,1.26726q-3.46038,3.46894-6.92805,6.93058c-.47534.47453-.7953.47532-1.264.00732q-3.46708-3.46224-6.928-6.93064c-.47876-.47979-.48-.79609-.013-1.26532q1.19579-1.20149,2.40027-2.3943a.74076.74076,0,0,1,1.2347.00949q1.794,1.78551,3.58042,3.57873C190.417,135.23712,190.53065,135.33794,190.68168,135.47953Zm-6.1388-.973,6.11515,6.1159,6.09227-6.0919-1.56435-1.58043c-.0908.08523-.20457.18636-.31206.29377q-1.77189,1.77036-3.54259,3.54192c-.51281.5116-.82143.51287-1.3283.007q-1.77294-1.76931-3.54255-3.542c-.11524-.11514-.23628-.22448-.32372-.30726Z"/><path class="bd0aa0bf-51e6-4794-87a5-14bc312b0dd0" d="M194.09989,130.03619a2.46882,2.46882,0,0,1-.30053.53138q-1.27914,1.31022-2.58538,2.59391a.70444.70444,0,0,1-1.09926.00256q-1.30353-1.28606-2.58823-2.59115a.69075.69075,0,0,1-.00319-1.06352q1.283-1.30653,2.58722-2.59214a.70576.70576,0,0,1,1.10041-.00457q1.30494,1.28458,2.58481,2.59447A2.53032,2.53032,0,0,1,194.09989,130.03619Zm-5.03628-.04452,1.59606,1.60508,1.56021-1.55407-1.60071-1.61248Z"/><path class="bd0aa0bf-51e6-4794-87a5-14bc312b0dd0" d="M181.58631,133.45447a2.73638,2.73638,0,0,1-.53241-.31685q-1.29354-1.26582-2.56169-2.5575a.6807.6807,0,0,1,.01188-1.09451q1.25244-1.27425,2.52651-2.52713a.68266.68266,0,0,1,1.09641-.00766q1.27541,1.25117,2.527,2.52652a.70746.70746,0,0,1-.01167,1.13519q-1.23725,1.2566-2.49661,2.49122A3.1861,3.1861,0,0,1,181.58631,133.45447Zm-1.57209-3.42074,1.5435,1.54439,1.58139-1.56484-1.54344-1.54973Z"/><path class="bd0aa0bf-51e6-4794-87a5-14bc312b0dd0" d="M203.15743,130.03539a3.00523,3.00523,0,0,1-.34275.56132q-1.24829,1.27826-2.52474,2.52882a.68044.68044,0,0,1-1.09641-.00269q-1.274-1.25263-2.52691-2.52665a.70629.70629,0,0,1,.02062-1.1332q1.23878-1.25514,2.49409-2.49388a.69234.69234,0,0,1,1.13.00544q1.27464,1.252,2.52291,2.53062A2.85648,2.85648,0,0,1,203.15743,130.03539Zm-4.9831-.02683,1.51839,1.56668,1.56773-1.5628-1.53555-1.53512Z"/><path class="bd0aa0bf-51e6-4794-87a5-14bc312b0dd0" d="M260.559,118.636c-.00739.10692-.02111.21383-.02121.32075-.00142,1.45514.00575,2.91034-.00709,4.36537a.4894.4894,0,0,0,.31809.51578c1.26067.61551,2.51295,1.24818,3.76891,1.87336.09574.04766.1975.08324.38746.16232-.0978-.18476-.14742-.29051-.20743-.39-.51145-.84776-1.02868-1.69206-1.53587-2.54235-.24417-.40935-.1201-.79453.27858-.908a.53066.53066,0,0,1,.64247.26283q1.42917,2.34315,2.84627,4.69362c.22421.3738.10564.65263-.34942.91239-1.81728,1.03734-3.63184,2.07957-5.45579,3.10508-1.50623.84687-1.00988.83392-2.50419-.00372-1.8253-1.02318-3.63835-2.06822-5.45611-3.10482-.50048-.28541-.57241-.54967-.27488-1.04071q3.19536-5.2735,6.39432-10.54485c.36481-.60116.80924-.60441,1.172-.00823.71662,1.17768,1.42679,2.35929,2.14429,3.53642a.57693.57693,0,0,1-.06276.81279.56811.56811,0,0,1-.88586-.20354c-.19614-.30586-.3795-.61993-.56832-.93048q-.27285-.44876-.54532-.89773Zm.00547,11.44926,4.80053-2.7368-4.80053-2.39664Zm-1.17806-5.135-4.81,2.39623,4.81,2.73778Zm.02-6.30557-.09869-.02721-4.39519,7.24922a2.65834,2.65834,0,0,0,.2693-.08613c1.33312-.66262,2.66855-1.3208,3.99265-2.001a.54214.54214,0,0,0,.22158-.40367c.02149-.7637.01032-1.52831.01034-2.29262Q259.40648,119.864,259.40646,118.64468Z"/><path class="bd0aa0bf-51e6-4794-87a5-14bc312b0dd0" d="M253.46105,129.16833a4.111,4.111,0,0,1,.40624.18719c1.93263,1.11231,3.86592,2.22354,5.79046,3.3497a.54532.54532,0,0,0,.64172-.00492c1.90326-1.11291,3.81577-2.21,5.72566-3.31157.0976-.05629.20028-.15942.29512-.15347.21.0132.48433.018.60534.14619.11957.12666.1048.40092.10482.61044,0,.09706-.1029.1953-.16233.291q-3.13247,5.04612-6.26582,10.09167a2.78841,2.78841,0,0,1-.16385.25191.55129.55129,0,0,1-.92438.01131,2.48363,2.48363,0,0,1-.16408-.25162q-3.155-5.07638-6.309-10.15335a2.01258,2.01258,0,0,1-.16558-.294A.57053.57053,0,0,1,253.46105,129.16833Zm5.8889,9.07981a1.13029,1.13029,0,0,0,.05253-.189c.00216-1.32854.0082-2.65714-.00639-3.98551a.49389.49389,0,0,0-.21845-.33992c-.47775-.29791-.97205-.56924-1.45989-.851q-1.262-.72883-2.52331-1.45867l-.05281.05137ZM264.83,131.4236c-.14282.06065-.19849.07783-.24774.10616-1.281.73683-2.56484,1.46887-3.83568,2.22284a.56821.56821,0,0,0-.20073.42267c-.01564,1.24107-.00965,2.48243-.00756,3.7237.00015.09043.02045.18082.043.36749Z"/></svg>