<svg xmlns="http://www.w3.org/2000/svg" viewBox="0 0 445 445"><defs><style>.a10e5b69-112b-4a26-94e6-40444e0c9d22{isolation:isolate;}.afbe8d18-0b96-4884-a81c-e71e315f7c9f{fill:#029b86;}.bb7b5acc-1218-4fd6-ac98-8c365e3787b6{fill:#63d265;}.e4aae747-9c0e-47b9-ae25-becb84e03320{fill:#e6c7ff;}.afecb78d-b9c7-4cbb-aa87-61c26c89bf6e{fill:#fff;}.ae3f3913-5f63-4ded-a932-395d9e3e7e23{fill:#1b1464;}.bcd03541-eaa5-417f-97bd-d09dcd0bfc1a{fill:red;}.f9fd669a-838b-48b6-91a3-669d9975eb24{fill:#fcd17d;}.af260d57-a4f6-4507-9f26-b15223c643e7{fill:#ffa600;}.a0e7d041-6d73-49cf-b6c2-ddab8f7cda29{fill:#ffd165;}.bef81062-708e-4d35-b9e3-882e494631b8{fill:#42210b;}.e7d1edf5-c2e2-46b3-aacc-95e502967819{fill:#ec9f90;}.bf4f5c40-0f34-47aa-962f-82237972b97f{fill:#3482ff;}.eb6aa205-3b3c-4d33-9d41-d4c25f97ad8b{fill:#fe4d48;}.b670673a-e909-42f5-b553-7f70b322df80{fill:#534741;}.bddea04c-f60f-47ab-9455-ee7e8510e6b6{fill:#ff7878;}.b9ca2d20-336e-4ef5-a193-1d9dc3375bc5{fill:#d391fa;}.ab816b2f-b601-4c1a-8756-e593fbce05ca{fill:#c364fa;}.fbbede91-c3d4-4ddf-aa05-4dd99c70361f{fill:#aaa5a3;}.a8099ca1-a475-42e5-8000-9c8dad50f902{fill:#ffb0a3;}.b3f1a6ed-e37e-43e8-bd50-0d2bdacafd01{fill:#3e00b3;}.e9c4370a-a3af-450c-8d83-7a0f1c6d20c0{fill:#754c24;}.eb6a593f-0901-4930-b0b1-fd46e766206e{fill:#c9bcb7;}.ea79b5ca-6313-457e-a165-b06738eefb3b{fill:#0037e6;}.f248e688-025f-47d5-ab9a-2d294cc10c4d{fill:#ffbe57;}.ba6870bd-2831-41ca-aa3a-ce9fd4c48c50{fill:#e08500;}.a23e4998-bcf9-4f88-a7a1-5bbe74bfa6fa{fill:#001aae;}.bfb13c86-4a60-4ff0-95f1-276596f916f3{fill:#333;}.b64fabb7-cf7e-40ca-91e9-6defe0e5c7fd,.ba108d9a-3ca3-43b2-a515-36c0eb7abf67{fill:#ff8b00;}.ba108d9a-3ca3-43b2-a515-36c0eb7abf67{mix-blend-mode:overlay;}</style></defs><g class="a10e5b69-112b-4a26-94e6-40444e0c9d22"><g id="a72d1aeb-d572-4ae7-baa4-44f1797aac06" data-name="Layer 1"><path id="b7228e58-5b0b-4b55-8a5f-2edafb9af436" data-name="&lt;Group&gt;" class="afbe8d18-0b96-4884-a81c-e71e315f7c9f" d="M87.22267,143.83653A381.27428,381.27428,0,0,1,99.276,189.77234a410.2772,410.2772,0,0,1,6.85359,52.3329c.377,5.64172.66378,11.37578,1.44134,16.89.95046,6.74767,2.63539,13.16567,6.12315,18.66219.72662,1.1483,2.90232,5.46468,5.26281,10.03632.4359.83986.87584,1.69045,1.31175,2.53031,2.79639,5.34772,5.52613,10.31631,6.17006,10.2348,8.4482-1.09162,9.60286-19.28946,9.595-22.22734a371.56557,371.56557,0,0,0-3.10674-47.63q-.6244-4.80531-1.38244-9.56147c-.00785-.05657-.01963-.10964-.02749-.16642-1.07219-6.72283-2.33289-13.43154-3.16171-20.264q-.25314-2.07843-.44758-4.1783a85.55738,85.55738,0,0,1,.97-24.68324c1.03686-5.24848,2.69823-10.68471,2.2309-15.54-.66378-6.8538-5.479-11.80107-8.4795-17.60613-5.45916-10.57836-4.84665-23.98846-7.635-35.87465-1.65755-7.06671-4.51667-13.59457-7.37218-20.09748L97.48527,59.52718c-.41637-.94621-2.47448-.163-2.57265.97816-1.50025,17.3757-3.29906,34.86486-8.02376,52.83249-1.25687,4.78423-2.7257,9.63576-2.93776,14.2074C83.6761,133.45282,85.51014,138.65885,87.22267,143.83653Z"/><path id="f428255d-9074-4589-9203-bfe1766d105a" data-name="&lt;Group&gt;" class="bb7b5acc-1218-4fd6-ac98-8c365e3787b6" d="M70.83775,177.17068a56.83335,56.83335,0,0,1,1.36111,11.75214,282.89491,282.89491,0,0,0,5.23807,41.2904q.44037,2.21025.92594,4.41233,1.67166,7.66878,3.76967,15.29934c.04172.15157.08353.30313.12928.45416,1.46129,5.17312,3.82306,10.74245,12.36836,13.6885,1.92671.659,3.64592-.11569,5.12812-1.57528a14.013,14.013,0,0,0,1.8037-2.23865c2.3555-3.53351,3.8844-8.29164,4.46115-9.591,2.62424-5.91725,4.28136-11.94244,3.37-17.89694-.95141-6.18779-4.61718-12.13221-5.81175-18.30206-1.05033-5.41947-.18266-10.89954.91565-16.39511,1.17005-5.83987,2.597-11.69036,2.2604-17.49531-.5292-9.12206-5.39346-17.90331-10.22419-26.59318-3.01525-5.4253-6.03909-10.85241-9.183-16.25786-4.85895-8.36966-10.0118-16.68953-15.89158-24.875a12.05933,12.05933,0,0,0-10.37639-5.39251q.008,14.58021.01858,29.15013c.00063,1.21781.00148,2.43881.002,3.65674.00159,6.05055.0104,12.12255,1.88213,18.04351C64.99746,164.66816,69.13479,170.78091,70.83775,177.17068Z"/><path id="b6e64bac-93d3-43cc-9ca6-7796d783df12" data-name="&lt;Group&gt;" class="bb7b5acc-1218-4fd6-ac98-8c365e3787b6" d="M98.93977,74.16c.00383.24443.40057,24.83215,3.72319,52.0526,4.47357,36.67237,11.85317,60.41651,21.92717,70.56608a14.4483,14.4483,0,0,1,2.6668,3.831c2.286,4.59287,3.33451,11.38649,3.16172,20.264-.30238,15.60024-4.38314,37.64321-12.191,65.51237-.12174.4359-.24348.87181-.36914,1.30771.4359.83986.87584,1.69045,1.31174,2.53031q.48336-1.69571.96235-3.40212,9.57908-34.18621,11.696-56.22038c1.6222-16.85478-.04692-28.28384-5.01922-34.1702-.24359-.2905-.495-.57049-.75814-.83286-23.43539-23.62006-25.132-120.48532-25.1477-121.45987a.98713.98713,0,0,0-1.96375.02133Z"/><path id="b514670e-8fcf-4a03-8886-df61e205d59d" data-name="&lt;Group&gt;" class="afbe8d18-0b96-4884-a81c-e71e315f7c9f" d="M67.96324,124.18663c6.0513,9.44705,12.13041,31.77033,17.50986,57.07171,4.25716,20.00525,8.08107,41.86853,11.10343,60.7,1.19414,7.41378,2.26157,14.36013,3.18177,20.53392a14.013,14.013,0,0,0,1.8037-2.23865c-.92594-6.1533-1.98392-13.00052-3.15344-20.263-1.1864-7.35338-2.48955-15.13079-3.88674-23.04055q-3.31037-18.739-6.5044-33.97819c-6.463-30.874-12.55357-50.88276-18.17459-59.65732a1.11064,1.11064,0,0,0-1.38085-.2542C67.94456,123.30336,67.72073,123.805,67.96324,124.18663Z"/><path class="e4aae747-9c0e-47b9-ae25-becb84e03320" d="M265.78354,108.05178a139.82826,139.82826,0,0,0-34.757,20.44465C217.9983,138.85531,188.69088,156.22029,144.986,148.749c-60.80677-10.395-127.31428,55.2228-93.74387,154.624s324.30321,113.69414,369.275-3.24843C462.50787,190.93348,389.34588,58.36551,265.78354,108.05178Z"/><rect id="a1233b2e-bc25-4bc8-b378-8d014fb766d3" data-name="&lt;Group&gt;" class="afecb78d-b9c7-4cbb-aa87-61c26c89bf6e" x="153.36198" y="117.72501" width="133.30732" height="261.25557" rx="19.5"/><path class="ae3f3913-5f63-4ded-a932-395d9e3e7e23" d="M276.85512,384.26482H163.17617a15.11573,15.11573,0,0,1-15.09854-15.09853V127.539a15.11566,15.11566,0,0,1,15.09854-15.09853H276.85512A15.11558,15.11558,0,0,1,291.95365,127.539V369.16629A15.11565,15.11565,0,0,1,276.85512,384.26482ZM163.17617,123.00936a4.53454,4.53454,0,0,0-4.52951,4.52961V369.16629a4.53445,4.53445,0,0,0,4.52951,4.52951H276.85512a4.53448,4.53448,0,0,0,4.52962-4.52951V127.539a4.53457,4.53457,0,0,0-4.52962-4.52961Z"/><path id="b1d75c52-c232-42ec-b704-d12df34bd1ae" data-name="&lt;Group&gt;" class="ae3f3913-5f63-4ded-a932-395d9e3e7e23" d="M204.80891,116.26286h27.54861a4.6374,4.6374,0,0,1,4.6374,4.6374v2.46821a4.6374,4.6374,0,0,1-4.6374,4.6374H204.8089a4.63739,4.63739,0,0,1-4.63739-4.63739v-2.46821A4.6374,4.6374,0,0,1,204.80891,116.26286Z"/><path id="b7fa63b2-838f-46a8-81db-b896926a9fb5" data-name="&lt;Group&gt;" class="afbe8d18-0b96-4884-a81c-e71e315f7c9f" d="M62.19544,195.19212c3.565,10.45291,3.8238,20.93692,6.6272,31.41286,2.41939,9.03885,6.70744,17.98557,10.73566,26.92189,9.21662,20.441,19.09575,43.63741,15.21347,63.81958-1.09565,5.70837-4.98908,9.71473-13.31765,8.41943q-.77772-.12036-1.60522-.30344c-.64128-.14371-1.30719-.31279-1.99909-.51477-10.64736-3.103-15.94625-12.49286-19.47531-19.21335C54.36931,298.10794,50.453,290.47,46.72628,282.80658,44.009,277.216,41.42749,271.5309,40.982,265.8947c-.34855-4.39758.61432-8.64465.39123-13.03055-.79306-15.43106-15.99179-30.7096-17.91626-46.23151-.85961-6.94412.99885-13.6107.3218-20.54708-.65656-6.73217-3.68072-13.5087-5.95927-20.2622a94.38355,94.38355,0,0,1-4.789-39.92113c.11271-1.089,1.93233-1.48008,3.20459-.674a23.71317,23.71317,0,0,1,6.59,7.03753q10.65562,15.53592,21.31105,31.07629C51.27468,173.75318,58.4765,184.28357,62.19544,195.19212Z"/><path id="a8330bd9-f331-4041-ac48-835d9d84f073" data-name="&lt;Group&gt;" class="bb7b5acc-1218-4fd6-ac98-8c365e3787b6" d="M19.30162,135.86044c.2248.52495,22.24071,53.181,42.43191,110.17485,25.04538,70.68464,36.43611,116.68519,33.93309,136.96788q-1.06764-.11894-2.20076-.31788c2.609-19.48475-8.97187-66.29969-33.739-136.20975-20.17241-56.922-42.16125-109.51595-42.38212-110.04292a.97528.97528,0,0,1,.52049-1.38647A1.27052,1.27052,0,0,1,19.30162,135.86044Z"/><path id="ffeda481-8aaf-421f-baa6-8834d5e3e61b" data-name="&lt;Group&gt;" class="afbe8d18-0b96-4884-a81c-e71e315f7c9f" d="M312.87879,309.10714c2.71987-12.33589,9.20707-22.6816,11.048-35.44331,1.73492-12.02671-.71908-25.78738.516-38.03921,2.09748-20.80573,14.74329-36.5794,14.47391-58.33856-.11112-8.96753-2.43085-18.68257-2.44009-27.61231a51.59062,51.59062,0,0,1,8.52907-28.23289c.7125-1.11518,3.26913.0846,3.58287,1.67686,1.75264,8.89408,2.72305,17.598,3.6906,26.28432q2.30355,20.68224,4.60709,41.36459c1.27258,11.42534,2.54336,22.95735.781,33.19862-1.20147,6.98223-3.80438,13.2943-4.28071,20.60121-.79158,12.14165,4.32072,26.51951,2.23354,38.07816-1.693,9.376-8.01781,16.19705-10.02051,25.42015-2.97057,13.68064,3.68168,31.97708-2.86676,43.559-4.34727,7.68878-15.2744,4.96647-22.59383-5.09373C310.94879,333.89843,310.64821,319.22423,312.87879,309.10714Z"/><path id="bd5e6ec5-d65a-4549-92b6-9cce9835959c" data-name="&lt;Group&gt;" class="bb7b5acc-1218-4fd6-ac98-8c365e3787b6" d="M345.2039,310.50136c4.785-5.48623,11.26762-9.99355,13.55774-16.91019,2.04844-6.18694.67015-14.09224.3786-21.44489-.94674-23.88328,9.602-42.08367,20.42055-59.86025,12.15344-19.97022,24.7396-39.72594,41.00245-57.22964.787-.847,4.5656,1.24934,4.431,2.45856l-2.70267,24.27769c-1.95346,17.54753-3.91063,35.11375-8.71566,51.20063-8.62927,28.88956-26.40382,52.87611-32.25834,83.20977-1.94614,10.08323-2.66023,20.81794-5.93509,30.21478-2.47521,7.10249-6.71137,23.36534-21.72966,21.939-17.946-1.70435-18.00413-19.54588-18.3685-25.92653C334.55973,329.74358,337.87747,318.90157,345.2039,310.50136Z"/><path id="e608bc72-c19c-436e-a6bc-8c08ffede3fe" data-name="&lt;Group&gt;" class="bb7b5acc-1218-4fd6-ac98-8c365e3787b6" d="M327.9095,348.39909a.93431.93431,0,0,0,.82925-.85048c7.33366-39.35,12.12881-78.08293,16.79428-117.60392a1.42677,1.42677,0,0,0,.01-.16918v-3.94416l.0884-1.02953c.30419-3.53086.59139-6.86728.59479-10.54355,1.54144-17.69135,2.82442-38.46153.67843-58.43907-.06538-.60859-.49269-1.03431-.964-.94781a1.10033,1.10033,0,0,0-.72715,1.25645c2.12158,19.75434.842,40.37529-.68989,57.9414-.00361.04171-.00531.08364-.00531.12556,0,3.57693-.28381,6.8711-.58407,10.35877l-.09372,1.09257c-.00371.04086-.0053.08183-.0053.12291v3.92145c-4.65645,39.44117-9.44366,78.09714-16.75629,117.33273a1.16453,1.16453,0,0,0,.62844,1.34423A.66744.66744,0,0,0,327.9095,348.39909Z"/><path id="b5003251-99ab-4827-abac-c0f9d9a18c25" data-name="&lt;Group&gt;" class="afbe8d18-0b96-4884-a81c-e71e315f7c9f" d="M348.298,363.25255a.89035.89035,0,0,0,.8473-.83828,78.43033,78.43033,0,0,1,2.57318-12.20258,86.524,86.524,0,0,0,2.34244-10.47657c8.00445-24.95071,17.86871-54.50277,30.34438-84.57438l.01709-.04352c.35089-.97157.61538-1.85039.87128-2.70034.25717-.8544.5-1.662.828-2.57233q3.24079-7.73835,6.449-15.43414c8.50052-20.36686,17.29026-41.4271,26.33388-61.948a.994.994,0,0,0-.393-1.26462.81868.81868,0,0,0-1.14214.43506c-9.05126,20.53869-17.845,41.60817-26.34916,61.98394q-3.21643,7.70732-6.45738,15.45515c-.00669.01529-.01274.03089-.01836.0466-.35089.97147-.61549,1.85039-.87128,2.70023-.25717.85494-.50044,1.66285-.82862,2.57361-12.51409,30.16671-22.40033,59.79275-30.42047,84.795a1.0566,1.0566,0,0,0-.04012.17629,82.90878,82.90878,0,0,1-2.303,10.31037,80.00345,80.00345,0,0,0-2.6323,12.525.92863.92863,0,0,0,.75124,1.04715A.767.767,0,0,0,348.298,363.25255Z"/><path class="bcd03541-eaa5-417f-97bd-d09dcd0bfc1a" d="M272.70124,302.57228s-10.49908,2.217-12.25162,3.16511c-1.75243.948-2.76041,4.00477-2.76041,4.00477l2.78525,2.27653,5.37722-3.3205s5.171,1.68472,7.82422-.44418S272.70124,302.57228,272.70124,302.57228Z"/><path class="bcd03541-eaa5-417f-97bd-d09dcd0bfc1a" d="M302.12817,266.04786c-7.72806-2.85329-8.14433,3.25862-8.14433,3.25862s-1.41162,12.3535-.22172,22.44491l-21.06088,10.82089.97466,5.68173s26.28113-3.00145,28.90239-5.93986c2.33237-2.61436,4.45532-21.87283,4.89505-26.08711h0S309.85611,268.90114,302.12817,266.04786Z"/><rect class="f9fd669a-838b-48b6-91a3-669d9975eb24" x="224.35368" y="376.38743" width="81.23753" height="8.4899"/><rect class="f9fd669a-838b-48b6-91a3-669d9975eb24" x="233.49134" y="368.04007" width="81.23753" height="8.49001"/><polygon class="af260d57-a4f6-4507-9f26-b15223c643e7" points="233.491 368.04 314.729 376.53 233.491 376.53 233.491 368.04"/><polygon class="a0e7d041-6d73-49cf-b6c2-ddab8f7cda29" points="314.729 368.04 314.729 376.53 233.491 368.04 314.729 368.04"/><rect class="a0e7d041-6d73-49cf-b6c2-ddab8f7cda29" x="240.65368" y="368.04007" width="2.0926" height="8.46995"/><rect class="a0e7d041-6d73-49cf-b6c2-ddab8f7cda29" x="251.88744" y="368.04007" width="2.0926" height="8.46995"/><rect class="a0e7d041-6d73-49cf-b6c2-ddab8f7cda29" x="264.44282" y="368.04007" width="2.0926" height="8.46995"/><rect class="a0e7d041-6d73-49cf-b6c2-ddab8f7cda29" x="276.3374" y="368.04007" width="2.09259" height="8.46995"/><rect class="a0e7d041-6d73-49cf-b6c2-ddab8f7cda29" x="290.21449" y="368.04007" width="2.09249" height="8.46995"/><rect class="a0e7d041-6d73-49cf-b6c2-ddab8f7cda29" x="303.7611" y="368.04007" width="2.09259" height="8.46995"/><rect class="f9fd669a-838b-48b6-91a3-669d9975eb24" x="224.57041" y="376.24192" width="81.23753" height="8.49001"/><polygon class="af260d57-a4f6-4507-9f26-b15223c643e7" points="224.57 376.242 305.808 384.732 224.57 384.732 224.57 376.242"/><polygon class="a0e7d041-6d73-49cf-b6c2-ddab8f7cda29" points="305.808 376.242 305.808 384.732 224.57 376.242 305.808 376.242"/><rect class="a0e7d041-6d73-49cf-b6c2-ddab8f7cda29" x="231.73275" y="376.24192" width="2.0925" height="8.46995"/><rect class="a0e7d041-6d73-49cf-b6c2-ddab8f7cda29" x="242.96651" y="376.24192" width="2.0926" height="8.46995"/><rect class="a0e7d041-6d73-49cf-b6c2-ddab8f7cda29" x="255.52189" y="376.24192" width="2.0926" height="8.46995"/><rect class="a0e7d041-6d73-49cf-b6c2-ddab8f7cda29" x="267.41646" y="376.24192" width="2.0926" height="8.46995"/><rect class="a0e7d041-6d73-49cf-b6c2-ddab8f7cda29" x="281.29357" y="376.24192" width="2.09249" height="8.46995"/><rect class="a0e7d041-6d73-49cf-b6c2-ddab8f7cda29" x="294.84016" y="376.24192" width="2.09249" height="8.46995"/><circle class="af260d57-a4f6-4507-9f26-b15223c643e7" cx="246.1229" cy="285.59549" r="40.26885" transform="translate(-94.71591 124.44286) rotate(-23.94028)"/><circle class="a0e7d041-6d73-49cf-b6c2-ddab8f7cda29" cx="240.68486" cy="286.43013" r="40.26885"/><path class="af260d57-a4f6-4507-9f26-b15223c643e7" d="M253.23591,318.34a34.16785,34.16785,0,1,1,13.02748-8.80237A34.18045,34.18045,0,0,1,253.23591,318.34Zm-23.9338-63.46594a33.69618,33.69618,0,1,0,45.55116,30.17976l.21079-.00838-.21079.00838a33.73341,33.73341,0,0,0-45.55116-30.17976Z"/><path id="f98f9e14-fa94-4f67-af54-a80ea71c8920" data-name="&lt;Group&gt;" class="bef81062-708e-4d35-b9e3-882e494631b8" d="M360.62424,384.84231h-33.8019c-10.192,0-18.45437-11.83418-18.45437-26.43248V331.97724h71.03245l-.32181,26.43259C379.07861,373.00813,370.81626,384.84231,360.62424,384.84231Z"/><rect class="f9fd669a-838b-48b6-91a3-669d9975eb24" x="126.27644" y="350.62765" width="81.23764" height="8.49001"/><rect class="f9fd669a-838b-48b6-91a3-669d9975eb24" x="117.64028" y="358.9749" width="81.23753" height="8.49001"/><rect class="f9fd669a-838b-48b6-91a3-669d9975eb24" x="114.10252" y="367.32227" width="81.23753" height="8.4899"/><rect class="f9fd669a-838b-48b6-91a3-669d9975eb24" x="119.95311" y="375.66952" width="81.23753" height="8.49001"/><rect class="f9fd669a-838b-48b6-91a3-669d9975eb24" x="126.2308" y="350.33672" width="81.23753" height="8.49001"/><polygon class="af260d57-a4f6-4507-9f26-b15223c643e7" points="126.231 350.337 207.468 358.827 126.231 358.827 126.231 350.337"/><polygon class="a0e7d041-6d73-49cf-b6c2-ddab8f7cda29" points="207.468 350.337 207.468 358.827 126.231 350.337 207.468 350.337"/><rect class="a0e7d041-6d73-49cf-b6c2-ddab8f7cda29" x="133.39314" y="350.33672" width="2.0926" height="8.46984"/><rect class="a0e7d041-6d73-49cf-b6c2-ddab8f7cda29" x="144.6269" y="350.33672" width="2.0926" height="8.46984"/><rect class="a0e7d041-6d73-49cf-b6c2-ddab8f7cda29" x="157.18228" y="350.33672" width="2.0926" height="8.46984"/><rect class="a0e7d041-6d73-49cf-b6c2-ddab8f7cda29" x="169.07685" y="350.33672" width="2.0926" height="8.46984"/><rect class="a0e7d041-6d73-49cf-b6c2-ddab8f7cda29" x="182.95396" y="350.33672" width="2.09249" height="8.46984"/><rect class="a0e7d041-6d73-49cf-b6c2-ddab8f7cda29" x="196.50055" y="350.33672" width="2.0926" height="8.46984"/><rect class="f9fd669a-838b-48b6-91a3-669d9975eb24" x="117.64028" y="358.9749" width="81.23753" height="8.49001"/><polygon class="af260d57-a4f6-4507-9f26-b15223c643e7" points="117.64 358.975 198.878 367.465 117.64 367.465 117.64 358.975"/><polygon class="a0e7d041-6d73-49cf-b6c2-ddab8f7cda29" points="198.878 358.975 198.878 367.465 117.64 358.975 198.878 358.975"/><rect class="a0e7d041-6d73-49cf-b6c2-ddab8f7cda29" x="124.80262" y="358.9749" width="2.09249" height="8.46995"/><rect class="a0e7d041-6d73-49cf-b6c2-ddab8f7cda29" x="136.03638" y="358.9749" width="2.0926" height="8.46995"/><rect class="a0e7d041-6d73-49cf-b6c2-ddab8f7cda29" x="148.59176" y="358.9749" width="2.0926" height="8.46995"/><rect class="a0e7d041-6d73-49cf-b6c2-ddab8f7cda29" x="160.48633" y="358.9749" width="2.0926" height="8.46995"/><rect class="a0e7d041-6d73-49cf-b6c2-ddab8f7cda29" x="174.36343" y="358.9749" width="2.09249" height="8.46995"/><rect class="a0e7d041-6d73-49cf-b6c2-ddab8f7cda29" x="187.91003" y="358.9749" width="2.0926" height="8.46995"/><rect class="f9fd669a-838b-48b6-91a3-669d9975eb24" x="114.10252" y="367.61308" width="81.23753" height="8.49001"/><polygon class="af260d57-a4f6-4507-9f26-b15223c643e7" points="114.103 367.613 195.34 376.103 114.103 376.103 114.103 367.613"/><polygon class="a0e7d041-6d73-49cf-b6c2-ddab8f7cda29" points="195.34 367.613 195.34 376.103 114.103 367.613 195.34 367.613"/><rect class="a0e7d041-6d73-49cf-b6c2-ddab8f7cda29" x="121.26486" y="367.61308" width="2.09249" height="8.46995"/><rect class="a0e7d041-6d73-49cf-b6c2-ddab8f7cda29" x="132.49862" y="367.61308" width="2.0926" height="8.46995"/><rect class="a0e7d041-6d73-49cf-b6c2-ddab8f7cda29" x="145.054" y="367.61308" width="2.0926" height="8.46995"/><rect class="a0e7d041-6d73-49cf-b6c2-ddab8f7cda29" x="156.94857" y="367.61308" width="2.0926" height="8.46995"/><rect class="a0e7d041-6d73-49cf-b6c2-ddab8f7cda29" x="170.82567" y="367.61308" width="2.09249" height="8.46995"/><rect class="a0e7d041-6d73-49cf-b6c2-ddab8f7cda29" x="184.37227" y="367.61308" width="2.0925" height="8.46995"/><rect class="f9fd669a-838b-48b6-91a3-669d9975eb24" x="119.95311" y="376.15202" width="81.23753" height="8.4899"/><polygon class="af260d57-a4f6-4507-9f26-b15223c643e7" points="119.953 376.152 201.191 384.642 119.953 384.642 119.953 376.152"/><polygon class="a0e7d041-6d73-49cf-b6c2-ddab8f7cda29" points="201.191 376.152 201.191 384.642 119.953 376.152 201.191 376.152"/><rect class="a0e7d041-6d73-49cf-b6c2-ddab8f7cda29" x="127.11545" y="376.15202" width="2.09249" height="8.46984"/><rect class="a0e7d041-6d73-49cf-b6c2-ddab8f7cda29" x="138.34921" y="376.15202" width="2.0926" height="8.46984"/><rect class="a0e7d041-6d73-49cf-b6c2-ddab8f7cda29" x="150.9046" y="376.15202" width="2.09259" height="8.46984"/><rect class="a0e7d041-6d73-49cf-b6c2-ddab8f7cda29" x="162.79916" y="376.15202" width="2.0926" height="8.46984"/><rect class="a0e7d041-6d73-49cf-b6c2-ddab8f7cda29" x="176.67627" y="376.15202" width="2.0925" height="8.46984"/><rect class="a0e7d041-6d73-49cf-b6c2-ddab8f7cda29" x="190.22286" y="376.15202" width="2.0926" height="8.46984"/><path class="ae3f3913-5f63-4ded-a932-395d9e3e7e23" d="M303.78454,385.89509H287.59333a.67859.67859,0,0,1-.52335-1.17186l7.99-7.20958-.70475-3.3534,6.31854-.7696.99185,3.9915Z"/><polygon class="e7d1edf5-c2e2-46b3-aacc-95e502967819" points="301.666 377.382 295.081 377.513 293.968 372.482 300.786 371.809 301.666 377.382"/><path class="ae3f3913-5f63-4ded-a932-395d9e3e7e23" d="M350.33829,385.89509H334.14708a.74.74,0,0,1-.52337-1.26877l7.99-7.80574-.70486-3.63063,6.31866-.83339.99185,4.32158Z"/><polygon class="e7d1edf5-c2e2-46b3-aacc-95e502967819" points="348.219 376.678 341.614 376.821 340.909 373.19 347.228 372.357 348.219 376.678"/><path class="bf4f5c40-0f34-47aa-962f-82237972b97f" d="M327.90516,291.90625l.419.35449s7.57436,13.44057,7.1876,25.0439a92.39721,92.39721,0,0,0,1.54716,20.49931l13.27935,32.61826s-4.89919,5.286-10.05629,3.73879l-15.98679-30.42653-8.38016-24.62487s-10.70084,14.69755-17.27613,20.11245c0,0,2.75892,7.09155,5.15708,32.87617,0,0-9.41159,2.19173-11.73227,1.16029l-7.21988-35.32571,21.14389-34.81-2.77453-7.04962Z"/><path class="eb6aa205-3b3c-4d33-9d41-d4c25f97ad8b" d="M334.12585,301.15673s-16.88674,6.67963-29.35645,3.218l-12.22223-29.32557s-2.61076-8.89588,4.06123-13.53715c6.6719-4.64137,16.63147-1.16039,22.8199,11.7C325.61673,286.07232,334.12585,301.15673,334.12585,301.15673Z"/><path class="e7d1edf5-c2e2-46b3-aacc-95e502967819" d="M270.34584,291.94286s-10.71995-.47952-12.65387,0c-1.93392.47964-3.67436,3.18709-3.67436,3.18709l2.12731,2.90083,6.03675-1.86992s4.58523,2.9245,7.68667,1.527C272.96967,296.29024,270.34584,291.94286,270.34584,291.94286Z"/><path class="b670673a-e909-42f5-b553-7f70b322df80" d="M288.82761,245.81569a4.09333,4.09333,0,0,1-4.37052-3.481c-.851-3.86774,1.46968-6.18843,4.37052-5.02814,0,0-1.30274-4.44788,3.21637-4.2545a7.41932,7.41932,0,0,1,6.25964,3.67436s5.22152-2.89616,7.54221,2.70978-2.70745,14.50183-2.70745,14.50183l-3.90542,2.81189Z"/><path class="e7d1edf5-c2e2-46b3-aacc-95e502967819" d="M288.31888,244.08746l-1.35377,13.34376,4.90523.69637,2.32068,5.80167s5.80167.38686,7.15534-3.481l-3.481-6.09174s4.64138-4.93145.19339-5.31821l-1.93393,1.25709s-2.22388-.677-.77353-3.96454C296.80178,243.04328,288.31888,244.08746,288.31888,244.08746Z"/><path class="bddea04c-f60f-47ab-9455-ee7e8510e6b6" d="M307.97314,263.94008c-6.76868-4.69561-8.70048,1.11794-8.70048,1.11794s-4.4567,11.60758-5.82884,21.676l-23.098,5.20889-.4775,5.745s26.19643,3.66757,29.46938,1.47828c2.91208-1.94783,9.78467-20.0632,11.26454-24.03358h0S314.74171,268.63559,307.97314,263.94008Z"/><polygon class="b9ca2d20-336e-4ef5-a193-1d9dc3375bc5" points="138.569 166.377 134.374 166.377 134.374 162.182 132.105 162.182 132.105 166.377 127.91 166.377 127.91 168.646 132.105 168.646 132.105 172.841 134.374 172.841 134.374 168.646 138.569 168.646 138.569 166.377"/><polygon class="ab816b2f-b601-4c1a-8756-e593fbce05ca" points="385.614 152.161 383.892 150.438 379.401 154.929 374.91 150.438 373.187 152.161 377.678 156.652 373.187 161.143 374.909 162.866 379.401 158.374 383.892 162.865 385.614 161.143 381.123 156.652 385.614 152.161"/><polygon class="afecb78d-b9c7-4cbb-aa87-61c26c89bf6e" points="324.321 120.702 319.024 120.702 319.024 115.404 316.158 115.404 316.158 120.702 310.861 120.702 310.861 123.567 316.158 123.567 316.158 128.865 319.024 128.865 319.024 123.567 324.321 123.567 324.321 120.702"/><path class="e7d1edf5-c2e2-46b3-aacc-95e502967819" d="M74.73967,295.86357v5.92765l-2.28258,4.45032-.44907-9.25037s-2.35072-2.01162-1.34465-4.49225C71.66955,290.01839,74.73967,295.86357,74.73967,295.86357Z"/><path class="fbbede91-c3d4-4ddf-aa05-4dd99c70361f" d="M67.16446,248.46084c-7.53987.44556-1.61445,8.19261-1.61445,8.19261s6.4094,9.42784,13.27329,15.72771l-8.15993,20.11776,4.0763,3.36465s16.46483-17.80779,16.5282-21.41751c.05657-3.21181-12.5937-19.033-14.80941-22.22426h0S72.47311,248.1472,67.16446,248.46084Z"/><path class="a8099ca1-a475-42e5-8000-9c8dad50f902" d="M157.37428,260.82337s6.56225-9.01953,13.37646-7.96708l3.9345,1.70913a2.40738,2.40738,0,0,1-2.88873,1.97,6.9208,6.9208,0,0,0-4.13478.38814l-4.1991,4.087Z"/><path class="ae3f3913-5f63-4ded-a932-395d9e3e7e23" d="M66.123,376.10585l6.02731.11972c.24486.18436.55892-.12386.9286-.09212l7.63762,7.31358a.67917.67917,0,0,1-.52315,1.17282H65.69265Z"/><path class="ae3f3913-5f63-4ded-a932-395d9e3e7e23" d="M39.96524,376.10585l6.02721.11972c.245.18436.55891-.12386.92869-.09212l7.63763,7.31358a.67921.67921,0,0,1-.52315,1.17282H39.53485Z"/><polygon class="b3f1a6ed-e37e-43e8-bd50-0d2bdacafd01" points="71.523 287.005 75.848 376.106 65.037 376.95 61.475 333.917 59.679 309.417 55.599 331.542 48.56 376.659 39.022 376.659 42.427 329.167 44.921 290.815 71.523 287.005"/><path class="e9c4370a-a3af-450c-8d83-7a0f1c6d20c0" d="M51.44131,239.26034l-3.71023-.742L45.2082,225.3099s1.78087-7.71733,6.23311-7.27209c4.45234.44525,10.55926-3.36985,13.55254-1.16252,2.57467,1.89848,2.16042,12.5886-4.49947,13.33209Z"/><path class="eb6a593f-0901-4930-b0b1-fd46e766206e" d="M38.72482,252.2218s13.80206-6.361,32.79847-3.1875v34.27346s1.48412,4.60158.742,6.02954c0,0-14.84093,7.6164-29.53349,3.96688a8.14672,8.14672,0,0,1,.74211-6.18822S43.6223,261.12161,38.72482,252.2218Z"/><path class="e7d1edf5-c2e2-46b3-aacc-95e502967819" d="M51.37562,231.43082s-2.06841-1.26568-2.44445,0-.56412,3.38312,1.22217,3.2737l1.36418,3.29014-1.418,11.1756a6.5096,6.5096,0,0,0,8.79727-.60116l.376-7.9589,4.32476-1.76092-2.0684-12.4813s-3.94861,3.58616-7.70926,0l-.75209,7.17232-1.50428.211Z"/><path class="ea79b5ca-6313-457e-a165-b06738eefb3b" d="M120.91758,262.65805l21.875,2.2742,16.746-7.83207,3.9241,3.91041s-13.72279,11.67657-17.1803,12.666c-3.45742.98951-25.69484-1.5858-25.69484-1.5858a7.18352,7.18352,0,0,1-5.42307-5.71134C114.33846,261.58458,120.91758,262.65805,120.91758,262.65805Z"/><circle class="af260d57-a4f6-4507-9f26-b15223c643e7" cx="181.95452" cy="267.40726" r="40.26884" transform="matrix(0.98736, -0.15852, 0.15852, 0.98736, -40.08917, 32.22501)"/><circle class="a0e7d041-6d73-49cf-b6c2-ddab8f7cda29" cx="176.64607" cy="265.96199" r="40.26884" transform="translate(-30.09278 22.65424) rotate(-6.76336)"/><path class="af260d57-a4f6-4507-9f26-b15223c643e7" d="M163.73816,297.52376a34.11128,34.11128,0,1,1,.79847.3286C164.26874,297.74591,164.0018,297.63616,163.73816,297.52376Zm26.6075-62.35542q-.39659-.16908-.79826-.32829a33.68634,33.68634,0,0,0-25.64367,62.29568c.26131.11133.523.21885.78839.32435a33.68647,33.68647,0,0,0,25.65354-62.29174Z"/><path class="af260d57-a4f6-4507-9f26-b15223c643e7" d="M176.909,242.3148l-.34415,1.17736,0,34.261.34415.34415,15.93053-9.40072Z"/><path class="f248e688-025f-47d5-ab9a-2d294cc10c4d" d="M176.909,242.3148l-15.93054,26.3818,15.93051,9.40074,0-16.62788Z"/><path class="af260d57-a4f6-4507-9f26-b15223c643e7" d="M176.90892,281.10412l-.19924.24453,0,12.19921.19924.57057,15.9396-22.406Z"/><path class="ba6870bd-2831-41ca-aa3a-ce9fd4c48c50" d="M176.90891,294.11843l0-13.01431-15.93051-9.39168Z"/><path class="ba6870bd-2831-41ca-aa3a-ce9fd4c48c50" d="M176.90892,278.09734l15.93053-9.40072-15.93051-7.22716Z"/><path class="af260d57-a4f6-4507-9f26-b15223c643e7" d="M160.97841,268.6966l15.93051,9.40074,0-16.62788Z"/><path class="a8099ca1-a475-42e5-8000-9c8dad50f902" d="M98.07624,384.75093H111.8834a4.83212,4.83212,0,0,0-3.674-3.3499,6.14859,6.14859,0,0,1-2.92747-1.56191,8.89771,8.89771,0,0,1-1.69957-2.11213s7.7116-28.6361,10.88955-38.38118l-6.78322-7.61831-4.067,3.83123s-2.93734,26.81383-6.37066,42.07c-.34877,1.562-.70741,3.00612-1.06594,4.28316A2.15847,2.15847,0,0,0,98.07624,384.75093Z"/><path class="a8099ca1-a475-42e5-8000-9c8dad50f902" d="M126.56407,346.59571l5.26546,31.86808.71717,4.33719a2.22018,2.22018,0,0,0,2.11213,1.95H145.4501s.26524-2.81943-3.27613-3.54148a5.00654,5.00654,0,0,1-1.9992-.91851h-.00488a8.77587,8.77587,0,0,1-3.11406-6.04153c.00976-1.73885-1.0463-31.71588-1.0463-31.71588Z"/><path class="bef81062-708e-4d35-b9e3-882e494631b8" d="M115.16866,228.87823s11.54687.06166,11.75914,7.00887c.21217,6.9472-5.41023,15.52987-4.25429,18.44768s.98623,19.01839-14.8179,20.52012c-15.804,1.50173-18.02378-9.19795-13.40724-17.24611C99.065,249.56052,107.69513,230.51815,115.16866,228.87823Z"/><path class="eb6aa205-3b3c-4d33-9d41-d4c25f97ad8b" d="M132.94747,285.54343l2.29787,14.42775L139.11287,346.6s-16.84533,12.91815-34.57309,5.865a16.277,16.277,0,0,0-11.53986-3.00527l15.71741-48.59762s4.04988-14.326,8.64413-16.25362C125.33065,281.26462,132.94747,285.54343,132.94747,285.54343Z"/><path class="a23e4998-bcf9-4f88-a7a1-5bbe74bfa6fa" d="M111.16942,271.29443l6.192,13.24643s9.23615,3.43131,15.586.88551l1.53942-13.71928s-2.55366-3.73115-5.44027-7.86646c-1.87438-2.68527-7.78484-3.15556-10.2572-1.0082Z"/><path class="a8099ca1-a475-42e5-8000-9c8dad50f902" d="M151.20528,276.20369s9.31151-6.14067,15.32216-2.76232l3.08382,2.98192a2.40738,2.40738,0,0,1-3.3965.8302,6.921,6.921,0,0,0-4.00774-1.08865L156.84,278.517Z"/><path class="bfb13c86-4a60-4ff0-95f1-276596f916f3" d="M131.2047,376.23067l6.02732.11962c.245.18436.55891-.12376.9287-.09213l7.63762,7.31359a.67926.67926,0,0,1-.52315,1.17292H130.35253Z"/><path class="bfb13c86-4a60-4ff0-95f1-276596f916f3" d="M97.22555,376.23067l6.02732.11962c.24486.18436.55891-.12376.92859-.09213l7.63762,7.31359a.67923.67923,0,0,1-.52315,1.17292H95.52948Z"/><path class="e7d1edf5-c2e2-46b3-aacc-95e502967819" d="M126.9278,235.8871s1.2607,2.60927,1.781,10.0221c.52029,7.41272-.41138,6.86165-.41138,6.86165l-3.66757,1.16411-1.80167,8.55731-9.267,1.3231a12.65155,12.65155,0,0,0,5.23118-9.88041c.17682-6.62741-3.52587-3.4433-2.7359-8.21946s3.08965.17682,3.08965.17682S125.33405,244.279,126.9278,235.8871Z"/><path class="bf4f5c40-0f34-47aa-962f-82237972b97f" d="M120.22472,263.17558l15.88447,11.75478,18.42985-1.45269,2.301,5.03928s-16.94914,6.114-20.53392,5.82639-23.5015-10.50789-23.5015-10.50789a9.77879,9.77879,0,0,1-3.07214-7.25192c-.08013-4.29558,3.02363-5.13449,5.57007-5.10381A8.47385,8.47385,0,0,1,120.22472,263.17558Z"/><path class="fbbede91-c3d4-4ddf-aa05-4dd99c70361f" d="M38.72482,252.2218S27.58467,273.433,32.14877,289.02728c0,0,8.97973,8.21575,31.44884-5.69606l-2.10045-7.0129-19.6084,3.30075S46.22043,258.19753,38.72482,252.2218Z"/><path class="e7d1edf5-c2e2-46b3-aacc-95e502967819" d="M61.49716,276.31832a21.173,21.173,0,0,1,6.52616-2.41536c3.5-.59182,0,1.20773,0,1.20773a31.64429,31.64429,0,0,1,6.71635-1.32724c3.6335-.29241-4.32668,7.311-4.32668,7.311l-7.07626,1.36577Z"/><polygon class="ab816b2f-b601-4c1a-8756-e593fbce05ca" points="249.963 161.052 249.829 161.177 249.829 168.434 189.096 168.434 189.096 178.621 249.829 178.621 249.829 185.883 249.963 186.008 263.285 173.53 249.963 161.052"/><polygon class="ab816b2f-b601-4c1a-8756-e593fbce05ca" points="189.879 213.973 190.012 213.848 190.012 206.592 250.745 206.592 250.745 196.404 190.012 196.404 190.012 189.142 189.879 189.017 176.556 201.495 189.879 213.973"/><path class="b64fabb7-cf7e-40ca-91e9-6defe0e5c7fd" d="M261.99506,276.30381c-1.81872-1.272-3.76359-2.6282-5.66641-3.97385a1.54048,1.54048,0,0,0-.13667-.09461,2.55676,2.55676,0,0,0-.74641-.42051l-.021-.01052c-5.08821-1.23-10.26052-2.49154-15.26462-3.711q-6.81231-1.65576-13.61411-3.31154c-.11564-.03153-.23128-.06307-.35744-.09461a3.477,3.477,0,0,0-1.38769-.17872.96673.96673,0,0,0-.389.14718l-.12616.10513a1.54324,1.54324,0,0,0-.35743.56769l-.03154.0841v.48359l.021.07359c2.87,8.04232,5.8136,16.20027,8.65206,24.0954,2.18667,6.07641,4.45744,12.3736,6.67565,18.55514a1.114,1.114,0,0,0,1.00923.7359h.10513a1.18425,1.18425,0,0,0,1.05128-.57821l8.32616-12.14231q3.04345-4.43117,6.08692-8.87283c.83052-1.209,1.661-2.42846,2.49155-3.63744,1.36666-1.99743,2.77538-4.058,4.17359-6.0659l.07359-.10513v-.12615a1.58807,1.58807,0,0,0-.56769-1.52436m-9.7559,4.4259c-1.95539,1.01975-3.95283,2.071-5.96078,3.1118,1.16693-1.251,2.34436-2.51257,3.51129-3.76359,1.46128-1.57693,2.98564-3.20642,4.47846-4.80436l.03154-.03154a4.81959,4.81959,0,0,1,.45205-.49411c.11564-.11564.24179-.23128.35743-.36794.778.53615,1.56641,1.08282,2.32334,1.619q.82.58345,1.67154,1.16692c-2.31282,1.17744-4.62565,2.38642-6.86488,3.56385m-5.02513-.50461c-1.50333,1.62949-3.05923,3.301-4.60462,4.95154-2.99615-3.63744-6.05538-7.32744-9.02-10.89129-1.34564-1.619-2.7018-3.24847-4.04744-4.86744l-.01051-.01052c-.30487-.34692-.59923-.72538-.89359-1.08282-.18923-.24179-.389-.47307-.58872-.71487,1.21949.31539,2.44949.60974,3.65846.89359,1.0618.25231,2.16564.51513,3.24846.78846q9.14616,2.22347,18.30284,4.44693c-2.029,2.16564-4.06847,4.36282-6.04488,6.48641m-5.28795,20.4895c.11564-1.10384.24179-2.23923.34692-3.35359.09462-.89359.18923-1.80821.28385-2.68077.14718-1.3982.30487-2.849.431-4.26821l.03153-.2523c.10513-.90411.21026-1.83975.27334-2.77539a3.15884,3.15884,0,0,1,.37846-.17872,4.89852,4.89852,0,0,0,.47308-.23128q3.64269-1.90809,7.2959-3.80565c2.42846-1.26154,4.92-2.56513,7.39051-3.8582-2.24974,3.259-4.51,6.54949-6.69667,9.7559-1.88179,2.74385-3.81615,5.5718-5.74,8.3577-.75693,1.11436-1.54539,2.24974-2.2918,3.34307-.841,1.21949-1.70308,2.47052-2.5441,3.72154.10513-1.26154.23128-2.53359.368-3.7741m-14.65489-30.62386c-.13666-.37846-.28384-.76743-.41-1.13538,2.83847,3.42718,5.698,6.87539,8.48386,10.21846,1.44025,1.73462,2.88051,3.45872,4.32077,5.20385.28384.3259.56769.67282.841,1.00924.35744.431.71487.88307,1.10385,1.3141-.12616,1.08282-.23128,2.17616-.34692,3.22744-.07359.7359-.14718,1.47179-.23129,2.21821v.01051c-.03153.47308-.09461.94615-.14718,1.40872-.07359.64128-.24179,2.09205-.24179,2.09205l-.01051.07359c-.18923,2.12359-.42052,4.26821-.64129,6.34975-.09461.86205-.17872,1.74513-.27333,2.6282-.05256-.15769-.11564-.31538-.16821-.46256-.15769-.42051-.31538-.86205-.46256-1.29308l-1.12487-3.12231q-5.34578-14.8704-10.69155-29.74079"/><path class="ba108d9a-3ca3-43b2-a515-36c0eb7abf67" d="M261.99506,276.30381c-1.81872-1.272-3.76359-2.6282-5.66641-3.97385a1.54048,1.54048,0,0,0-.13667-.09461,2.55676,2.55676,0,0,0-.74641-.42051l-.021-.01052c-5.08821-1.23-10.26052-2.49154-15.26462-3.711q-6.81231-1.65576-13.61411-3.31154c-.11564-.03153-.23128-.06307-.35744-.09461a3.477,3.477,0,0,0-1.38769-.17872.96673.96673,0,0,0-.389.14718l-.12616.10513a1.54324,1.54324,0,0,0-.35743.56769l-.03154.0841v.48359l.021.07359c2.87,8.04232,5.8136,16.20027,8.65206,24.0954,2.18667,6.07641,4.45744,12.3736,6.67565,18.55514a1.114,1.114,0,0,0,1.00923.7359h.10513a1.18425,1.18425,0,0,0,1.05128-.57821l8.32616-12.14231q3.04345-4.43117,6.08692-8.87283c.83052-1.209,1.661-2.42846,2.49155-3.63744,1.36666-1.99743,2.77538-4.058,4.17359-6.0659l.07359-.10513v-.12615a1.58807,1.58807,0,0,0-.56769-1.52436m-9.7559,4.4259c-1.95539,1.01975-3.95283,2.071-5.96078,3.1118,1.16693-1.251,2.34436-2.51257,3.51129-3.76359,1.46128-1.57693,2.98564-3.20642,4.47846-4.80436l.03154-.03154a4.81959,4.81959,0,0,1,.45205-.49411c.11564-.11564.24179-.23128.35743-.36794.778.53615,1.56641,1.08282,2.32334,1.619q.82.58345,1.67154,1.16692c-2.31282,1.17744-4.62565,2.38642-6.86488,3.56385m-5.02513-.50461c-1.50333,1.62949-3.05923,3.301-4.60462,4.95154-2.99615-3.63744-6.05538-7.32744-9.02-10.89129-1.34564-1.619-2.7018-3.24847-4.04744-4.86744l-.01051-.01052c-.30487-.34692-.59923-.72538-.89359-1.08282-.18923-.24179-.389-.47307-.58872-.71487,1.21949.31539,2.44949.60974,3.65846.89359,1.0618.25231,2.16564.51513,3.24846.78846q9.14616,2.22347,18.30284,4.44693c-2.029,2.16564-4.06847,4.36282-6.04488,6.48641m-5.28795,20.4895c.11564-1.10384.24179-2.23923.34692-3.35359.09462-.89359.18923-1.80821.28385-2.68077.14718-1.3982.30487-2.849.431-4.26821l.03153-.2523c.10513-.90411.21026-1.83975.27334-2.77539a3.15884,3.15884,0,0,1,.37846-.17872,4.89852,4.89852,0,0,0,.47308-.23128q3.64269-1.90809,7.2959-3.80565c2.42846-1.26154,4.92-2.56513,7.39051-3.8582-2.24974,3.259-4.51,6.54949-6.69667,9.7559-1.88179,2.74385-3.81615,5.5718-5.74,8.3577-.75693,1.11436-1.54539,2.24974-2.2918,3.34307-.841,1.21949-1.70308,2.47052-2.5441,3.72154.10513-1.26154.23128-2.53359.368-3.7741m-14.65489-30.62386c-.13666-.37846-.28384-.76743-.41-1.13538,2.83847,3.42718,5.698,6.87539,8.48386,10.21846,1.44025,1.73462,2.88051,3.45872,4.32077,5.20385.28384.3259.56769.67282.841,1.00924.35744.431.71487.88307,1.10385,1.3141-.12616,1.08282-.23128,2.17616-.34692,3.22744-.07359.7359-.14718,1.47179-.23129,2.21821v.01051c-.03153.47308-.09461.94615-.14718,1.40872-.07359.64128-.24179,2.09205-.24179,2.09205l-.01051.07359c-.18923,2.12359-.42052,4.26821-.64129,6.34975-.09461.86205-.17872,1.74513-.27333,2.6282-.05256-.15769-.11564-.31538-.16821-.46256-.15769-.42051-.31538-.86205-.46256-1.29308l-1.12487-3.12231q-5.34578-14.8704-10.69155-29.74079"/></g></g></svg>