<svg id="bc91083f-f4b1-4f31-9c9b-c312a88a00f8" data-name="Layer 1" xmlns="http://www.w3.org/2000/svg" viewBox="0 0 445 445"><defs><style>.ffd4c049-902c-4e08-a633-d5f46ef235b7{fill:#d4deff;}.e58d96b1-5f87-44ea-b8a5-8afc00996758{fill:#e3eaff;}.b27af6a1-4a70-47b1-85d1-14d7500a9cda{fill:#fff;}.f55c60a0-b375-43ca-b82b-b5b63a6b3f4f{fill:#95a6db;}.aba24d67-dae3-447c-b75b-a57deecd2da5{fill:#2c2858;}.be34c2ed-1000-4166-9175-92827e01848b{fill:#0e6a41;}.bf272848-6632-47dd-96fb-6b2620c7f82e{fill:#201d40;}.a3c57ca6-a82d-4517-bcf5-9ff59da9cd39{fill:#c4204a;}.a87db13e-917f-4907-9caa-4f340f4de41e{fill:#e62552;}.adc27bd0-e348-444b-bf2b-9ab4aa92497a{fill:#f37a50;}.ba6bfbc6-9431-4378-983f-fb1ab6862cb1{fill:#de623c;}.f0ee91e9-f531-4e31-8050-7503724043c0{fill:#020205;}.b46820f3-d9fa-4c3c-99b8-59a18ec0619d{fill:#3f964f;}.b9332551-0655-42bc-858a-767a30390373,.ea0743d7-4b45-45b2-87b3-dc41e6ef2bff{fill:#faba23;}.aadc3628-b8fa-4531-baa0-f9e97f95276a{fill:#fad332;}.afb31a13-4388-4920-bd39-047e22449afd{fill:#faee6c;}.e9287d65-f91b-4370-91b6-91a50ee14977{fill:#4ead60;}.a1277e31-d96a-4a7c-ab5f-c694c2d6be2f{fill:#f9cd2d;}.e6c90260-aca2-412c-ab77-843f6cb748bb{fill:#f9f93a;}.a2183d37-c062-4190-a364-762e5da27e2c{fill:#d6224c;}.ac1e7352-30f6-4aa0-a1ee-ff00503b198d{fill:#fac832;}.b9332551-0655-42bc-858a-767a30390373{stroke:#faba23;stroke-miterlimit:10;stroke-width:0.25px;}</style></defs><circle class="ffd4c049-902c-4e08-a633-d5f46ef235b7" cx="103.67685" cy="117.50617" r="12.784" transform="translate(-19.79366 214.00293) rotate(-86.58666)"/><path class="ffd4c049-902c-4e08-a633-d5f46ef235b7" d="M66.1897,184.78509l-10.78518-12.1127S59.37135,164.17,71.01819,163.868c7.2195-.18692,13.59637-7.46454,13.59637-7.46454l10.84217,12.17687s-7.0157,9.97945-15.27219,10.05421A20.00087,20.00087,0,0,0,66.1897,184.78509Z"/><path class="e58d96b1-5f87-44ea-b8a5-8afc00996758" d="M81.60052,168.06472c1.131,3.12-.903,6.71884-4.54289,8.03828-3.64,1.3196-7.50763-.14-8.63861-3.26s.903-6.71883,4.54279-8.03835C76.6019,163.48512,80.46952,164.94478,81.60052,168.06472Z"/><path class="b27af6a1-4a70-47b1-85d1-14d7500a9cda" d="M101.93555,111.2235c.01826.06919.03252.13973.05538.20735.31119.92035.6278,1.83888.93174,2.76161a.32676.32676,0,0,0,.31174.25789c.92909.1188,1.85655.25024,2.78473.37617.07076.00959.14273.01027.27979.01953-.10145-.09584-.15551-.15207-.21479-.2021-.50519-.42632-1.01329-.84922-1.51633-1.27805-.24217-.20646-.24633-.47661-.0186-.63386a.3543.3543,0,0,1,.46258.02839q1.40614,1.175,2.80623,2.35721c.22193.18825.20676.39-.02525.65181-.92654,1.04562-1.8503,2.09375-2.78359,3.13332-.77072.85849-.45967.74385-1.58412.53471-1.37352-.25546-2.744-.52736-4.11561-.79293-.37764-.07312-.4798-.22478-.397-.599q.88934-4.01958,1.78142-8.03855c.10173-.45833.382-.5557.73926-.25655.70567.59091,1.4081,1.1857,2.11421,1.77609a.38518.38518,0,0,1,.13463.52736.37929.37929,0,0,1-.60375.06129c-.18961-.15132-.3729-.31057-.55889-.46643q-.26875-.22521-.53732-.45065Zm2.45893,7.23784,2.44828-2.75994-3.54922-.48578Zm-1.84613-2.994-2.52729,2.54663,3.62836.69944Zm-1.33966-3.99112-.06824.004-1.22423,5.52607a1.774,1.774,0,0,0,.1518-.11222c.70078-.70486,1.404-1.40741,2.09528-2.12147a.36192.36192,0,0,0,.05352-.30275c-.15019-.48747-.32124-.96851-.48515-1.45176Q101.47021,112.2471,101.20869,111.47618Z"/><path class="b27af6a1-4a70-47b1-85d1-14d7500a9cda" d="M99.70656,119.405a2.7467,2.7467,0,0,1,.297.03123c1.46049.2888,2.92117.57677,4.37953.87606a.36408.36408,0,0,0,.40468-.14074c.96469-1.11184,1.93862-2.21567,2.90994-3.32176.04963-.05652.09244-.14375.15368-.16032.13562-.0367.31009-.0925.41409-.0374.10277.05444.15225.231.19719.36348.02083.06137-.02318.14555-.04022.21883q-.89834,3.86231-1.79736,7.72445a1.86281,1.86281,0,0,1-.04958.19441.36806.36806,0,0,1-.582.2054,1.65812,1.65812,0,0,1-.1577-.1239q-3.0835-2.533-6.16654-5.06658a1.34476,1.34476,0,0,1-.16774-.15037A.38092.38092,0,0,1,99.70656,119.405Zm5.67067,4.47792a.75389.75389,0,0,0-.00733-.13079c-.28356-.84045-.56468-1.68178-.8588-2.51854a.32973.32973,0,0,0-.211-.16807c-.366-.0859-.73668-.15144-1.10556-.225q-.95419-.19018-1.90824-.38112l-.02237.04381Zm2.00125-5.49023c-.07729.069-.10881.09177-.13387.12025-.65191.7406-1.30665,1.47879-1.94846,2.228a.37936.37936,0,0,0-.03627.31029c.25628.788.5263,1.57164.79383,2.356.01949.05714.0517.10994.106.22312Z"/><path class="ffd4c049-902c-4e08-a633-d5f46ef235b7" d="M403.44986,198.57329l-5.21477-15.35745s-9.35242-.74441-15.3615,9.23712c-3.72472,6.18734-13.201,8.14346-13.201,8.14346l5.24235,15.4385s12.14177-1.17869,16.28035-8.32335A20.00028,20.00028,0,0,1,403.44986,198.57329Z"/><path class="e58d96b1-5f87-44ea-b8a5-8afc00996758" d="M381.30273,203.72825c2.15586,2.523,6.28971,2.52948,9.23329.01441,2.94373-2.515,3.58225-6.59938,1.42655-9.12241-2.15586-2.52313-6.28969-2.52949-9.23327-.0145C379.78571,197.12082,379.147,201.20505,381.30273,203.72825Z"/><path class="e58d96b1-5f87-44ea-b8a5-8afc00996758" d="M398.10552,366.35349c18.216-29.05861,36.98756-52.30475,35.02614-93.497-1.68109-35.30094-41.53067-45.49537-52.11108-60.51594-12.94895-18.38313,2.24128-53.23164-20.73237-84.61012C335.12943,93.3668,294.823,94.123,261.66983,111.48061c-24.20989,12.6753-49.06591,17.03992-73.40361,9.52577C147.13186,108.30654,90.76831,104.75672,85.165,155.18661,81.2686,190.25409,62.19126,201.134,31.93335,224.66794c-40.81549,31.74535-9.75558,94.50371,5.97872,138.8585Z"/><path class="f55c60a0-b375-43ca-b82b-b5b63a6b3f4f" d="M17.53363,362.20615h380.3913a2.07362,2.07362,0,0,1,2.07362,2.07362v0a2.07371,2.07371,0,0,1-2.07371,2.07371H17.53347A2.07353,2.07353,0,0,1,15.45994,364.28v-.00011a2.07369,2.07369,0,0,1,2.07369-2.07369Z"/><path class="b27af6a1-4a70-47b1-85d1-14d7500a9cda" d="M252.79165,211.04155a12.94094,12.94094,0,1,1-16.069-8.7589A12.9408,12.9408,0,0,1,252.79165,211.04155Z"/><path class="aba24d67-dae3-447c-b75b-a57deecd2da5" d="M165.16376,362.0933l-61.78652.0391A17.64551,17.64551,0,0,1,85.72062,344.498l-.09575-151.19961a17.64557,17.64557,0,0,1,17.63436-17.65676l61.78654-.0391a17.64545,17.64545,0,0,1,17.65668,17.63437l.09568,151.19977A17.64543,17.64543,0,0,1,165.16376,362.0933Z"/><path class="f55c60a0-b375-43ca-b82b-b5b63a6b3f4f" d="M165.80068,359.07089l-63.06366.03987a12.40853,12.40853,0,0,1-12.41624-12.40059L90.223,192.19864a12.40837,12.40837,0,0,1,12.4006-12.41616l63.06365-.04A12.40845,12.40845,0,0,1,178.10344,192.143l.09775,154.51168A12.40829,12.40829,0,0,1,165.80068,359.07089Z"/><path class="aba24d67-dae3-447c-b75b-a57deecd2da5" d="M85.05335,225.07843h0a2.75318,2.75318,0,0,1-2.75313-2.75313V208.05061a2.75313,2.75313,0,0,1,2.75313-2.75313h0a2.75315,2.75315,0,0,1,2.75321,2.75313V222.3253A2.7532,2.7532,0,0,1,85.05335,225.07843Z"/><path class="aba24d67-dae3-447c-b75b-a57deecd2da5" d="M183.2314,225.07843h0a2.7532,2.7532,0,0,1-2.75321-2.75313V208.05061a2.75315,2.75315,0,0,1,2.75321-2.75313h0a2.75313,2.75313,0,0,1,2.75313,2.75313V222.3253A2.75318,2.75318,0,0,1,183.2314,225.07843Z"/><path class="aba24d67-dae3-447c-b75b-a57deecd2da5" d="M270.52622,175.62209h61.78663a17.64554,17.64554,0,0,1,17.64554,17.64554v151.1997a17.64554,17.64554,0,0,1-17.64554,17.64554H270.52632a17.64554,17.64554,0,0,1-17.64554-17.64554V193.26753a17.64544,17.64544,0,0,1,17.64544-17.64544Z"/><path class="f55c60a0-b375-43ca-b82b-b5b63a6b3f4f" d="M333.00868,359.07089l-63.06351.03987A12.40836,12.40836,0,0,1,257.529,346.71017l-.09784-154.51153a12.40829,12.40829,0,0,1,12.40044-12.41616l63.06366-.04A12.4084,12.4084,0,0,1,345.31144,192.143l.09784,154.51168A12.40847,12.40847,0,0,1,333.00868,359.07089Z"/><path class="aba24d67-dae3-447c-b75b-a57deecd2da5" d="M252.26144,225.07843h0a2.75313,2.75313,0,0,1-2.75313-2.75313V208.05061a2.75307,2.75307,0,0,1,2.75313-2.75313h0a2.75319,2.75319,0,0,1,2.75327,2.75313V222.3253A2.75325,2.75325,0,0,1,252.26144,225.07843Z"/><path class="aba24d67-dae3-447c-b75b-a57deecd2da5" d="M350.43956,225.07843h0a2.75326,2.75326,0,0,1-2.75329-2.75313V208.05061a2.75321,2.75321,0,0,1,2.75329-2.75313h0a2.75308,2.75308,0,0,1,2.75313,2.75313V222.3253A2.75313,2.75313,0,0,1,350.43956,225.07843Z"/><path class="aba24d67-dae3-447c-b75b-a57deecd2da5" d="M252.26144,246.194h0a2.75307,2.75307,0,0,1-2.75313-2.75313V229.166a2.753,2.753,0,0,1,2.75313-2.753h0a2.75315,2.75315,0,0,1,2.75327,2.753v14.27492A2.75319,2.75319,0,0,1,252.26144,246.194Z"/><path class="be34c2ed-1000-4166-9175-92827e01848b" d="M56.6597,352.48418c-2.076,8.71759-9.49649,3.92283-7.94465,9.43247a.98659.98659,0,0,0,.92212.69373l4.35727.16684a1.96106,1.96106,0,0,0,1.182-.34165c2.29878-1.57393,3.85844-3.79081,8.82331-4.05994-.03787-2.1195.05859-5.1462-.64174-6.22821Z"/><path class="bf272848-6632-47dd-96fb-6b2620c7f82e" d="M68.14245,291.30986S55.47014,310.6373,53.7208,316.64914,55.631,332.8479,54.96893,353.378c3.96073,1.02816,9.24164.14429,9.24164.14429s3.17836-25.75131-.56016-31.832c5.60157-8.54753,19.67184-27.20807,19.67184-27.20807Z"/><path class="be34c2ed-1000-4166-9175-92827e01848b" d="M75.17012,355.29435c-3.22444,4.389-11.27282,1.7932-10.95011,7.68436C76.419,362.78457,81.49,362.811,81.49,362.811a41.82494,41.82494,0,0,0-.59514-5.81909Z"/><path class="aba24d67-dae3-447c-b75b-a57deecd2da5" d="M71.39027,287.40266s-4.04082,31.53237-3.108,37.72377c.93286,6.19141,3.82277,11.03753,3.92429,31.57792,3.996.88034,10.103,1.67128,10.103,1.67128s2.5751-24.77419-2.72153-31.59553c1.50107-10.10873,8.65471-35.53495,8.65471-35.53495Z"/><path class="a3c57ca6-a82d-4517-bcf5-9ff59da9cd39" d="M50.68888,273.52139l-4.92624-5.52406a.57791.57791,0,0,0-.4197-.19138l-4.05632-.02407c-.11555-.002-.4733.63929-.39564.72517l3.47485,3.08787a.13164.13164,0,0,0,.05943.03758l5.95915,2.21091C50.51231,273.88235,50.77828,273.6206,50.68888,273.52139Z"/><path class="a87db13e-917f-4907-9caa-4f340f4de41e" d="M50.31273,273.89156l-4.69332-5.208a.57814.57814,0,0,0-.41969-.19122l-4.18169-.075a.13175.13175,0,0,0-.10005.22035l3.30455,3.64344a.13237.13237,0,0,0,.0595.03774l5.89437,1.78737A.132.132,0,0,0,50.31273,273.89156Z"/><path class="adc27bd0-e348-444b-bf2b-9ab4aa92497a" d="M59.58558,278.64184l-3.39411-1.66377s-3.348-3.3883-3.845-4.14536c-.74487-.37692-2.15387-1.326-2.47068-1.362a5.21939,5.21939,0,0,0-.96576.06149l1.57154,1.78768a2.51236,2.51236,0,0,1-1.69866-.45665c-.95218-.605-2.63444-2.227-3.4582-1.91251l-.29221.25823s-.52014-.55541-1.01061-.349c-.49054.2067.48472,2.65252,3.2525,5.245a8.213,8.213,0,0,0,1.09542,1.90514l5.59619,1.96556Z"/><path class="a3c57ca6-a82d-4517-bcf5-9ff59da9cd39" d="M44.85493,269.46943a.40672.40672,0,1,0-.08158-.63836A.46285.46285,0,0,0,44.85493,269.46943Z"/><path class="adc27bd0-e348-444b-bf2b-9ab4aa92497a" d="M75.39079,253.68332c-1.00709,1.30526,6.88115,2.72475,7.93851.0121s-.7585-10.17389-.7585-10.17389l-7.19206,1.5267S76.70142,251.98457,75.39079,253.68332Z"/><ellipse class="adc27bd0-e348-444b-bf2b-9ab4aa92497a" cx="75.93774" cy="238.29221" rx="8.25108" ry="10.50559" transform="translate(-24.45434 9.22639) rotate(-5.9905)"/><path d="M70.40911,240.85228a.85894.85894,0,1,1-.51823-1.0987A.85883.85883,0,0,1,70.40911,240.85228Z"/><path d="M76.04157,239.622a.9298.9298,0,1,1-.56092-1.18934A.92968.92968,0,0,1,76.04157,239.622Z"/><path class="ba6bfbc6-9431-4378-983f-fb1ab6862cb1" d="M72.04919,240.67318c-.18194,1.35234-.43511,3.01643-.43511,3.01643a2.07971,2.07971,0,0,0,2.36256.2892c-.737.02423-1.53987-.11593-1.66125-1.05777C72.19411,241.9789,72.04919,240.67318,72.04919,240.67318Z"/><path class="f0ee91e9-f531-4e31-8050-7503724043c0" d="M70.157,238.891a.32931.32931,0,0,1-.32608.00766.95882.95882,0,0,0-.70362-.06011,1.07722,1.07722,0,0,0-.56216.6899.32948.32948,0,1,1-.61774-.22941,1.68759,1.68759,0,0,1,.95388-1.07954,1.62475,1.62475,0,0,1,1.244.1.32957.32957,0,0,1,.01173.57152Z"/><path class="f0ee91e9-f531-4e31-8050-7503724043c0" d="M74.44213,237.9521a.32977.32977,0,0,0,.31043-.1003.95913.95913,0,0,1,.64459-.28828,1.07734,1.07734,0,0,1,.758.46647.32944.32944,0,0,0,.5078-.41985,1.6881,1.6881,0,0,0-1.25605-.70554,1.62564,1.62564,0,0,0-1.1418.50374.32976.32976,0,0,0,.17705.54376Z"/><path class="f0ee91e9-f531-4e31-8050-7503724043c0" d="M82.45894,241.09625a6.8341,6.8341,0,0,1-2.16116-6.31836c-1.448.09476-1.85362.71381-1.85362.71381a3.16019,3.16019,0,0,1-.88073-2.596c-3.13779-.34166-4.0564,1.87785-6.45147,3.18741-3.27994,1.7935-7.99,1.56134-9.54963-2.61206a.75757.75757,0,0,1,.95885-.98233,3.33964,3.33964,0,0,0,2.06148.04417,3.56688,3.56688,0,0,1-1.30487-1.768.75664.75664,0,0,1,1.05385-.8943c.89284.4105,2.40068.6195,4.69147-.48227,1.5247-.73313,4.50762-4.29531,6.93274-4.41a5.84528,5.84528,0,0,1,5.15043,3.20766,6.09138,6.09138,0,0,1,6.55506,4.17677c1.79343,4.85271-4.92915,12.34968-4.92915,12.34968S83.248,241.8645,82.45894,241.09625Z"/><path class="b27af6a1-4a70-47b1-85d1-14d7500a9cda" d="M72.41446,246.18572a.25237.25237,0,0,1,.07583-.458,17.90177,17.90177,0,0,0,4.45379-1.66962.25244.25244,0,0,1,.35821.2955,3.15189,3.15189,0,0,1-4.88783,1.83214Z"/><path class="adc27bd0-e348-444b-bf2b-9ab4aa92497a" d="M80.33313,237.69693a2.06242,2.06242,0,1,0,3.17835-.296A2.28012,2.28012,0,0,0,80.33313,237.69693Z"/><path class="ba6bfbc6-9431-4378-983f-fb1ab6862cb1" d="M81.27681,240.46217a.29682.29682,0,0,1-.11486-.07467,1.34947,1.34947,0,0,1-.29711-1.63,1.43776,1.43776,0,0,1,1.50078-.72133.29832.29832,0,0,1-.11953.58454.85088.85088,0,0,0-.859.42568.76375.76375,0,0,0,.20655.92911.29834.29834,0,0,1-.3168.48671Z"/><path class="b46820f3-d9fa-4c3c-99b8-59a18ec0619d" d="M66.62389,293.62474c5.626,1.14793,15.74127,3.13005,21.091,1.04427,2.02452-2.90648,2.53745-19.34262,2.53745-19.34262.58563-16.91764-1.44319-19.42787-6.01858-25.09622a30.57009,30.57009,0,0,1-8.83834,1.65075s-4.78747,6.64652-5.72148,11.47317c-.94706,4.89411-1.05432,13.59544-1.14226,18.57957C68.43389,287.46875,67.34039,290.138,66.62389,293.62474Z"/><path class="be34c2ed-1000-4166-9175-92827e01848b" d="M84.90039,255.3658c3.29091,6.40609,2.54573,13.50068-7.02313,27.46753a8.69179,8.69179,0,0,1-8.01529-6.16994s1.8412-6.93435,4.23291-15.65729C76.48658,252.28329,83.46018,252.56221,84.90039,255.3658Z"/><path class="be34c2ed-1000-4166-9175-92827e01848b" d="M55.64548,275.32639l14.348,1.145s6.15329-1.12247,7.88379,6.36192c-3.07984,2.39768-11.02949,3.2972-24.069-1.54386C55.18814,279.41131,55.64548,275.32639,55.64548,275.32639Z"/><polygon class="b27af6a1-4a70-47b1-85d1-14d7500a9cda" points="75.438 251.406 75.302 255.265 85.01 251.195 83.834 248.073 75.438 251.406"/><path class="ea0743d7-4b45-45b2-87b3-dc41e6ef2bff" d="M147.88991,157.90341a14.32032,14.32032,0,1,1-7.374-18.86189A14.32017,14.32017,0,0,1,147.88991,157.90341Z"/><path class="aadc3628-b8fa-4531-baa0-f9e97f95276a" d="M145.54736,156.87784a11.76425,11.76425,0,1,1-6.05717-15.49346A11.796,11.796,0,0,1,145.54736,156.87784Z"/><path class="ea0743d7-4b45-45b2-87b3-dc41e6ef2bff" d="M173.57826,116.35984A14.32029,14.32029,0,1,1,166.2042,97.498,14.32039,14.32039,0,0,1,173.57826,116.35984Z"/><path class="aadc3628-b8fa-4531-baa0-f9e97f95276a" d="M171.23572,115.33429A11.76423,11.76423,0,1,1,165.17857,99.841,11.796,11.796,0,0,1,171.23572,115.33429Z"/><circle class="ea0743d7-4b45-45b2-87b3-dc41e6ef2bff" cx="269.77305" cy="110.61594" r="14.32028" transform="translate(-13.84937 43.00152) rotate(-8.88647)"/><path class="aadc3628-b8fa-4531-baa0-f9e97f95276a" d="M280.54828,115.33429A11.76423,11.76423,0,1,1,274.4912,99.841,11.796,11.796,0,0,1,280.54828,115.33429Z"/><path class="ea0743d7-4b45-45b2-87b3-dc41e6ef2bff" d="M312.07482,157.90341a14.32026,14.32026,0,1,1-7.37385-18.86189A14.32,14.32,0,0,1,312.07482,157.90341Z"/><path class="aadc3628-b8fa-4531-baa0-f9e97f95276a" d="M309.95845,156.66778a11.76425,11.76425,0,1,1-6.05707-15.49346A11.796,11.796,0,0,1,309.95845,156.66778Z"/><path class="ea0743d7-4b45-45b2-87b3-dc41e6ef2bff" d="M232.46523,98.71428a14.32024,14.32024,0,1,1-7.374-18.86173A14.32,14.32,0,0,1,232.46523,98.71428Z"/><path class="aadc3628-b8fa-4531-baa0-f9e97f95276a" d="M230.12275,97.68887a11.76424,11.76424,0,1,1-6.05707-15.49338A11.796,11.796,0,0,1,230.12275,97.68887Z"/><path class="f55c60a0-b375-43ca-b82b-b5b63a6b3f4f" d="M276.13857,174.55207a1.2562,1.2562,0,0,1-1.25619-1.25619c0-1.023-.02638-2.05778-.0782-3.07545a1.25614,1.25614,0,1,1,2.509-.128c.05413,1.06.08158,2.13791.08158,3.20341A1.2562,1.2562,0,0,1,276.13857,174.55207Z"/><path class="f55c60a0-b375-43ca-b82b-b5b63a6b3f4f" d="M275.40375,165.09031a1.25631,1.25631,0,0,1-1.23947-1.06214,59.38683,59.38683,0,0,0-1.28411-6.0875,1.25625,1.25625,0,1,1,2.42775-.647,61.87407,61.87407,0,0,1,1.33838,6.346,1.25611,1.25611,0,0,1-1.04673,1.43545A1.2772,1.2772,0,0,1,275.40375,165.09031Zm-119.90087-.05313a1.25659,1.25659,0,0,1-1.24255-1.4517,61.89279,61.89279,0,0,1,1.34444-6.345,1.2562,1.2562,0,0,1,2.427.64956,59.313,59.313,0,0,0-1.28946,6.08614A1.25664,1.25664,0,0,1,155.50288,165.03718Zm116.63143-12.21083a1.25647,1.25647,0,0,1-1.17324-.80674,59.31713,59.31713,0,0,0-2.53185-5.68568,1.25624,1.25624,0,0,1,2.2382-1.14148,61.879,61.879,0,0,1,2.63951,5.92765,1.25692,1.25692,0,0,1-1.17262,1.70625Zm-113.35217-.04723a1.25673,1.25673,0,0,1-1.17223-1.70718,61.84763,61.84763,0,0,1,2.6418-5.92029,1.25617,1.25617,0,0,1,2.23727,1.143,59.327,59.327,0,0,0-2.534,5.67869A1.2567,1.2567,0,0,1,158.78214,152.77912Zm107.58722-11.26226a1.255,1.255,0,0,1-1.0544-.57158,59.89189,59.89189,0,0,0-3.6603-5.03412,1.25623,1.25623,0,0,1,1.95237-1.58136,62.446,62.446,0,0,1,3.81427,5.24612,1.25622,1.25622,0,0,1-1.05194,1.94094Zm-101.81774-.03465a1.25629,1.25629,0,0,1-1.05156-1.94171,62.40433,62.40433,0,0,1,3.8165-5.24166,1.25621,1.25621,0,0,1,1.95122,1.58273,59.89211,59.89211,0,0,0-3.66231,5.02983A1.255,1.255,0,0,1,164.55162,141.48221Zm93.82746-9.82818a1.25256,1.25256,0,0,1-.88878-.36833,60.03042,60.03042,0,0,0-4.62163-4.167,1.25625,1.25625,0,0,1,1.58313-1.951,62.61772,62.61772,0,0,1,4.8159,4.34222,1.25615,1.25615,0,0,1-.88862,2.14413Zm-85.83289-.02691a1.25611,1.25611,0,0,1-.888-2.14458,62.50834,62.50834,0,0,1,4.81928-4.33986,1.25623,1.25623,0,0,1,1.58173,1.95207,60.04022,60.04022,0,0,0-4.625,4.16457A1.25207,1.25207,0,0,1,172.54619,131.62712Zm75.97748-7.9675a1.24926,1.24926,0,0,1-.68421-.2038,59.65634,59.65634,0,0,0-5.38281-3.11694,1.25621,1.25621,0,0,1,1.14332-2.2372,62.1735,62.1735,0,0,1,5.61038,3.24889,1.25629,1.25629,0,0,1-.68668,2.309Zm-66.11473-.02255a1.25625,1.25625,0,0,1-.686-2.30935,62.13976,62.13976,0,0,1,5.61613-3.24674,1.25621,1.25621,0,1,1,1.14164,2.23805,59.5612,59.5612,0,0,0-5.38811,3.11494A1.25068,1.25068,0,0,1,182.40894,123.63707ZM237.229,117.8883a1.25505,1.25505,0,0,1-.45069-.084,59.1557,59.1557,0,0,0-5.91646-1.924,1.25623,1.25623,0,0,1,.64987-2.427,61.72657,61.72657,0,0,1,6.16856,2.006,1.2564,1.2564,0,0,1-.45128,2.429Zm-43.513-.01809a1.2564,1.2564,0,0,1-.45014-2.42935,61.70648,61.70648,0,0,1,6.17262-2.00136,1.25618,1.25618,0,0,1,.64773,2.42743,59.1596,59.1596,0,0,0-5.92037,1.91969A1.25555,1.25555,0,0,1,193.71605,117.87021Zm31.257-3.26484a1.26462,1.26462,0,0,1-.197-.0155,59.9178,59.9178,0,0,0-6.18888-.64587,1.25621,1.25621,0,0,1,.1305-2.509,62.46361,62.46361,0,0,1,6.44941.67319,1.25626,1.25626,0,0,1-.194,2.4972Zm-18.99575-.00806a1.25631,1.25631,0,0,1-.193-2.49743,62.41711,62.41711,0,0,1,6.44993-.66781,1.25619,1.25619,0,1,1,.12835,2.50909,59.892,59.892,0,0,0-6.18918.64083A1.27269,1.27269,0,0,1,205.97726,114.59731Z"/><path class="f55c60a0-b375-43ca-b82b-b5b63a6b3f4f" d="M154.7597,174.55207a1.25616,1.25616,0,0,1-1.25619-1.25619c0-1.065.02729-2.14281.08143-3.20341a1.25621,1.25621,0,1,1,2.50917.12788c-.05192,1.01828-.07822,2.053-.07822,3.07553A1.25614,1.25614,0,0,1,154.7597,174.55207Z"/><path class="f55c60a0-b375-43ca-b82b-b5b63a6b3f4f" d="M171.76382,174.55207a1.25616,1.25616,0,0,1-1.25619-1.25619c0-1.07409.03842-2.15977.11409-3.227a1.2562,1.2562,0,1,1,2.5061.1778c-.07154,1.00815-.10781,2.0341-.10781,3.04915A1.25614,1.25614,0,0,1,171.76382,174.55207Z"/><path class="f55c60a0-b375-43ca-b82b-b5b63a6b3f4f" d="M172.75857,165.24558a1.257,1.257,0,0,1-1.2289-1.52279,44.76571,44.76571,0,0,1,1.807-6.15406,1.25621,1.25621,0,1,1,2.35351.87935,42.24529,42.24529,0,0,0-1.70525,5.80751A1.25652,1.25652,0,0,1,172.75857,165.24558Zm85.37393-.0332a1.25651,1.25651,0,0,1-1.22614-.98915,42.26737,42.26737,0,0,0-1.70854-5.80282,1.25618,1.25618,0,1,1,2.35289-.88081,44.77564,44.77564,0,0,1,1.81038,6.14893,1.25773,1.25773,0,0,1-1.22859,1.52385Zm-81.02594-11.61394a1.25658,1.25658,0,0,1-1.10063-1.85984,45.14956,45.14956,0,0,1,3.47224-5.38849,1.25618,1.25618,0,1,1,2.00964,1.50776,42.6326,42.6326,0,0,0-3.27833,5.08756A1.25605,1.25605,0,0,1,177.10656,153.59844ZM253.78,153.5772a1.25619,1.25619,0,0,1-1.10254-.65249,42.623,42.623,0,0,0-3.27926-5.083,1.25615,1.25615,0,0,1,2.00881-1.50875,45.13614,45.13614,0,0,1,3.47338,5.38383A1.25666,1.25666,0,0,1,253.78,153.5772Zm-69.21358-9.92294a1.25612,1.25612,0,0,1-.88794-2.14467,45.32454,45.32454,0,0,1,4.8419-4.19732,1.25625,1.25625,0,0,1,1.50675,2.01056,42.79336,42.79336,0,0,0-4.57263,3.96377A1.25254,1.25254,0,0,1,184.56642,143.65426Zm61.75141-.014a1.252,1.252,0,0,1-.88754-.36719,42.83043,42.83043,0,0,0-4.57518-3.9624,1.25616,1.25616,0,0,1,1.50585-2.011,45.32488,45.32488,0,0,1,4.84428,4.19549,1.25609,1.25609,0,0,1-.88741,2.14512Zm-51.8057-7.43794a1.25641,1.25641,0,0,1-.60409-2.3585,44.86745,44.86745,0,0,1,5.82622-2.6651,1.25623,1.25623,0,0,1,.87865,2.35382,42.36352,42.36352,0,0,0-5.499,2.5153A1.25044,1.25044,0,0,1,194.51213,136.20228Zm41.85354-.0112a1.25037,1.25037,0,0,1-.60126-.1541,42.36645,42.36645,0,0,0-5.50533-2.51438,1.25619,1.25619,0,1,1,.87712-2.35429,44.87772,44.87772,0,0,1,5.83288,2.66405,1.25631,1.25631,0,0,1-.60341,2.35872Zm-30.21559-4.33271a1.25629,1.25629,0,0,1-.265-2.484,45.08825,45.08825,0,0,1,6.34421-.90641,1.25618,1.25618,0,0,1,.17742,2.50609,42.54817,42.54817,0,0,0-5.9893.85573A1.25758,1.25758,0,0,1,206.15008,131.85837Zm18.56577-.00691a1.26785,1.26785,0,0,1-.26652-.02851,42.56293,42.56293,0,0,0-5.98967-.85129,1.25613,1.25613,0,1,1,.17558-2.50611,45.054,45.054,0,0,1,6.34466.90167,1.25631,1.25631,0,0,1-.264,2.48424Z"/><path class="f55c60a0-b375-43ca-b82b-b5b63a6b3f4f" d="M259.13445,174.55207a1.2562,1.2562,0,0,1-1.25619-1.25619c0-1.01544-.03635-2.04131-.10781-3.04907a1.25613,1.25613,0,1,1,2.506-.178c.07574,1.06689.11425,2.15256.11425,3.227A1.25621,1.25621,0,0,1,259.13445,174.55207Z"/><path class="f55c60a0-b375-43ca-b82b-b5b63a6b3f4f" d="M275.917,175.28705l-.01534-.00023a.78428.78428,0,0,1-.61414-.31618l-8.01819-10.7829a.78446.78446,0,0,1,1.25895-.93624l7.41356,9.96986,7.38242-9.16442a.78443.78443,0,0,1,1.22185.98407l-8.0182,9.95362A.78477.78477,0,0,1,275.917,175.28705Z"/><path class="f55c60a0-b375-43ca-b82b-b5b63a6b3f4f" d="M171.73914,175.28705l-.01511-.00023a.78413.78413,0,0,1-.61429-.31618l-8.01819-10.7829a.78446.78446,0,0,1,1.25895-.93624l7.41356,9.96986,7.38251-9.16442a.78436.78436,0,0,1,1.22167.98407l-8.01819,9.95362A.78463.78463,0,0,1,171.73914,175.28705Z"/><path class="aadc3628-b8fa-4531-baa0-f9e97f95276a" d="M331.15291,344.46859v3.18128a2.25105,2.25105,0,0,1-2.25077,2.25076H290.0749a2.25116,2.25116,0,0,1-2.25078-2.25076v-3.18128a2.25052,2.25052,0,0,1,2.25078-2.25078h38.82724a2.25048,2.25048,0,0,1,2.25077,2.25078Z"/><rect class="ea0743d7-4b45-45b2-87b3-dc41e6ef2bff" x="289.97615" y="342.21781" width="1.1277" height="7.68252"/><rect class="ea0743d7-4b45-45b2-87b3-dc41e6ef2bff" x="294.70558" y="342.21781" width="1.12768" height="7.68252"/><rect class="ea0743d7-4b45-45b2-87b3-dc41e6ef2bff" x="299.435" y="342.21781" width="1.12768" height="7.68252"/><rect class="ea0743d7-4b45-45b2-87b3-dc41e6ef2bff" x="304.16442" y="342.21781" width="1.1277" height="7.68252"/><rect class="ea0743d7-4b45-45b2-87b3-dc41e6ef2bff" x="308.89386" y="342.21781" width="1.12768" height="7.68252"/><rect class="ea0743d7-4b45-45b2-87b3-dc41e6ef2bff" x="313.62328" y="342.21781" width="1.1277" height="7.68252"/><rect class="ea0743d7-4b45-45b2-87b3-dc41e6ef2bff" x="318.35271" y="342.21781" width="1.12768" height="7.68252"/><rect class="ea0743d7-4b45-45b2-87b3-dc41e6ef2bff" x="323.08213" y="342.21781" width="1.1277" height="7.68252"/><rect class="ea0743d7-4b45-45b2-87b3-dc41e6ef2bff" x="327.81156" y="342.21781" width="1.12768" height="7.68252"/><path class="ea0743d7-4b45-45b2-87b3-dc41e6ef2bff" d="M330.62143,343.01581H288.35562a2.24681,2.24681,0,0,1,1.71928-.798h38.82724A2.24681,2.24681,0,0,1,330.62143,343.01581Z"/><path class="ea0743d7-4b45-45b2-87b3-dc41e6ef2bff" d="M330.62143,349.10248H288.35562a2.24717,2.24717,0,0,0,1.71928.79785h38.82724A2.24717,2.24717,0,0,0,330.62143,349.10248Z"/><path class="aadc3628-b8fa-4531-baa0-f9e97f95276a" d="M333.86878,336.78577V339.967a2.25115,2.25115,0,0,1-2.25077,2.25078H292.79063a2.25115,2.25115,0,0,1-2.25078-2.25078v-3.18126a2.25023,2.25023,0,0,1,2.25078-2.25078H331.618a2.25023,2.25023,0,0,1,2.25077,2.25078Z"/><rect class="ea0743d7-4b45-45b2-87b3-dc41e6ef2bff" x="292.69186" y="334.53515" width="1.1277" height="7.68236"/><rect class="ea0743d7-4b45-45b2-87b3-dc41e6ef2bff" x="297.4213" y="334.53515" width="1.12768" height="7.68236"/><rect class="ea0743d7-4b45-45b2-87b3-dc41e6ef2bff" x="302.15072" y="334.53515" width="1.1277" height="7.68236"/><rect class="ea0743d7-4b45-45b2-87b3-dc41e6ef2bff" x="306.88015" y="334.53515" width="1.12768" height="7.68236"/><rect class="ea0743d7-4b45-45b2-87b3-dc41e6ef2bff" x="311.60957" y="334.53515" width="1.1277" height="7.68236"/><rect class="ea0743d7-4b45-45b2-87b3-dc41e6ef2bff" x="316.339" y="334.53515" width="1.12768" height="7.68236"/><rect class="ea0743d7-4b45-45b2-87b3-dc41e6ef2bff" x="321.06842" y="334.53515" width="1.12768" height="7.68236"/><rect class="ea0743d7-4b45-45b2-87b3-dc41e6ef2bff" x="325.79784" y="334.53515" width="1.1277" height="7.68236"/><rect class="ea0743d7-4b45-45b2-87b3-dc41e6ef2bff" x="330.52728" y="334.53515" width="1.12768" height="7.68236"/><path class="ea0743d7-4b45-45b2-87b3-dc41e6ef2bff" d="M333.3373,335.33283h-42.266a2.24742,2.24742,0,0,1,1.7193-.79784H331.618A2.24738,2.24738,0,0,1,333.3373,335.33283Z"/><path class="ea0743d7-4b45-45b2-87b3-dc41e6ef2bff" d="M333.3373,341.4195h-42.266a2.247,2.247,0,0,0,1.7193.798H331.618A2.247,2.247,0,0,0,333.3373,341.4195Z"/><path class="aadc3628-b8fa-4531-baa0-f9e97f95276a" d="M331.76323,329.11644v3.18126a2.25108,2.25108,0,0,1-2.25078,2.25078H290.68491a2.25094,2.25094,0,0,1-2.25063-2.25078v-3.18126a2.25052,2.25052,0,0,1,2.25063-2.25078h38.82754a2.25052,2.25052,0,0,1,2.25078,2.25078Z"/><rect class="ea0743d7-4b45-45b2-87b3-dc41e6ef2bff" x="290.58616" y="326.86596" width="1.12768" height="7.68236"/><rect class="ea0743d7-4b45-45b2-87b3-dc41e6ef2bff" x="295.31557" y="326.86596" width="1.1277" height="7.68236"/><rect class="ea0743d7-4b45-45b2-87b3-dc41e6ef2bff" x="300.04501" y="326.86596" width="1.12768" height="7.68236"/><rect class="ea0743d7-4b45-45b2-87b3-dc41e6ef2bff" x="304.77443" y="326.86596" width="1.1277" height="7.68236"/><rect class="ea0743d7-4b45-45b2-87b3-dc41e6ef2bff" x="309.50386" y="326.86596" width="1.12768" height="7.68236"/><rect class="ea0743d7-4b45-45b2-87b3-dc41e6ef2bff" x="314.23328" y="326.86596" width="1.12768" height="7.68236"/><rect class="ea0743d7-4b45-45b2-87b3-dc41e6ef2bff" x="318.9627" y="326.86596" width="1.1277" height="7.68236"/><rect class="ea0743d7-4b45-45b2-87b3-dc41e6ef2bff" x="323.69214" y="326.86596" width="1.12784" height="7.68236"/><rect class="ea0743d7-4b45-45b2-87b3-dc41e6ef2bff" x="328.42155" y="326.86596" width="1.12784" height="7.68236"/><path class="ea0743d7-4b45-45b2-87b3-dc41e6ef2bff" d="M331.23173,327.66366h-42.266a2.24691,2.24691,0,0,1,1.71913-.798h38.82754A2.247,2.247,0,0,1,331.23173,327.66366Z"/><path class="ea0743d7-4b45-45b2-87b3-dc41e6ef2bff" d="M331.23173,333.75049h-42.266a2.24729,2.24729,0,0,0,1.71913.79783h38.82754A2.24737,2.24737,0,0,0,331.23173,333.75049Z"/><path class="aadc3628-b8fa-4531-baa0-f9e97f95276a" d="M332.62976,321.58664v3.18112a2.25105,2.25105,0,0,1-2.25078,2.25078H291.5516a2.25116,2.25116,0,0,1-2.25078-2.25078v-3.18112a2.25027,2.25027,0,0,1,2.25078-2.25076H330.379a2.25021,2.25021,0,0,1,2.25078,2.25076Z"/><rect class="ea0743d7-4b45-45b2-87b3-dc41e6ef2bff" x="291.45285" y="319.33602" width="1.1277" height="7.68236"/><rect class="ea0743d7-4b45-45b2-87b3-dc41e6ef2bff" x="296.18228" y="319.33602" width="1.12768" height="7.68236"/><rect class="ea0743d7-4b45-45b2-87b3-dc41e6ef2bff" x="300.9117" y="319.33602" width="1.12768" height="7.68236"/><rect class="ea0743d7-4b45-45b2-87b3-dc41e6ef2bff" x="305.64112" y="319.33602" width="1.1277" height="7.68236"/><rect class="ea0743d7-4b45-45b2-87b3-dc41e6ef2bff" x="310.37056" y="319.33602" width="1.12768" height="7.68236"/><rect class="ea0743d7-4b45-45b2-87b3-dc41e6ef2bff" x="315.09998" y="319.33602" width="1.1277" height="7.68236"/><rect class="ea0743d7-4b45-45b2-87b3-dc41e6ef2bff" x="319.82941" y="319.33602" width="1.12768" height="7.68236"/><rect class="ea0743d7-4b45-45b2-87b3-dc41e6ef2bff" x="324.55883" y="319.33602" width="1.12768" height="7.68236"/><rect class="ea0743d7-4b45-45b2-87b3-dc41e6ef2bff" x="329.28825" y="319.33602" width="1.1277" height="7.68236"/><path class="ea0743d7-4b45-45b2-87b3-dc41e6ef2bff" d="M332.09829,320.13372h-42.266a2.24735,2.24735,0,0,1,1.71928-.79784H330.379A2.24742,2.24742,0,0,1,332.09829,320.13372Z"/><path class="ea0743d7-4b45-45b2-87b3-dc41e6ef2bff" d="M332.09829,326.22054h-42.266a2.24735,2.24735,0,0,0,1.71928.79784H330.379A2.24742,2.24742,0,0,0,332.09829,326.22054Z"/><path class="aadc3628-b8fa-4531-baa0-f9e97f95276a" d="M327.78947,313.78851v3.18111a2.251,2.251,0,0,1-2.25078,2.25078H286.71147a2.251,2.251,0,0,1-2.25079-2.25078v-3.18111a2.25077,2.25077,0,0,1,2.25079-2.25093h38.82722a2.25073,2.25073,0,0,1,2.25078,2.25093Z"/><rect class="ea0743d7-4b45-45b2-87b3-dc41e6ef2bff" x="286.61256" y="311.53773" width="1.1277" height="7.68252"/><rect class="ea0743d7-4b45-45b2-87b3-dc41e6ef2bff" x="291.34199" y="311.53773" width="1.12768" height="7.68252"/><rect class="ea0743d7-4b45-45b2-87b3-dc41e6ef2bff" x="296.07141" y="311.53773" width="1.12784" height="7.68252"/><rect class="ea0743d7-4b45-45b2-87b3-dc41e6ef2bff" x="300.80084" y="311.53773" width="1.12784" height="7.68252"/><rect class="ea0743d7-4b45-45b2-87b3-dc41e6ef2bff" x="305.53026" y="311.53773" width="1.12784" height="7.68252"/><rect class="ea0743d7-4b45-45b2-87b3-dc41e6ef2bff" x="310.25984" y="311.53773" width="1.12768" height="7.68252"/><rect class="ea0743d7-4b45-45b2-87b3-dc41e6ef2bff" x="314.98926" y="311.53773" width="1.1277" height="7.68252"/><rect class="ea0743d7-4b45-45b2-87b3-dc41e6ef2bff" x="319.71869" y="311.53773" width="1.12768" height="7.68252"/><rect class="ea0743d7-4b45-45b2-87b3-dc41e6ef2bff" x="324.44811" y="311.53773" width="1.1277" height="7.68252"/><path class="ea0743d7-4b45-45b2-87b3-dc41e6ef2bff" d="M327.258,312.33574H284.99218a2.24636,2.24636,0,0,1,1.71929-.79816h38.82722A2.24643,2.24643,0,0,1,327.258,312.33574Z"/><path class="ea0743d7-4b45-45b2-87b3-dc41e6ef2bff" d="M327.258,318.42225H284.99218a2.24675,2.24675,0,0,0,1.71929.798h38.82722A2.24682,2.24682,0,0,0,327.258,318.42225Z"/><path class="aadc3628-b8fa-4531-baa0-f9e97f95276a" d="M332.55248,306.19555v3.18126a2.25115,2.25115,0,0,1-2.25077,2.25078h-38.8274a2.25125,2.25125,0,0,1-2.25076-2.25078v-3.18126a2.25023,2.25023,0,0,1,2.25076-2.25078h38.8274a2.25023,2.25023,0,0,1,2.25077,2.25078Z"/><rect class="ea0743d7-4b45-45b2-87b3-dc41e6ef2bff" x="291.37556" y="303.94507" width="1.1277" height="7.68222"/><rect class="ea0743d7-4b45-45b2-87b3-dc41e6ef2bff" x="296.105" y="303.94507" width="1.12768" height="7.68222"/><rect class="ea0743d7-4b45-45b2-87b3-dc41e6ef2bff" x="300.83442" y="303.94507" width="1.1277" height="7.68222"/><rect class="ea0743d7-4b45-45b2-87b3-dc41e6ef2bff" x="305.56385" y="303.94507" width="1.12768" height="7.68222"/><rect class="ea0743d7-4b45-45b2-87b3-dc41e6ef2bff" x="310.29327" y="303.94507" width="1.12768" height="7.68222"/><rect class="ea0743d7-4b45-45b2-87b3-dc41e6ef2bff" x="315.02269" y="303.94507" width="1.1277" height="7.68222"/><rect class="ea0743d7-4b45-45b2-87b3-dc41e6ef2bff" x="319.75212" y="303.94507" width="1.12768" height="7.68222"/><rect class="ea0743d7-4b45-45b2-87b3-dc41e6ef2bff" x="324.48154" y="303.94507" width="1.1277" height="7.68222"/><rect class="ea0743d7-4b45-45b2-87b3-dc41e6ef2bff" x="329.21098" y="303.94507" width="1.12768" height="7.68222"/><path class="ea0743d7-4b45-45b2-87b3-dc41e6ef2bff" d="M332.021,304.74261H289.755a2.24716,2.24716,0,0,1,1.71928-.79784h38.8274A2.24741,2.24741,0,0,1,332.021,304.74261Z"/><path class="ea0743d7-4b45-45b2-87b3-dc41e6ef2bff" d="M332.021,310.82928H289.755a2.24678,2.24678,0,0,0,1.71928.798h38.8274A2.247,2.247,0,0,0,332.021,310.82928Z"/><path class="aadc3628-b8fa-4531-baa0-f9e97f95276a" d="M330.86325,298.48941v3.18128a2.25092,2.25092,0,0,1-2.25063,2.25076H289.78508a2.25106,2.25106,0,0,1-2.25078-2.25076v-3.18128a2.25052,2.25052,0,0,1,2.25078-2.25078h38.82754a2.25048,2.25048,0,0,1,2.25063,2.25078Z"/><rect class="ea0743d7-4b45-45b2-87b3-dc41e6ef2bff" x="289.68633" y="296.23895" width="1.1277" height="7.6825"/><rect class="ea0743d7-4b45-45b2-87b3-dc41e6ef2bff" x="294.41577" y="296.23895" width="1.12768" height="7.6825"/><rect class="ea0743d7-4b45-45b2-87b3-dc41e6ef2bff" x="299.14518" y="296.23895" width="1.12768" height="7.6825"/><rect class="ea0743d7-4b45-45b2-87b3-dc41e6ef2bff" x="303.8746" y="296.23895" width="1.1277" height="7.6825"/><rect class="ea0743d7-4b45-45b2-87b3-dc41e6ef2bff" x="308.60404" y="296.23895" width="1.12768" height="7.6825"/><rect class="ea0743d7-4b45-45b2-87b3-dc41e6ef2bff" x="313.33346" y="296.23895" width="1.1277" height="7.6825"/><rect class="ea0743d7-4b45-45b2-87b3-dc41e6ef2bff" x="318.06289" y="296.23895" width="1.12768" height="7.6825"/><rect class="ea0743d7-4b45-45b2-87b3-dc41e6ef2bff" x="322.79231" y="296.23895" width="1.12768" height="7.6825"/><rect class="ea0743d7-4b45-45b2-87b3-dc41e6ef2bff" x="327.52173" y="296.23895" width="1.1277" height="7.6825"/><path class="ea0743d7-4b45-45b2-87b3-dc41e6ef2bff" d="M330.33177,297.03663h-42.266a2.24706,2.24706,0,0,1,1.71928-.798h38.82754A2.24705,2.24705,0,0,1,330.33177,297.03663Z"/><path class="ea0743d7-4b45-45b2-87b3-dc41e6ef2bff" d="M330.33177,303.12346h-42.266a2.248,2.248,0,0,0,1.71928.798h38.82754A2.248,2.248,0,0,0,330.33177,303.12346Z"/><path class="aadc3628-b8fa-4531-baa0-f9e97f95276a" d="M333.18349,290.84937v3.18127a2.251,2.251,0,0,1-2.25078,2.25078H292.10549a2.25106,2.25106,0,0,1-2.25078-2.25078v-3.18127a2.25,2.25,0,0,1,2.25078-2.25062h38.82722a2.25,2.25,0,0,1,2.25078,2.25062Z"/><rect class="ea0743d7-4b45-45b2-87b3-dc41e6ef2bff" x="292.00658" y="288.59875" width="1.12784" height="7.68252"/><rect class="ea0743d7-4b45-45b2-87b3-dc41e6ef2bff" x="296.73615" y="288.59875" width="1.12768" height="7.68252"/><rect class="ea0743d7-4b45-45b2-87b3-dc41e6ef2bff" x="301.46557" y="288.59875" width="1.1277" height="7.68252"/><rect class="ea0743d7-4b45-45b2-87b3-dc41e6ef2bff" x="306.19501" y="288.59875" width="1.12768" height="7.68252"/><rect class="ea0743d7-4b45-45b2-87b3-dc41e6ef2bff" x="310.92443" y="288.59875" width="1.1277" height="7.68252"/><rect class="ea0743d7-4b45-45b2-87b3-dc41e6ef2bff" x="315.65386" y="288.59875" width="1.12768" height="7.68252"/><rect class="ea0743d7-4b45-45b2-87b3-dc41e6ef2bff" x="320.38328" y="288.59875" width="1.1277" height="7.68252"/><rect class="ea0743d7-4b45-45b2-87b3-dc41e6ef2bff" x="325.11272" y="288.59875" width="1.12768" height="7.68252"/><rect class="ea0743d7-4b45-45b2-87b3-dc41e6ef2bff" x="329.84213" y="288.59875" width="1.12768" height="7.68252"/><path class="ea0743d7-4b45-45b2-87b3-dc41e6ef2bff" d="M332.652,289.39644H290.3862a2.247,2.247,0,0,1,1.71929-.79769h38.82722A2.247,2.247,0,0,1,332.652,289.39644Z"/><path class="ea0743d7-4b45-45b2-87b3-dc41e6ef2bff" d="M332.652,295.48327H290.3862a2.2468,2.2468,0,0,0,1.71929.798h38.82722A2.2468,2.2468,0,0,0,332.652,295.48327Z"/><circle class="ea0743d7-4b45-45b2-87b3-dc41e6ef2bff" cx="288.66944" cy="327.08418" r="23.1718" transform="translate(-87.91318 106.85785) rotate(-18.25067)"/><path class="aadc3628-b8fa-4531-baa0-f9e97f95276a" d="M306.78231,332.93377a19.04124,19.04124,0,0,1-31.23335,7.94535,19.361,19.361,0,0,1-1.35585-1.43284,19.03853,19.03853,0,0,1,26.22912-27.33934,18.68549,18.68549,0,0,1,1.48529,1.29544,19.06705,19.06705,0,0,1,4.87479,19.53139Z"/><path class="afb31a13-4388-4920-bd39-047e22449afd" d="M300.42223,312.10694l-26.22912,27.33934a19.07433,19.07433,0,0,1-4.53576-13.36129l17.226-17.95547a19.10148,19.10148,0,0,1,13.53887,3.97742Z"/><path class="afb31a13-4388-4920-bd39-047e22449afd" d="M305.15074,317.56506,279.84,343.94814a18.87535,18.87535,0,0,1-4.291-3.069l26.35856-27.47674A19.00879,19.00879,0,0,1,305.15074,317.56506Z"/><path class="b27af6a1-4a70-47b1-85d1-14d7500a9cda" d="M289.94625,308.99284c-2.24878-.23615-2.65943-.01457-3.66905,1.98.25086-2.2215.02913-2.63215-1.98-3.66921,2.24863.23615,2.6593.01441,3.6689-1.98C287.73028,307.57226,287.9517,307.98322,289.94625,308.99284Z"/><path class="b27af6a1-4a70-47b1-85d1-14d7500a9cda" d="M281.98817,344.74338c-1.89748-.19934-2.244-.01226-3.096,1.67068.21162-1.87432.02454-2.22087-1.67083-3.096,1.89748.19919,2.244.01211,3.096-1.67084C280.11816,343.54485,280.30523,343.8914,281.98817,344.74338Z"/><path class="e58d96b1-5f87-44ea-b8a5-8afc00996758" d="M303.68877,250.1581a25.432,25.432,0,1,1,25.43173-25.432A25.46084,25.46084,0,0,1,303.68877,250.1581Zm0-49.60775a24.17578,24.17578,0,1,0,24.17554,24.17578A24.20315,24.20315,0,0,0,303.68877,200.55035Z"/><path class="e58d96b1-5f87-44ea-b8a5-8afc00996758" d="M303.68877,239.15983a3.37613,3.37613,0,0,1-3.376-3.376V189.12058a3.376,3.376,0,1,1,6.752,0v46.66323A3.37614,3.37614,0,0,1,303.68877,239.15983Z"/><path class="e58d96b1-5f87-44ea-b8a5-8afc00996758" d="M303.68877,250.1581a25.432,25.432,0,1,1,25.43173-25.432A25.46084,25.46084,0,0,1,303.68877,250.1581Zm0-49.60775a24.17578,24.17578,0,1,0,24.17554,24.17578A24.20315,24.20315,0,0,0,303.68877,200.55035Z"/><path class="e58d96b1-5f87-44ea-b8a5-8afc00996758" d="M303.68877,239.15983a3.37613,3.37613,0,0,1-3.376-3.376V189.12058a3.376,3.376,0,1,1,6.752,0v46.66323A3.37614,3.37614,0,0,1,303.68877,239.15983Z"/><path class="e58d96b1-5f87-44ea-b8a5-8afc00996758" d="M303.92061,241.93166c-.04354,0-.0874-.00091-.13126-.00245a3.37669,3.37669,0,0,1-2.5981-1.38638L287.1715,222.57977a3.37606,3.37606,0,1,1,5.45842-3.97451l11.502,14.50547,10.77821-14.71117a3.376,3.376,0,1,1,5.13349,4.386l-13.55634,17.96321A3.37722,3.37722,0,0,1,303.92061,241.93166Z"/><path class="e58d96b1-5f87-44ea-b8a5-8afc00996758" d="M135.15187,247.57226a25.43189,25.43189,0,1,1,25.432-25.43189A25.46066,25.46066,0,0,1,135.15187,247.57226Zm0-49.60759a24.1757,24.1757,0,1,0,24.17578,24.1757A24.20312,24.20312,0,0,0,135.15187,197.96467Z"/><circle class="e58d96b1-5f87-44ea-b8a5-8afc00996758" cx="135.15187" cy="222.14043" r="18.40458" transform="translate(-124.08246 201.893) rotate(-54.21736)"/><path class="f55c60a0-b375-43ca-b82b-b5b63a6b3f4f" d="M149.09173,229.86505a15.90138,15.90138,0,0,1-27.87994,0,16.03835,16.03835,0,0,1,7.61244-6.85852,8.54769,8.54769,0,1,1,12.65514,0A16.03849,16.03849,0,0,1,149.09173,229.86505Z"/><path class="ea0743d7-4b45-45b2-87b3-dc41e6ef2bff" d="M330.21813,265.74778l-10.67026-5.73843q-.45177.8391-.90289,1.67851h0c-.4361.81119,1.61226,2.76048,4.57547,4.354,2.9629,1.59338,5.71864,2.22778,6.1549,1.41659C329.41553,267.38381,330.21813,265.74778,330.21813,265.74778Z"/><path class="aadc3628-b8fa-4531-baa0-f9e97f95276a" d="M330.22964,265.86985c-.43628.81118-3.19186.177-6.15492-1.41659s-5.01141-3.54286-4.57531-4.354,3.192-.17681,6.15491,1.41657C328.61754,263.10935,330.6659,265.0588,330.22964,265.86985Z"/><path class="ea0743d7-4b45-45b2-87b3-dc41e6ef2bff" d="M282.80243,287.31311l-10.79922,1.75394q.13776.84922.27586,1.69875h0c.13341.82084,2.67247,1.09151,5.67126.60448,2.99894-.487,5.322-1.54739,5.18854-2.36823C283.12659,288.92644,282.80243,287.31311,282.80243,287.31311Z"/><path class="aadc3628-b8fa-4531-baa0-f9e97f95276a" d="M282.87787,287.39423c.13326.82086-2.18975,1.88123-5.18853,2.36824-2.999.48718-5.53817.21637-5.67126-.60448-.13341-.82085,2.18945-1.88107,5.18838-2.3684C280.2054,286.30273,282.74446,286.57339,282.87787,287.39423Z"/><path class="ea0743d7-4b45-45b2-87b3-dc41e6ef2bff" d="M295.70476,268.3675l-9.81491-4.834q-.38.77193-.76028,1.54386h0c-.36756.74617,1.544,2.43909,4.26939,3.78161,2.72554,1.34237,5.233,1.82586,5.60043,1.0797C295.03312,269.87013,295.70476,268.3675,295.70476,268.3675Z"/><path class="aadc3628-b8fa-4531-baa0-f9e97f95276a" d="M295.719,268.47761c-.36758.74586-2.87473.26253-5.60027-1.07986s-4.63711-3.03543-4.26954-3.78145c.36756-.74617,2.87473-.26267,5.60025,1.0797C294.175,266.03821,296.08659,267.73143,295.719,268.47761Z"/><path class="ea0743d7-4b45-45b2-87b3-dc41e6ef2bff" d="M281.07424,250.1328l-11.30372,1.83583q.14421.88925.28875,1.77817h0c.13954.85919,2.79728,1.14241,5.93624.6327s5.57052-1.61963,5.431-2.47895C281.4136,251.82142,281.07424,250.1328,281.07424,250.1328Z"/><path class="aadc3628-b8fa-4531-baa0-f9e97f95276a" d="M281.15307,250.21775c.13953.85933-2.29187,1.96908-5.43083,2.47895-3.13894.50972-5.79669.22649-5.93624-.63269-.13953-.85935,2.29189-1.96924,5.43083-2.47895S281.01352,249.35841,281.15307,250.21775Z"/><path class="e58d96b1-5f87-44ea-b8a5-8afc00996758" d="M107.53166,262.57173H161.583A12.76422,12.76422,0,0,1,174.34721,275.336v0a12.7644,12.7644,0,0,1-12.7644,12.7644H107.53166a12.76422,12.76422,0,0,1-12.76422-12.76422V275.336a12.76422,12.76422,0,0,1,12.76422-12.76422Z"/><path class="ea0743d7-4b45-45b2-87b3-dc41e6ef2bff" d="M119.48759,271.74505v7.18215a3.50418,3.50418,0,0,1-3.50474,3.50484H102.40028a3.50438,3.50438,0,0,1-3.50322-3.50484v-7.18215a3.5038,3.5038,0,0,1,3.50322-3.50482h13.58257a3.50838,3.50838,0,0,1,3.50474,3.50482Z"/><path class="f55c60a0-b375-43ca-b82b-b5b63a6b3f4f" d="M147.173,278.25772H124.63465a2.92168,2.92168,0,0,1-2.92157-2.92167h0a2.92144,2.92144,0,0,1,2.92157-2.92149H147.173a2.9215,2.9215,0,0,1,2.92165,2.92149h0A2.92175,2.92175,0,0,1,147.173,278.25772Z"/><path class="e9287d65-f91b-4370-91b6-91a50ee14977" d="M167.29647,278.25772H156.0024a2.92169,2.92169,0,0,1-2.92158-2.92167h0a2.92144,2.92144,0,0,1,2.92158-2.92149h11.29407a2.9214,2.9214,0,0,1,2.92158,2.92149h0A2.92164,2.92164,0,0,1,167.29647,278.25772Z"/><path class="aadc3628-b8fa-4531-baa0-f9e97f95276a" d="M118.08856,268.94515,100.46892,281.851a3.50026,3.50026,0,0,1-1.57186-2.92382v-7.18215a3.5038,3.5038,0,0,1,3.50322-3.50482h13.58257A3.48161,3.48161,0,0,1,118.08856,268.94515Z"/><path class="a87db13e-917f-4907-9caa-4f340f4de41e" d="M114.93052,278.39312a2.35666,2.35666,0,1,1-2.35666-2.35659A2.35681,2.35681,0,0,1,114.93052,278.39312Z"/><path class="f55c60a0-b375-43ca-b82b-b5b63a6b3f4f" d="M117.72905,278.39312a2.3567,2.3567,0,1,1-2.35666-2.35659A2.35682,2.35682,0,0,1,117.72905,278.39312Z"/><path class="f0ee91e9-f531-4e31-8050-7503724043c0" d="M367.33374,246.23035c1.37-4.28917,1.03446-8.45-1.97492-11.25113-3.05045-2.83916-7.94029-1.94854-7.94029-1.94854h0c-.0003-.00031-3.42186-2.23022-7.71042.69-4.28872,2.92059-2.51361,6.82411-4.55537,9.215-1.20928,1.416-5.46656.74464-5.65026,6.25872-.05276,1.59064,1.52455,3.04832,3.04418,3.52092,2.6697.8299,5.627.28859,6.29505,1.701,2.29679,4.85593,11.12264,5.0056,13.0057,2.11508.58394-.89645,7.351,2.73579,8.23425-4.11238C370.52942,248.949,366.1096,250.063,367.33374,246.23035Z"/><path class="adc27bd0-e348-444b-bf2b-9ab4aa92497a" d="M349.85716,244.54418c-.55541,5.27979,2.356,9.91383,6.50269,10.34993,4.147.43642,7.95885-3.49009,8.51426-8.77.55556-5.27993-2.35582-9.91367-6.50269-10.35009C354.2247,235.33774,350.41272,239.26441,349.85716,244.54418Z"/><path d="M362.63038,246.76935a.72521.72521,0,1,0,.63147-.80811A.72519.72519,0,0,0,362.63038,246.76935Z"/><path d="M356.79229,246.19554a.785.785,0,1,0,.68329-.875A.78479.78479,0,0,0,356.79229,246.19554Z"/><path class="f0ee91e9-f531-4e31-8050-7503724043c0" d="M356.19072,245.29326a.27271.27271,0,0,0,.16178-.08,2.079,2.079,0,0,1,1.72173-.46863.273.273,0,0,0,.10734-.53532,2.5961,2.5961,0,0,0-2.2195.62243.27287.27287,0,0,0,.22865.46155Z"/><path class="f0ee91e9-f531-4e31-8050-7503724043c0" d="M364.47189,246.30564a.2759.2759,0,0,0,.08588-.02545.27311.27311,0,0,0,.12649-.3648,1.9172,1.9172,0,0,0-1.638-1.074.273.273,0,0,0-.00552.54591,1.36866,1.36866,0,0,1,1.15222.7664A.27339.27339,0,0,0,364.47189,246.30564Z"/><path class="ba6bfbc6-9431-4378-983f-fb1ab6862cb1" d="M361.66524,248.10054a7.25274,7.25274,0,0,0,.70537,1.38484.28745.28745,0,0,1-.03833.39256,3.94663,3.94663,0,0,1-2.06048.57136.07672.07672,0,0,1-.03312-.14782,3.724,3.724,0,0,0,1.18856-.68361.34286.34286,0,0,0,.1026-.29319c-.03236-.24965-.09308-.7569-.111-1.16557A.12915.12915,0,0,1,361.66524,248.10054Z"/><path class="b27af6a1-4a70-47b1-85d1-14d7500a9cda" d="M356.06667,250.48763a.21742.21742,0,0,1,.30376-.26022,15.43234,15.43234,0,0,0,3.86411,1.36614.21753.21753,0,0,1,.07268.39348,2.71578,2.71578,0,0,1-4.24055-1.4994Z"/><path class="f0ee91e9-f531-4e31-8050-7503724043c0" d="M349.91513,244.08031c4.77941,1.00227,12.80817-1.38944,14.1754-3.59038.13064-3.178-4.063-6.28125-7.18784-5.89238S349.25728,239.79037,349.91513,244.08031Z"/><path class="ba6bfbc6-9431-4378-983f-fb1ab6862cb1" d="M363.98318,258.35263c4.91881,1.22767,13.326,12.72077,14.11314,21.33823-2.69885.55878-5.78259-1.59277-5.78259-1.59277l-6.68227-9.61144Z"/><path class="adc27bd0-e348-444b-bf2b-9ab4aa92497a" d="M368.7396,356.94708l2.63443-10.3763-6.53642-.89967c-.22419,4.90731-.59129,9.73886-.5591,11.0475Z"/><path class="adc27bd0-e348-444b-bf2b-9ab4aa92497a" d="M353.14255,345.61162h-6.82487c.22434,1.63556,1.11941,10.49145,1.11941,10.49145.57673,1.30864,5.66267,1.00994,5.66267.27389C352.71534,354.78217,353.1105,345.81587,353.14255,345.61162Z"/><path class="a3c57ca6-a82d-4517-bcf5-9ff59da9cd39" d="M364.30213,349.66709l6.73056.99382,4.667-27.90946c-.96131-10.59175-10.28522-33.12439-10.28522-33.12439l-10.50972,3.68025-.25623,9.93745,12.65638,21.42869C365.65508,328.81772,364.52647,342.21627,364.30213,349.66709Z"/><path class="a87db13e-917f-4907-9caa-4f340f4de41e" d="M359.0998,290.37354c-.09614-.65446-.12819-.85887-.67288-1.18595L348.33385,286.325l-2.40305,2.37177c-2.275,8.26078-.86517,19.752.9291,28.87139-2.62739,7.89292-1.59968,24.16359-.54222,31.81085h7.17741c.41647-5.11187.28583-14.59418.31788-19.17426h0c.92911-3.68054,1.82632-7.60646,2.62738-11.73677,1.02542-5.27532,2.30706-10.38719,2.65945-15.17182A75.40454,75.40454,0,0,0,359.0998,290.37354Z"/><path class="adc27bd0-e348-444b-bf2b-9ab4aa92497a" d="M346.36859,257.09353c-2.37284,1.55658-12.3736,14.56841-6.86243,25.28468.25486.14168,4.66931-7.3378,4.66931-7.3378l5.21016-10.31481Z"/><path class="adc27bd0-e348-444b-bf2b-9ab4aa92497a" d="M351.39,250.32448l6.26593,3.55849s.556,2.53691.83356,3.36006c.57259,1.69875-1.62176,2.44092-3.4766,1.38362a12.62183,12.62183,0,0,1-3.056-2.472Z"/><path class="b46820f3-d9fa-4c3c-99b8-59a18ec0619d" d="M366.974,291.2752a39.7873,39.7873,0,0,1-3.02224,3.29077l-2.31565-2.52834-.01641.0434-.54913,1.44649-.64219,1.68985c-.53732,0-16.68441-3.61645-16.68441-3.61645.03312-1.45585,1.40172-6.17087,3.61677-11.19042-.53732-4.2513-.02117-8.67066-.18923-11.12125,1.304-6.57429.3737-9.09834-.80291-12.19572l4.09689-1.20943,7.37414,2.60041.54775-1.77818a46.18346,46.18346,0,0,1,5.59581,1.6463l1.7469,7.29-.37831,15.48832A78.23186,78.23186,0,0,0,366.974,291.2752Z"/><path class="be34c2ed-1000-4166-9175-92827e01848b" d="M351.88958,255.06371l-2.889,1.22707c.30485,3.46939,8.068,5.54275,8.068,5.54275l.77071-3.34872Z"/><path class="be34c2ed-1000-4166-9175-92827e01848b" d="M357.83931,258.48481l2.28589,2.53967s1.97646-2.04421,1.26095-3.30761c-.7152-1.26356-3.33506-2.11584-3.33506-2.11584Z"/><path class="aba24d67-dae3-447c-b75b-a57deecd2da5" d="M367.14941,356.77963a2.94423,2.94423,0,0,1,2.145-1.99438c2.84039,3.7885,9.81583,1.46381,9.5849,6.58825-10.60739-.06577-15.016,0-15.016,0a36.4143,36.4143,0,0,1,.4683-5.06417l.55281.09829Z"/><path class="aba24d67-dae3-447c-b75b-a57deecd2da5" d="M363.86327,361.23243h15.02155a0,0,0,0,1,0,0v0a1.509,1.509,0,0,1-1.509,1.509H365.37231a1.509,1.509,0,0,1-1.509-1.509v0A0,0,0,0,1,363.86327,361.23243Z"/><path class="be34c2ed-1000-4166-9175-92827e01848b" d="M361.61969,292.081l-.54913,1.44649c-.49836-3.32832-2.35459-17.2573-1.3071-21.10346.98294-3.61216-.24626-7.42061-1.43621-11.1033-.28951-.90044-.59129-1.83062-.84922-2.7326l.36159-.10365.3602-.10335c.255.88985.55373,1.814.84171,2.70866,1.22306,3.78759,2.48662,7.70428,1.44511,11.53235C359.5833,275.94161,360.96845,287.3766,361.61969,292.081Z"/><path class="aba24d67-dae3-447c-b75b-a57deecd2da5" d="M354.31547,361.42319s-.85166-3.177-.92666-3.58488c-.0854-.46432-.33565-1.56133-.38657-2.12395a4.60062,4.60062,0,0,0-2.5912-1.03094,4.53312,4.53312,0,0,0-2.91829,1.044,33.46425,33.46425,0,0,1-.47306,3.339c-.215.76794-.79954,2.55762-.79954,2.55762Z"/><path class="aba24d67-dae3-447c-b75b-a57deecd2da5" d="M354.31532,361.1763c-.19858.63056-2.647-.09706-4.43362-.09645-1.5.00046-3.441.58164-3.66155.3553a3.747,3.747,0,0,0-.06623,2.03563s1.56333.08082,3.43826,0a37.32129,37.32129,0,0,0,4.85778-.20363A2.472,2.472,0,0,0,354.31532,361.1763Z"/><path class="adc27bd0-e348-444b-bf2b-9ab4aa92497a" d="M357.4492,271.67543s-12.922,12.95386-17.943,10.70278c-1.65519-2.23759,1.85976-6.72811,5.15173-8.23271,3.2788-1.49848,8.7823-3.86028,8.7823-3.86028Z"/><path class="a1277e31-d96a-4a7c-ab5f-c694c2d6be2f" d="M359.89687,267.27509l5.36934-4.143a.53031.53031,0,0,1,.41035-.10151l3.65709.66336c.10442.01763.31833.6557.234.7198l-3.65111,2.194a.11978.11978,0,0,1-.05981.02392l-5.7401.98478C359.995,267.62977,359.7995,267.3493,359.89687,267.27509Z"/><path class="e6c90260-aca2-412c-ab77-843f6cb748bb" d="M360.17305,267.67193l5.10619-3.89768a.5302.5302,0,0,1,.41035-.10151l3.77869.63868a.12087.12087,0,0,1,.0529.21543l-3.59145,2.72308a.119.119,0,0,1-.05981.02393l-5.61039.61429A.12087.12087,0,0,1,360.17305,267.67193Z"/><path class="adc27bd0-e348-444b-bf2b-9ab4aa92497a" d="M353.30019,270.35546l3.017-1.51106s1.91249-2.082,2.51146-2.70406c.764-.22219,2.25078-.86379,2.55408-.842a4.23819,4.23819,0,0,1,.81534.201l-1.74613,1.36629a2.289,2.289,0,0,0,1.71009-.07055c.99858-.39929,2.8597-1.62375,3.57628-1.18441l.22849.29333s.62963-.48716,1.00807-.1492c1.17063,1.04413-6.38032,5.54354-6.38032,5.54354l-3.14539.37706Z"/><path class="a1277e31-d96a-4a7c-ab5f-c694c2d6be2f" d="M365.83511,264.61089a.37266.37266,0,1,1,.18125-.56093A.42364.42364,0,0,1,365.83511,264.61089Z"/><path class="ba6bfbc6-9431-4378-983f-fb1ab6862cb1" d="M378.09632,279.69086s-6.69867,7.66-11.36123,8.74227c-.2774-1.535-.53242-2.7108-.53242-2.7108l6.35641-8.368Z"/><path id="e8755407-2b7e-4a7b-8395-427b902c9948" data-name="c" class="ba6bfbc6-9431-4378-983f-fb1ab6862cb1" d="M365.88771,288.85407a.65006.65006,0,0,1,.09615-.178l-.03359-.0095c-.66182-.21989-1.07034-.78267-.91239-1.25743a.66446.66446,0,0,1,.11746-.21038.93319.93319,0,0,1-.415-.994.70181.70181,0,0,1,.24566-.33458.93292.93292,0,0,1-.43044-1.04413,1.094,1.094,0,0,1,2.04545.67916.77886.77886,0,0,1-.195.311,1.06315,1.06315,0,0,1,.73052,1.18412.66562.66562,0,0,1-.11746.21054.933.933,0,0,1,.41494.99413.69251.69251,0,0,1-.22142.31559.79735.79735,0,0,1,.40267.90717.924.924,0,0,1-1.72756-.57365Z"/><path class="adc27bd0-e348-444b-bf2b-9ab4aa92497a" d="M351.42311,244.86605a2.17891,2.17891,0,1,1-3.20627-1.04534A2.40888,2.40888,0,0,1,351.42311,244.86605Z"/><path class="ba6bfbc6-9431-4378-983f-fb1ab6862cb1" d="M349.80656,247.4959a.314.314,0,0,0,.1357-.05045,1.425,1.425,0,0,0,.68576-1.61027,1.51832,1.51832,0,0,0-1.37825-1.093.31519.31519,0,0,0-.013.63025.89929.89929,0,0,1,.786.63852.80675.80675,0,0,1-.42937.90949.31534.31534,0,0,0,.21316.57549Z"/><path class="b27af6a1-4a70-47b1-85d1-14d7500a9cda" d="M45.62379,294.38305a11.60732,11.60732,0,1,1-15.75307-4.61534A11.60739,11.60739,0,0,1,45.62379,294.38305Z"/><path class="b27af6a1-4a70-47b1-85d1-14d7500a9cda" d="M412.59008,258.69968a11.60735,11.60735,0,1,1-5.49369-15.46869A11.60772,11.60772,0,0,1,412.59008,258.69968Z"/><path class="ffd4c049-902c-4e08-a633-d5f46ef235b7" d="M374.465,142.526a11.60737,11.60737,0,1,1-15.30139-5.94374A11.60759,11.60759,0,0,1,374.465,142.526Z"/><path class="ffd4c049-902c-4e08-a633-d5f46ef235b7" d="M15.5488,213.69488l7.66266-14.29407s9.348.79938,13.63854,11.63134c2.65968,6.71439,11.68686,10.198,11.68686,10.198l-7.70338,14.36992s-11.784-3.154-14.69477-10.88081A20.00086,20.00086,0,0,0,15.5488,213.69488Z"/><path class="e58d96b1-5f87-44ea-b8a5-8afc00996758" d="M36.55045,222.41218c-2.54038,2.13546-6.61931,1.46388-9.11061-1.49979-2.49123-2.96382-2.45144-7.09759.08894-9.23281,2.54037-2.13547,6.61938-1.46391,9.11061,1.49984C39.13068,216.14325,39.09081,220.277,36.55045,222.41218Z"/><path class="ffd4c049-902c-4e08-a633-d5f46ef235b7" d="M319.46015,120.90718l-10.78526-12.11284s3.96684-8.50216,15.61375-8.80416c7.21942-.18716,13.59637-7.46454,13.59637-7.46454l10.842,12.17679s-7.01562,9.97953-15.27211,10.05428A19.99988,19.99988,0,0,0,319.46015,120.90718Z"/><path class="e58d96b1-5f87-44ea-b8a5-8afc00996758" d="M334.87089,104.18689c1.13106,3.11985-.90289,6.71868-4.543,8.0382-3.63991,1.31944-7.50755-.14-8.63845-3.25994-1.13108-3.12.90289-6.71882,4.54279-8.03836S333.73983,101.06688,334.87089,104.18689Z"/><path class="ffd4c049-902c-4e08-a633-d5f46ef235b7" d="M390.30509,302.51132l1.76083-13.11533s7.37108-2.06631,13.75125,4.98105c3.95474,4.36815,11.84948,4.44451,11.84948,4.44451l-1.7702,13.1848s-9.90661.96514-14.3433-4.10486A16.31957,16.31957,0,0,0,390.30509,302.51132Z"/><path class="e58d96b1-5f87-44ea-b8a5-8afc00996758" d="M408.84724,303.1572c-1.32933,2.359-4.638,3.01412-7.39024,1.4632-2.75206-1.55091-3.90535-4.72053-2.57618-7.07957,1.32949-2.35905,4.63819-3.01412,7.39025-1.46289C409.02328,297.62869,410.17673,300.79831,408.84724,303.1572Z"/><path class="ffd4c049-902c-4e08-a633-d5f46ef235b7" d="M220.76549,181.7265l-1.81865-13.54508s-7.61244-2.13393-14.20154,5.14406c-4.0844,4.51138-12.23768,4.59027-12.23768,4.59027l1.82833,13.61676s10.23092.99667,14.813-4.23927A16.85381,16.85381,0,0,1,220.76549,181.7265Z"/><path class="e58d96b1-5f87-44ea-b8a5-8afc00996758" d="M201.61594,182.39339c1.37287,2.43632,4.79,3.1128,7.63228,1.51112,2.84231-1.60175,4.03334-4.87526,2.66052-7.3115-1.373-2.43617-4.79007-3.11272-7.6323-1.511C201.43415,176.68378,200.243,179.95721,201.61594,182.39339Z"/><path class="e58d96b1-5f87-44ea-b8a5-8afc00996758" d="M107.53159,293.503h54.05147a12.76415,12.76415,0,0,1,12.76415,12.76415v0a12.76433,12.76433,0,0,1-12.76433,12.76433H107.53159a12.76415,12.76415,0,0,1-12.76415-12.76415v-.00021A12.76415,12.76415,0,0,1,107.53159,293.503Z"/><path class="a2183d37-c062-4190-a364-762e5da27e2c" d="M119.48759,302.676v7.18231a3.50416,3.50416,0,0,1-3.50474,3.50482H102.40028a3.504,3.504,0,0,1-3.50322-3.50482V302.676a3.50364,3.50364,0,0,1,3.50322-3.50452h13.58257a3.50808,3.50808,0,0,1,3.50474,3.50452Z"/><path class="f55c60a0-b375-43ca-b82b-b5b63a6b3f4f" d="M147.173,309.18882H124.63465a2.92154,2.92154,0,0,1-2.92157-2.92151h0a2.92169,2.92169,0,0,1,2.92157-2.9218H147.173a2.92176,2.92176,0,0,1,2.92165,2.9218h0A2.9216,2.9216,0,0,1,147.173,309.18882Z"/><path class="e9287d65-f91b-4370-91b6-91a50ee14977" d="M167.29647,309.18882H156.0024a2.92154,2.92154,0,0,1-2.92158-2.92151h0a2.9217,2.9217,0,0,1,2.92158-2.9218h11.29407a2.92165,2.92165,0,0,1,2.92158,2.9218h0A2.9215,2.9215,0,0,1,167.29647,309.18882Z"/><path class="a87db13e-917f-4907-9caa-4f340f4de41e" d="M118.08856,299.87625l-17.61964,12.906a3.50051,3.50051,0,0,1-1.57186-2.924V302.676a3.50364,3.50364,0,0,1,3.50322-3.50452h13.58257A3.48149,3.48149,0,0,1,118.08856,299.87625Z"/><circle class="ac1e7352-30f6-4aa0-a1ee-ff00503b198d" cx="112.57386" cy="309.32437" r="2.35666" transform="translate(-9.03755 3.44023) rotate(-1.68325)"/><path class="f55c60a0-b375-43ca-b82b-b5b63a6b3f4f" d="M117.72905,309.32436a2.3567,2.3567,0,1,1-2.35666-2.35658A2.35657,2.35657,0,0,1,117.72905,309.32436Z"/><path class="e58d96b1-5f87-44ea-b8a5-8afc00996758" d="M107.53161,324.43424H161.583a12.76416,12.76416,0,0,1,12.76416,12.76416v.00021a12.764,12.764,0,0,1-12.764,12.764H107.53161a12.76416,12.76416,0,0,1-12.76416-12.76416v0a12.76416,12.76416,0,0,1,12.76416-12.76416Z"/><path class="ea0743d7-4b45-45b2-87b3-dc41e6ef2bff" d="M119.48759,333.60726v7.18231a3.504,3.504,0,0,1-3.50474,3.50466H102.40028a3.504,3.504,0,0,1-3.50322-3.50466v-7.18231a3.5039,3.5039,0,0,1,3.50322-3.50482h13.58257a3.50868,3.50868,0,0,1,3.50474,3.50482Z"/><path class="f55c60a0-b375-43ca-b82b-b5b63a6b3f4f" d="M147.173,340.12007H124.63465a2.92156,2.92156,0,0,1-2.92157-2.92165h0a2.92158,2.92158,0,0,1,2.92157-2.92167H147.173a2.92164,2.92164,0,0,1,2.92165,2.92167h0A2.92163,2.92163,0,0,1,147.173,340.12007Z"/><path class="e9287d65-f91b-4370-91b6-91a50ee14977" d="M167.29647,340.12007H156.0024a2.92157,2.92157,0,0,1-2.92158-2.92165h0a2.92159,2.92159,0,0,1,2.92158-2.92167h11.29407a2.92154,2.92154,0,0,1,2.92158,2.92167h0A2.92152,2.92152,0,0,1,167.29647,340.12007Z"/><path class="aadc3628-b8fa-4531-baa0-f9e97f95276a" d="M118.08856,330.80751l-17.61964,12.90586a3.50043,3.50043,0,0,1-1.57186-2.9238v-7.18231a3.5039,3.5039,0,0,1,3.50322-3.50482h13.58257A3.48077,3.48077,0,0,1,118.08856,330.80751Z"/><path class="a87db13e-917f-4907-9caa-4f340f4de41e" d="M114.93052,340.25547a2.35666,2.35666,0,1,1-2.35666-2.35659A2.35668,2.35668,0,0,1,114.93052,340.25547Z"/><path class="f55c60a0-b375-43ca-b82b-b5b63a6b3f4f" d="M117.72905,340.25547a2.3567,2.3567,0,1,1-2.35666-2.35659A2.35669,2.35669,0,0,1,117.72905,340.25547Z"/><path class="ea0743d7-4b45-45b2-87b3-dc41e6ef2bff" d="M134.75122,147.49313c-1.10172,1.10178-2.16755,2.16772-3.23344,3.2336-.5686.5686-.76206.5673-1.33854-.00893-.63669-.63642-1.27529-1.27094-1.9092-1.91011-.38458-.38776-.38823-.66417-.00045-1.05305q2.97258-2.981,5.95225-5.95493c.38674-.38613.66537-.38921,1.05208-.00342q2.98033,2.97322,5.95281,5.95433c.38795.389.38813.66991.00634,1.05589q-1.01938,1.03059-2.04966,2.05038c-.39474.39135-.684.38705-1.08544-.01368C136.9932,149.74038,135.89126,148.6347,134.75122,147.49313Zm.00862-4.43974-5.20625,5.20591,1.37558,1.37979c1.05021-1.05316,2.13366-2.14069,3.21839-3.227.47726-.47793.72273-.4805,1.19292-.01111q1.50366,1.5011,3.005,3.00453c.09874.09865.20239.19238.26538.252l1.38883-1.3724Z"/><path class="ea0743d7-4b45-45b2-87b3-dc41e6ef2bff" d="M134.76509,156.80354c1.11854-1.1225,2.20165-2.2107,3.28632-3.29735.47106-.47193.72191-.47063,1.19736.00337q.98451.98151,1.966,1.966c.40359.40657.40709.6794.00368,1.08382q-2.95945,2.96678-5.92514,5.9273c-.40653.40583-.68017.40652-1.081.00626q-2.9652-2.961-5.92513-5.92736c-.40945-.41033-.41049-.68084-.0111-1.08215q1.02268-1.02756,2.05281-2.0477a.63352.63352,0,0,1,1.056.00811q1.53433,1.527,3.06212,3.06068C134.53873,156.59623,134.63592,156.68245,134.76509,156.80354Zm-5.25015-.83218,5.22992,5.23056,5.21035-5.21-1.33789-1.35165c-.07766.07289-.175.15938-.26689.25124q-1.51539,1.51408-3.02976,3.02919c-.43858.43754-.70252.43863-1.136.006q-1.51628-1.5132-3.02972-3.02923c-.09856-.09847-.20208-.192-.27687-.26278Z"/><path class="ea0743d7-4b45-45b2-87b3-dc41e6ef2bff" d="M137.68848,152.14818a2.11129,2.11129,0,0,1-.257.45446q-1.094,1.12054-2.21112,2.21841a.60246.60246,0,0,1-.94013.00219q-1.11483-1.09989-2.21356-2.216a.59077.59077,0,0,1-.00273-.90957q1.09727-1.1174,2.2127-2.2169a.60359.60359,0,0,1,.94111-.0039q1.116,1.09863,2.21064,2.21889A2.1642,2.1642,0,0,1,137.68848,152.14818Zm-4.30723-.03807,1.365,1.37272,1.33436-1.3291-1.369-1.37905Z"/><path class="ea0743d7-4b45-45b2-87b3-dc41e6ef2bff" d="M126.98637,155.07163a2.33875,2.33875,0,0,1-.45534-.271q-1.1063-1.08256-2.19086-2.18727a.58216.58216,0,0,1,.01016-.93607q1.07113-1.08978,2.16077-2.1613a.58385.58385,0,0,1,.9377-.00655q1.09077,1.07006,2.16118,2.16078a.60505.60505,0,0,1-.01.97086q-1.05814,1.07469-2.13521,2.13059A2.72531,2.72531,0,0,1,126.98637,155.07163Zm-1.34452-2.92555,1.32007,1.32082,1.35246-1.33832-1.32-1.32538Z"/><path class="ea0743d7-4b45-45b2-87b3-dc41e6ef2bff" d="M145.43484,152.1475a2.56992,2.56992,0,0,1-.29313.48006q-1.06758,1.09322-2.15926,2.16275a.582.582,0,0,1-.93769-.0023q-1.08957-1.07131-2.16111-2.16089a.604.604,0,0,1,.01763-.96916q1.05945-1.07344,2.133-2.13287a.59211.59211,0,0,1,.96638.00466q1.09013,1.07073,2.1577,2.16429A2.44307,2.44307,0,0,1,145.43484,152.1475Zm-4.26174-.023,1.29859,1.33989,1.34078-1.33657-1.31326-1.3129Z"/><path class="e58d96b1-5f87-44ea-b8a5-8afc00996758" d="M35.42355,296.36117c-.84944.84948-1.6712,1.67133-2.493,2.49313-.43839.43839-.58755.43739-1.032-.00689-.49089-.49068-.98326-.9799-1.472-1.4727-.29651-.299-.29932-.51208-.00034-.81191q2.29187-2.29837,4.58921-4.59128c.29818-.29771.513-.30008.81116-.00264q2.29785,2.29237,4.58964,4.59082c.29911.29989.29925.5165.00489.8141q-.78594.79458-1.58029,1.58085c-.30435.30174-.52738.29842-.83689-.01055C37.15212,298.09381,36.30252,297.24133,35.42355,296.36117Zm.00664-3.42306-4.014,4.01378,1.06058,1.06383c.80971-.812,1.64506-1.65048,2.48139-2.488.368-.36849.55723-.37047.91975-.00857q1.15932,1.15735,2.31684,2.31651c.07613.07606.15605.14832.20461.19432l1.0708-1.05812Z"/><path class="e58d96b1-5f87-44ea-b8a5-8afc00996758" d="M35.43424,303.53955c.8624-.86545,1.69748-1.70447,2.53376-2.54228.3632-.36386.5566-.36286.92318.0026q.75906.75675,1.5158,1.51583c.31117.31347.31387.52382.00284.83563q-2.28176,2.2874-4.56831,4.57c-.31344.3129-.52442.31342-.83346.00482q-2.28616-2.283-4.56829-4.57c-.31569-.31637-.3165-.52493-.00856-.83434q.78849-.79226,1.58272-1.57879a.48845.48845,0,0,1,.81415.00625q1.183,1.17737,2.36091,2.3598C35.25972,303.37971,35.33465,303.44618,35.43424,303.53955Zm-4.04789-.64162,4.03229,4.03279,4.01721-4.017-1.03153-1.04213c-.05987.0562-.13489.12288-.20577.19371q-1.16836,1.16737-2.336,2.33552c-.33815.33735-.54164.33819-.87587.00464q-1.16907-1.16667-2.33594-2.33555c-.076-.07592-.1558-.148-.21346-.2026Z"/><path class="e58d96b1-5f87-44ea-b8a5-8afc00996758" d="M37.68819,299.95024a1.62842,1.62842,0,0,1-.19817.35039q-.84347.864-1.70479,1.71041a.4645.4645,0,0,1-.72484.00169q-.85954-.848-1.70667-1.70859a.45548.45548,0,0,1-.0021-.70128q.846-.86153,1.706-1.70924a.46537.46537,0,0,1,.72561-.003q.86048.84705,1.70441,1.71077A1.669,1.669,0,0,1,37.68819,299.95024Zm-3.3209-.02935,1.05243,1.05838,1.0288-1.02475-1.0555-1.06326Z"/><path class="e58d96b1-5f87-44ea-b8a5-8afc00996758" d="M29.4368,302.20423a1.80335,1.80335,0,0,1-.35106-.20893q-.853-.83466-1.68917-1.68639a.44887.44887,0,0,1,.00783-.72172q.82586-.84023,1.666-1.66637a.45015.45015,0,0,1,.723-.005q.841.825,1.66628,1.666a.46649.46649,0,0,1-.0077.74854q-.81582.82858-1.64625,1.64269A2.101,2.101,0,0,1,29.4368,302.20423Zm-1.03663-2.25561L29.418,300.967l1.04276-1.03185L29.443,298.91325Z"/><path class="e58d96b1-5f87-44ea-b8a5-8afc00996758" d="M43.66067,299.94972a1.98171,1.98171,0,0,1-.226.37013q-.8231.84287-1.6648,1.66748a.44867.44867,0,0,1-.723-.00177q-.84006-.826-1.66623-1.66606a.46571.46571,0,0,1,.0136-.74722q.81684-.82764,1.64459-1.64445a.45652.45652,0,0,1,.74509.00359q.84048.82554,1.66359,1.66867A1.88377,1.88377,0,0,1,43.66067,299.94972Zm-3.28582-.01769,1.00121,1.03305,1.03375-1.0305-1.01253-1.01225Z"/><path class="b9332551-0655-42bc-858a-767a30390373" d="M155.109,104.99761c.26206.66251.49419,1.24911.72612,1.8358.2534.641.511,1.28037.75761,1.924a.40183.40183,0,0,1-.22817.54358.4071.4071,0,0,1-.52733-.224.81421.81421,0,0,1-.03218-.07607q-1.00126-2.52428-2.00069-5.04928c-.16742-.42515.05312-.70132.50366-.62661q3.23782.53685,6.47364,1.08577c1.14226.19215,2.2859.37687,3.425.58612a1.19346,1.19346,0,0,1,.573.27807c.9749.91136,1.93282,1.8409,2.89527,2.76556.34074.32736.35007.48607.043.83582q-3.85358,4.38837-7.70939,8.77477c-.32422.36882-.648.309-.83222-.15436q-1.28329-3.228-2.56216-6.45782c-.128-.323-.05887-.54591.1915-.647.248-.10011.44855.01687.58034.34813q.94785,2.38236,1.89291,4.76583a.60288.60288,0,0,0,.15283.241c.07937-.55692.15985-1.11369.23789-1.6708.21563-1.53933.42432-3.07969.65079-4.61743a.56788.56788,0,0,0-.241-.6248c-1.57217-1.20084-3.12915-2.42159-4.69145-3.63537C155.31913,105.14505,155.24656,105.09642,155.109,104.99761Zm5.11762,11.06619.04843.02765,6.27934-7.146-5.38.33517Zm3.25924-10.35856-7.64169-1.28728-.02228.0673,4.95922,3.85353Zm.87614.30461-2.45852,2.3952,4.651-.2913Z"/><path class="b27af6a1-4a70-47b1-85d1-14d7500a9cda" d="M358.10737,141.60054c.262.66251.49419,1.24912.72612,1.83581.2534.641.511,1.28036.75761,1.92395a.40182.40182,0,0,1-.22817.54358.4071.4071,0,0,1-.52734-.224.817.817,0,0,1-.03217-.07608q-1.00126-2.52428-2.00069-5.04927c-.16742-.42515.05312-.70132.50366-.62662q3.23781.53687,6.47364,1.08578c1.14226.19214,2.2859.37686,3.425.58611a1.19347,1.19347,0,0,1,.573.27807c.9749.91136,1.93283,1.84091,2.89528,2.76557.34074.32735.35007.48606.043.83581q-3.85358,4.38838-7.70939,8.77478c-.32422.36881-.648.309-.83222-.15436q-1.28331-3.228-2.56216-6.45783c-.128-.323-.05887-.5459.19149-.647.248-.10011.44856.01686.58035.34812q.94785,2.38236,1.89291,4.76583a.60281.60281,0,0,0,.15283.241c.07937-.55692.15984-1.11369.23788-1.67079.21564-1.53934.42432-3.0797.6508-4.61743a.5679.5679,0,0,0-.241-.62481c-1.57217-1.20084-3.12915-2.42159-4.69145-3.63537C358.31748,141.748,358.2449,141.69935,358.10737,141.60054Zm5.11762,11.0662.04843.02765,6.27934-7.146-5.38.33518Zm3.25924-10.35857-7.64169-1.28728-.02228.0673,4.95922,3.85353Zm.87613.30461-2.45852,2.39521,4.65106-.2913Z"/><path class="b9332551-0655-42bc-858a-767a30390373" d="M219.845,84.65525c-.0063.09122-.018.18244-.0181.27366-.0012,1.24149.00491,2.483-.006,3.72443a.41753.41753,0,0,0,.27139.44006c1.07557.52514,2.144,1.06492,3.21555,1.59831.08169.04066.1685.071.33057.13849-.08344-.15763-.12577-.24786-.177-.33274-.43635-.72329-.87764-1.44363-1.31036-2.16908-.20833-.34925-.10247-.67787.23767-.77469a.45276.45276,0,0,1,.54815.22423q1.21932,1.99914,2.42837,4.00451c.1913.31891.09014.5568-.29812.77843-1.55046.885-3.09861,1.77424-4.65476,2.64918-1.28508.72253-.86161.71149-2.13652-.00317-1.5573-.873-3.10416-1.76456-4.655-2.649-.427-.2435-.48837-.469-.23452-.88791q2.72622-4.49925,5.4555-8.99664c.31125-.5129.69042-.51567.99994-.007.6114,1.00477,1.2173,2.01289,1.82946,3.0172a.49223.49223,0,0,1-.05355.69345.4847.4847,0,0,1-.7558-.17366c-.16734-.261-.32378-.52891-.48488-.79386q-.23279-.38287-.46525-.76593Zm.00467,9.76826,4.09571-2.335-4.09571-2.04477Zm-1.0051-4.38106-4.10377,2.04441,4.10377,2.33581Zm.01709-5.37979-.0842-.02321-3.74988,6.18488a2.267,2.267,0,0,0,.22976-.07348c1.13739-.56533,2.27675-1.12688,3.40645-1.70724a.46251.46251,0,0,0,.189-.3444c.01834-.65157.00881-1.30392.00883-1.956Q218.8617,85.70294,218.86167,84.66266Z"/><path class="b9332551-0655-42bc-858a-767a30390373" d="M213.78918,93.64122a3.508,3.508,0,0,1,.34659.15971c1.64888.949,3.29832,1.89707,4.9403,2.85788a.46522.46522,0,0,0,.5475-.00419c1.62383-.94951,3.25553-1.88553,4.885-2.82536.08327-.048.17088-.136.25179-.13094.17919.01126.41322.01536.51646.12472.102.10807.08942.34207.08944.52082,0,.08281-.0878.16663-.1385.2483q-2.67256,4.30524-5.34586,8.61a2.3795,2.3795,0,0,1-.1398.21492.47034.47034,0,0,1-.78866.00966,2.11948,2.11948,0,0,1-.14-.21468q-2.69175-4.33107-5.38271-8.66262a1.71665,1.71665,0,0,1-.14127-.25083A.48676.48676,0,0,1,213.78918,93.64122Zm5.02428,7.7467a.96425.96425,0,0,0,.04482-.16128c.00184-1.13348.007-2.267-.00546-3.40035a.42135.42135,0,0,0-.18637-.29c-.4076-.25417-.82933-.48567-1.24555-.72605q-1.07665-.62184-2.15283-1.24452l-.04506.04384Zm4.67548-5.82255c-.12185.05175-.16935.0664-.21137.09057-1.09291.62865-2.18827,1.25321-3.27252,1.89648a.48477.48477,0,0,0-.17125.36061c-.01335,1.05886-.00824,2.118-.00646,3.177.00013.07715.01745.15427.0367.31353Z"/><path class="b9332551-0655-42bc-858a-767a30390373" d="M267.66636,114.31069a5.94079,5.94079,0,0,1,2.85453-.75753,5.00942,5.00942,0,1,0-5.702-5.0769c-.01377.42482-.22478.67244-.56151.6589-.32794-.01319-.52293-.26224-.52182-.6665a6.10068,6.10068,0,1,1,6.92626,6.16884,11.86192,11.86192,0,0,0-1.50794.19417,2.47769,2.47769,0,0,0-1.99012,2.13476c-.05374.32354-.11438.64642-.1867.96624a.53656.53656,0,0,1-.65674.44181.54965.54965,0,0,1-.39924-.66245q.853-4.57212,1.71208-9.14309c.07432-.395.3347-.601.65066-.53966.32517.06312.487.32977.41268.734-.32524,1.76934-.65838,3.53723-.98853,5.30567C267.69857,114.11962,267.69047,114.17048,267.66636,114.31069Z"/><path class="b9332551-0655-42bc-858a-767a30390373" d="M270.22995,116.19417a1.072,1.072,0,0,1,1.09213,1.07474,1.08408,1.08408,0,0,1-1.08255,1.0905,1.09771,1.09771,0,0,1-1.0825-1.065A1.08389,1.08389,0,0,1,270.22995,116.19417Z"/><path class="e58d96b1-5f87-44ea-b8a5-8afc00996758" d="M399.934,257.57386a5.94075,5.94075,0,0,1,2.85453-.75752,5.00942,5.00942,0,1,0-5.70195-5.0769c-.01377.42482-.22479.67243-.56151.65889-.32794-.01318-.52293-.26224-.52182-.6665a6.10068,6.10068,0,1,1,6.92626,6.16885,11.86191,11.86191,0,0,0-1.50794.19416,2.4777,2.4777,0,0,0-1.99012,2.13477c-.05374.32354-.11438.64641-.18671.96624a.53654.53654,0,0,1-.65673.4418.54965.54965,0,0,1-.39925-.66244q.853-4.57212,1.71209-9.1431c.07432-.395.3347-.601.65065-.53965.32518.06311.487.32977.41269.734-.32524,1.76934-.65838,3.53724-.98854,5.30568C399.96619,257.38279,399.95809,257.43366,399.934,257.57386Z"/><path class="e58d96b1-5f87-44ea-b8a5-8afc00996758" d="M402.49757,259.45735a1.072,1.072,0,0,1,1.09212,1.07473,1.08408,1.08408,0,0,1-1.08254,1.09051,1.09772,1.09772,0,0,1-1.0825-1.065A1.08388,1.08388,0,0,1,402.49757,259.45735Z"/><path class="b9332551-0655-42bc-858a-767a30390373" d="M298.99548,144.90541a.42874.42874,0,1,1-.12912.70025.43606.43606,0,0,1,.12912-.70025m-3.59084.38708a.33661.33661,0,1,1-.03974.62588.3398.3398,0,0,1,.03974-.62588m7.35446.63262a.33556.33556,0,0,1-.06195-.63691c.23665-.11542.45378.101.4884.32535a.368.368,0,0,1-.42645.31156m-6.53741.8957a.51951.51951,0,1,1-.07307.85794.524.524,0,0,1,.07307-.85794m5.17591.22754a.52426.52426,0,0,1,.93636-.02213.54992.54992,0,0,1-.34235.76144.5419.5419,0,0,1-.594-.73931m-2.83453.71717a.64474.64474,0,0,1,.62036-.60757.68116.68116,0,0,1,.53206.34549.61187.61187,0,0,1-.28621.83381.8111.8111,0,0,1-.45647.03975.66376.66376,0,0,1-.40974-.61148m-5.34012.48825a.42867.42867,0,1,1-.06908.71717.43439.43439,0,0,1,.06908-.71717m11.46717-.00061a.42714.42714,0,1,1,.047.7367.42724.42724,0,0,1-.047-.7367m-4.62531.60237a1.0354,1.0354,0,1,1-.64089,1.34427,1.03982,1.03982,0,0,1,.64089-1.34427m-2.54426.05154a1.035,1.035,0,1,1-.48251,1.40041,1.0438,1.0438,0,0,1,.48251-1.40041m-2.54756.871a.6506.6506,0,0,1,.62336-.532.6867.6867,0,0,1,.60573.60627.64593.64593,0,0,1-.60382.62718.60722.60722,0,0,1-.62527-.70147m7.52464-.46466a.6106.6106,0,1,1-.04564,1.05676.61492.61492,0,0,1,.04564-1.05676m-6.01248,1.63363a1.03461,1.03461,0,1,1-.66639,1.44376,1.0438,1.0438,0,0,1,.66639-1.44376m4.82575-.0023a1.036,1.036,0,1,1-.61033,1.48458,1.04642,1.04642,0,0,1,.61033-1.48458m-7.69022.51467a.52374.52374,0,0,1,.65528.66042.51783.51783,0,0,1-.83787.21973.524.524,0,0,1,.18259-.88015m10.42748.5535a.58866.58866,0,0,1,.549-.61868.55154.55154,0,0,1,.49882.5411.51945.51945,0,0,1-.75509.4583.7014.7014,0,0,1-.29272-.38072m-12.31906-.36639a.33681.33681,0,1,1-.135.51635A.34274.34274,0,0,1,291.7291,151.64648Zm14.59335-.00582a.33378.33378,0,0,1,.489.15777.32866.32866,0,0,1-.32534.45769c-.32857.02994-.43487-.47079-.16367-.61546m-8.58018,1.397a1.03458,1.03458,0,1,1-.80532.9971,1.04661,1.04661,0,0,1,.80532-.9971m2.41192-.0013a1.036,1.036,0,1,1-.75777.76458,1.041,1.041,0,0,1,.75777-.76458m-4.65036.386a.61058.61058,0,1,1-.37957,1.00706.61508.61508,0,0,1,.37957-1.00706m7.0733.01906a.60994.60994,0,1,1-.11542,1.08809.61135.61135,0,0,1,.11542-1.08809m1.977,1.983a.42508.42508,0,0,1,.431-.59586.52577.52577,0,0,1,.36.22034c.02022.165.05415.36181-.08279.48894a.42554.42554,0,0,1-.70821-.11342m-11.33253-.51835a.43124.43124,0,0,1,.63967.43226.42936.42936,0,1,1-.63967-.43226m5.70736.62526a.60877.60877,0,1,1-.11351,1.08158.61583.61583,0,0,1,.11351-1.08158m-2.64345.61669a.51745.51745,0,0,1,.72506.48373.51121.51121,0,0,1-.57119.50457.51108.51108,0,0,1-.15387-.9883m5.35459.00521a.52.52,0,1,1-.06127.87119.52421.52421,0,0,1,.06127-.87119m.93116,2.302a.36663.36663,0,0,1,.26538-.5424c.19239.03914.39581.18382.35537.40684a.342.342,0,0,1-.62075.13556m-7.3916-.19361c.05866-.17669.20081-.35231.40882-.30636a.33841.33841,0,0,1,.12783.61937.36271.36271,0,0,1-.53665-.313m3.566.20273a.42461.42461,0,0,1,.61944-.24968c.14736.06326.1904.22815.22824.36831-.02022.073-.0383.14605-.05606.219a.48228.48228,0,0,1-.36058.21254.42467.42467,0,0,1-.431-.55021"/><path class="e58d96b1-5f87-44ea-b8a5-8afc00996758" d="M240.18976,207.66178a.42873.42873,0,1,1-.12913.70024.43606.43606,0,0,1,.12913-.70024m-3.59084.38707a.3366.3366,0,1,1-.03975.62588.3398.3398,0,0,1,.03975-.62588m7.35446.63262a.33556.33556,0,0,1-.062-.6369c.23666-.11542.45379.101.4884.32534a.368.368,0,0,1-.42644.31156m-6.53742.8957a.5195.5195,0,1,1-.07306.85794.524.524,0,0,1,.07306-.85794m5.17591.22755a.52427.52427,0,0,1,.93637-.02214.54993.54993,0,0,1-.34235.76144.5419.5419,0,0,1-.594-.7393m-2.83453.71717a.64476.64476,0,0,1,.62037-.60758.68119.68119,0,0,1,.532.34549.61188.61188,0,0,1-.28621.83382.81116.81116,0,0,1-.45646.03975.66378.66378,0,0,1-.40975-.61148m-5.34011.48825a.42867.42867,0,1,1-.06908.71717.43438.43438,0,0,1,.06908-.71717m11.46717-.00061a.42714.42714,0,1,1,.047.7367.42723.42723,0,0,1-.047-.7367m-4.62532.60236a1.0354,1.0354,0,1,1-.64089,1.34428,1.03983,1.03983,0,0,1,.64089-1.34428m-2.54426.05155a1.035,1.035,0,1,1-.4825,1.40041,1.04379,1.04379,0,0,1,.4825-1.40041m-2.54755.871a.65061.65061,0,0,1,.62335-.532.68672.68672,0,0,1,.60574.60628.646.646,0,0,1-.60382.62718.60723.60723,0,0,1-.62527-.70147m7.52464-.46466a.61059.61059,0,1,1-.04565,1.05676.61491.61491,0,0,1,.04565-1.05676m-6.01248,1.63362a1.03461,1.03461,0,1,1-.6664,1.44377,1.0438,1.0438,0,0,1,.6664-1.44377m4.82574-.0023a1.036,1.036,0,1,1-.61033,1.48459,1.04642,1.04642,0,0,1,.61033-1.48459m-7.69022.51468a.52375.52375,0,0,1,.65529.66042.51783.51783,0,0,1-.83787.21973.524.524,0,0,1,.18258-.88015m10.42749.5535a.58865.58865,0,0,1,.549-.61868.55152.55152,0,0,1,.49882.5411.51945.51945,0,0,1-.75508.4583.70135.70135,0,0,1-.29272-.38072m-12.31906-.3664a.33681.33681,0,1,1-.135.51636A.34275.34275,0,0,1,232.92338,214.40284Zm14.59334-.00582a.33381.33381,0,0,1,.489.15777.32865.32865,0,0,1-.32535.45769c-.32856.02995-.43487-.47078-.16367-.61546m-8.58017,1.39705a1.03458,1.03458,0,1,1-.80533.9971,1.0466,1.0466,0,0,1,.80533-.9971m2.41191-.0013a1.036,1.036,0,1,1-.75776.76458,1.041,1.041,0,0,1,.75776-.76458m-4.65036.386a.61058.61058,0,1,1-.37957,1.00706.61507.61507,0,0,1,.37957-1.00706m7.07331.01907a.60994.60994,0,1,1-.11542,1.08809.61135.61135,0,0,1,.11542-1.08809m1.977,1.983a.42507.42507,0,0,1,.431-.59585.5257.5257,0,0,1,.36.22034c.02022.165.05415.3618-.08279.48894a.42554.42554,0,0,1-.70821-.11343m-11.33253-.51835a.43123.43123,0,0,1,.63966.43227.42936.42936,0,1,1-.63966-.43227m5.70735.62527a.60877.60877,0,1,1-.1135,1.08158.61582.61582,0,0,1,.1135-1.08158m-2.64344.61669a.51745.51745,0,0,1,.72506.48373.51122.51122,0,0,1-.5712.50456.51107.51107,0,0,1-.15386-.98829m5.35459.00521a.52.52,0,1,1-.06127.87119.5242.5242,0,0,1,.06127-.87119m.93116,2.302a.36662.36662,0,0,1,.26537-.5424c.19239.03914.39581.18381.35537.40684a.342.342,0,0,1-.62074.13556m-7.39161-.19362c.05867-.17669.20082-.3523.40883-.30635a.33841.33841,0,0,1,.12782.61937.36272.36272,0,0,1-.53665-.313m3.566.20273a.42464.42464,0,0,1,.61945-.24968c.14736.06327.1904.22816.22823.36832-.02022.073-.03829.14605-.05606.219a.4822.4822,0,0,1-.36058.21253.42466.42466,0,0,1-.431-.55021"/></svg>